<?xml version="1.0" encoding="UTF-8" standalone="no"?>
<!DOCTYPE svg PUBLIC "-//W3C//DTD SVG 1.1//EN" "http://www.w3.org/Graphics/SVG/1.1/DTD/svg11.dtd">
<svg xmlns="http://www.w3.org/2000/svg" version="1.1" viewBox="0.00 0.00 1931.00 1086.00">
<g stroke-width="2.00" fill="none" stroke-linecap="butt">
<path stroke="#af5940" vector-effect="non-scaling-stroke" d="
  M 28.23 0.00
  Q 43.15 3.15 54.66 7.11
  C 68.33 11.81 82.41 17.66 96.29 24.25
  Q 139.05 44.54 180.12 68.11
  Q 262.33 115.31 341.54 167.85
  A 2.15 2.14 -82.2 0 1 342.38 168.96
  L 346.08 180.42
  A 0.94 0.94 0.0 0 1 345.93 181.28
  L 338.03 191.59
  Q 337.69 192.03 337.22 191.74
  C 259.03 142.73 175.01 96.89 90.61 59.16
  Q 46.17 39.30 0.00 23.34"
/>
<path stroke="#b38240" vector-effect="non-scaling-stroke" d="
  M 35.66 0.00
  Q 43.90 2.57 51.92 5.13
  C 77.47 13.27 102.74 25.40 126.50 37.80
  C 200.28 76.32 271.51 120.12 340.87 166.04
  A 0.28 0.27 -82.8 0 0 341.28 165.72
  L 333.31 141.25
  A 0.33 0.33 0.0 0 1 333.73 140.84
  L 353.47 147.79
  A 0.17 0.17 0.0 0 0 353.63 147.50
  Q 300.64 101.87 243.56 62.17
  Q 205.90 35.98 167.33 16.36
  Q 150.70 7.90 131.16 1.56
  Q 128.10 0.57 124.73 0.59
  Q 83.62 0.86 42.47 0.00"
/>
<path stroke="#657c6f" vector-effect="non-scaling-stroke" d="
  M 361.03 121.70
  Q 312.57 78.68 260.32 40.39
  C 240.53 25.90 219.42 11.93 197.64 1.60
  Q 195.54 0.61 193.18 0.62
  Q 164.46 0.78 135.58 0.40
  A 0.72 0.72 0.0 0 0 135.35 1.81
  C 163.00 11.00 190.10 26.28 214.64 41.86
  C 264.08 73.24 311.98 110.11 354.99 147.11
  Q 357.26 149.06 359.99 150.08
  Q 366.27 152.41 372.69 154.55
  Q 373.10 154.69 373.45 154.43
  L 385.92 145.38
  A 0.63 0.62 48.8 0 0 385.98 144.42
  Q 373.41 132.69 361.03 121.70"
/>
<path stroke="#b38240" vector-effect="non-scaling-stroke" d="
  M 437.87 196.25
  L 405.63 172.89
  A 1.08 1.08 0.0 0 1 405.19 172.00
  L 406.27 132.97
  A 0.66 0.66 0.0 0 0 405.22 132.42
  L 374.05 155.44
  A 1.76 1.74 -53.2 0 1 372.43 155.68
  L 335.46 142.66
  A 0.30 0.30 0.0 0 0 335.07 143.04
  L 347.27 180.47
  A 1.40 1.37 -35.7 0 1 347.05 181.73
  L 322.91 212.89
  A 0.36 0.36 0.0 0 0 323.19 213.47
  L 361.65 213.35
  Q 363.26 213.34 364.18 214.67
  L 386.25 246.78
  A 0.27 0.26 -53.1 0 0 386.72 246.71
  L 398.82 209.19
  A 1.81 1.80 0.6 0 1 400.03 208.01
  Q 419.61 202.12 437.55 196.76
  Q 437.96 196.64 437.88 196.26
  Q 437.87 196.25 437.87 196.25"
/>
</g>
<path fill="#ee583b" d="
  M 0.00 0.00
  L 28.23 0.00
  Q 43.15 3.15 54.66 7.11
  C 68.33 11.81 82.41 17.66 96.29 24.25
  Q 139.05 44.54 180.12 68.11
  Q 262.33 115.31 341.54 167.85
  A 2.15 2.14 -82.2 0 1 342.38 168.96
  L 346.08 180.42
  A 0.94 0.94 0.0 0 1 345.93 181.28
  L 338.03 191.59
  Q 337.69 192.03 337.22 191.74
  C 259.03 142.73 175.01 96.89 90.61 59.16
  Q 46.17 39.30 0.00 23.34
  L 0.00 0.00
  Z"
/>
<path fill="#6f5945" d="
  M 28.23 0.00
  L 35.66 0.00
  Q 43.90 2.57 51.92 5.13
  C 77.47 13.27 102.74 25.40 126.50 37.80
  C 200.28 76.32 271.51 120.12 340.87 166.04
  A 0.28 0.27 -82.8 0 0 341.28 165.72
  L 333.31 141.25
  A 0.33 0.33 0.0 0 1 333.73 140.84
  L 353.47 147.79
  A 0.17 0.17 0.0 0 0 353.63 147.50
  Q 300.64 101.87 243.56 62.17
  Q 205.90 35.98 167.33 16.36
  Q 150.70 7.90 131.16 1.56
  Q 128.10 0.57 124.73 0.59
  Q 83.62 0.86 42.47 0.00
  L 197.06 0.00
  Q 220.98 11.80 243.03 26.92
  C 293.96 61.85 341.82 102.24 387.19 144.01
  A 0.65 0.64 -41.9 0 0 388.01 144.05
  L 406.42 130.67
  Q 407.06 130.20 407.04 131.00
  L 406.02 171.69
  Q 406.01 172.21 406.42 172.51
  L 439.49 196.47
  Q 440.07 196.89 439.38 197.10
  L 400.24 208.75
  A 0.99 0.98 0.5 0 0 399.60 209.37
  L 386.93 248.44
  A 0.23 0.23 0.0 0 1 386.53 248.50
  L 363.33 214.86
  A 1.35 1.34 -17.1 0 0 362.22 214.28
  L 321.73 214.28
  A 0.40 0.40 0.0 0 1 321.41 213.63
  L 336.81 193.50
  A 0.50 0.50 0.0 0 0 336.68 192.77
  Q 236.00 129.53 129.00 78.00
  Q 65.91 47.62 0.00 24.32
  Q 0.00 23.83 0.00 23.34
  Q 46.17 39.30 90.61 59.16
  C 175.01 96.89 259.03 142.73 337.22 191.74
  Q 337.69 192.03 338.03 191.59
  L 345.93 181.28
  A 0.94 0.94 0.0 0 0 346.08 180.42
  L 342.38 168.96
  A 2.15 2.14 -82.2 0 0 341.54 167.85
  Q 262.33 115.31 180.12 68.11
  Q 139.05 44.54 96.29 24.25
  C 82.41 17.66 68.33 11.81 54.66 7.11
  Q 43.15 3.15 28.23 0.00
  Z
  M 361.03 121.70
  Q 312.57 78.68 260.32 40.39
  C 240.53 25.90 219.42 11.93 197.64 1.60
  Q 195.54 0.61 193.18 0.62
  Q 164.46 0.78 135.58 0.40
  A 0.72 0.72 0.0 0 0 135.35 1.81
  C 163.00 11.00 190.10 26.28 214.64 41.86
  C 264.08 73.24 311.98 110.11 354.99 147.11
  Q 357.26 149.06 359.99 150.08
  Q 366.27 152.41 372.69 154.55
  Q 373.10 154.69 373.45 154.43
  L 385.92 145.38
  A 0.63 0.62 48.8 0 0 385.98 144.42
  Q 373.41 132.69 361.03 121.70
  Z
  M 437.87 196.25
  L 405.63 172.89
  A 1.08 1.08 0.0 0 1 405.19 172.00
  L 406.27 132.97
  A 0.66 0.66 0.0 0 0 405.22 132.42
  L 374.05 155.44
  A 1.76 1.74 -53.2 0 1 372.43 155.68
  L 335.46 142.66
  A 0.30 0.30 0.0 0 0 335.07 143.04
  L 347.27 180.47
  A 1.40 1.37 -35.7 0 1 347.05 181.73
  L 322.91 212.89
  A 0.36 0.36 0.0 0 0 323.19 213.47
  L 361.65 213.35
  Q 363.26 213.34 364.18 214.67
  L 386.25 246.78
  A 0.27 0.26 -53.1 0 0 386.72 246.71
  L 398.82 209.19
  A 1.81 1.80 0.6 0 1 400.03 208.01
  Q 419.61 202.12 437.55 196.76
  Q 437.96 196.64 437.88 196.26
  Q 437.87 196.25 437.87 196.25
  Z"
/>
<path fill="#f6aa3a" d="
  M 35.66 0.00
  L 42.47 0.00
  Q 83.62 0.86 124.73 0.59
  Q 128.10 0.57 131.16 1.56
  Q 150.70 7.90 167.33 16.36
  Q 205.90 35.98 243.56 62.17
  Q 300.64 101.87 353.63 147.50
  A 0.17 0.17 0.0 0 1 353.47 147.79
  L 333.73 140.84
  A 0.33 0.33 0.0 0 0 333.31 141.25
  L 341.28 165.72
  A 0.28 0.27 -82.8 0 1 340.87 166.04
  C 271.51 120.12 200.28 76.32 126.50 37.80
  C 102.74 25.40 77.47 13.27 51.92 5.13
  Q 43.90 2.57 35.66 0.00
  Z"
/>
<path fill="#5a9e99" d="
  M 361.03 121.70
  Q 373.41 132.69 385.98 144.42
  A 0.63 0.62 48.8 0 1 385.92 145.38
  L 373.45 154.43
  Q 373.10 154.69 372.69 154.55
  Q 366.27 152.41 359.99 150.08
  Q 357.26 149.06 354.99 147.11
  C 311.98 110.11 264.08 73.24 214.64 41.86
  C 190.10 26.28 163.00 11.00 135.35 1.81
  A 0.72 0.72 0.0 0 1 135.58 0.40
  Q 164.46 0.78 193.18 0.62
  Q 195.54 0.61 197.64 1.60
  C 219.42 11.93 240.53 25.90 260.32 40.39
  Q 312.57 78.68 361.03 121.70
  Z"
/>
<path fill="#f6aa3a" d="
  M 437.87 196.25
  Q 437.87 196.25 437.88 196.26
  Q 437.96 196.64 437.55 196.76
  Q 419.61 202.12 400.03 208.01
  A 1.81 1.80 0.6 0 0 398.82 209.19
  L 386.72 246.71
  A 0.27 0.26 -53.1 0 1 386.25 246.78
  L 364.18 214.67
  Q 363.26 213.34 361.65 213.35
  L 323.19 213.47
  A 0.36 0.36 0.0 0 1 322.91 212.89
  L 347.05 181.73
  A 1.40 1.37 -35.7 0 0 347.27 180.47
  L 335.07 143.04
  A 0.30 0.30 0.0 0 1 335.46 142.66
  L 372.43 155.68
  A 1.76 1.74 -53.2 0 0 374.05 155.44
  L 405.22 132.42
  A 0.66 0.66 0.0 0 1 406.27 132.97
  L 405.19 172.00
  A 1.08 1.08 0.0 0 0 405.63 172.89
  L 437.87 196.25
  Z"
/>
</svg>
