<?xml version="1.0" encoding="UTF-8" standalone="no"?>
<!DOCTYPE svg PUBLIC "-//W3C//DTD SVG 1.1//EN" "http://www.w3.org/Graphics/SVG/1.1/DTD/svg11.dtd">
<svg xmlns="http://www.w3.org/2000/svg" version="1.1" viewBox="0.00 0.00 1931.00 1086.00">
<g stroke-width="2.00" fill="none" stroke-linecap="butt">
<path stroke="#a47e55" vector-effect="non-scaling-stroke" d="
  M 1931.00 0.90
  Q 1930.10 0.53 1929.00 0.53
  Q 1867.79 0.74 1806.78 0.51
  A 0.75 0.75 0.0 0 0 1806.05 1.45
  L 1818.07 47.71
  Q 1818.21 48.23 1818.68 47.96
  L 1855.07 26.94
  Q 1856.04 26.38 1855.74 27.46
  L 1848.92 52.24
  A 0.53 0.52 6.4 0 0 1849.45 52.90
  C 1858.77 52.50 1866.20 46.31 1871.43 38.99
  Q 1871.92 38.31 1871.91 39.15
  C 1871.79 51.02 1871.73 61.96 1874.43 73.68
  A 0.74 0.73 -6.4 0 0 1875.15 74.25
  L 1885.76 74.16
  A 0.36 0.36 0.0 0 1 1886.02 74.78
  L 1877.78 82.80
  A 1.44 1.44 0.0 0 0 1879.25 85.20
  C 1894.34 80.15 1908.94 95.08 1899.24 109.33
  Q 1898.61 110.26 1899.58 110.82
  Q 1914.49 119.41 1931.00 118.61"
/>
<path stroke="#a47e55" vector-effect="non-scaling-stroke" d="
  M 1749.78 3.50
  L 1783.44 37.59
  Q 1783.89 38.04 1784.21 37.49
  L 1805.02 1.36
  A 0.53 0.53 0.0 0 0 1804.56 0.56
  L 1723.22 0.53
  A 0.81 0.81 0.0 0 0 1722.41 1.34
  C 1722.44 17.03 1728.33 37.26 1748.76 34.48
  Q 1749.22 34.42 1749.22 33.96
  L 1749.23 3.73
  Q 1749.23 2.95 1749.78 3.50"
/>
<path stroke="#b19e84" vector-effect="non-scaling-stroke" d="
  M 1675.67 83.86
  A 0.31 0.31 0.0 0 1 1675.75 83.29
  L 1695.61 78.13
  Q 1696.34 77.94 1695.90 77.32
  Q 1686.13 63.78 1681.39 47.75
  A 0.54 0.53 74.6 0 0 1680.75 47.38
  C 1649.15 55.18 1599.16 56.88 1584.95 18.67
  Q 1584.75 18.13 1584.22 18.36
  C 1565.15 26.46 1544.36 25.87 1540.32 1.41
  A 1.08 1.06 85.2 0 0 1539.27 0.51
  L 1456.50 0.56
  Q 1455.58 0.56 1455.59 1.48
  C 1455.85 15.92 1464.48 24.71 1478.04 28.73
  Q 1487.40 31.50 1497.50 30.72
  Q 1499.76 30.55 1500.35 31.93
  C 1520.93 79.87 1573.49 84.60 1617.03 70.07
  Q 1617.85 69.80 1618.17 70.61
  Q 1636.49 117.48 1684.69 132.34
  Q 1685.22 132.50 1685.62 132.12
  L 1712.42 105.75
  Q 1712.88 105.30 1712.32 104.98
  L 1675.67 83.86"
/>
<path stroke="#aa9270" vector-effect="non-scaling-stroke" d="
  M 1702.04 33.42
  L 1748.53 46.24
  Q 1749.21 46.43 1749.21 45.72
  L 1749.18 35.98
  A 0.61 0.61 0.0 0 0 1748.48 35.38
  C 1727.83 38.51 1721.66 17.02 1721.24 1.24
  A 0.77 0.76 -0.8 0 0 1720.47 0.50
  L 1542.24 0.54
  A 0.62 0.62 0.0 0 0 1541.62 1.24
  C 1544.76 25.61 1567.30 24.82 1584.65 16.93
  Q 1585.17 16.69 1585.38 17.22
  Q 1596.03 43.69 1624.34 48.65
  Q 1652.73 53.63 1681.44 45.98
  A 0.59 0.59 0.0 0 1 1682.16 46.38
  Q 1687.02 63.00 1697.11 77.05
  A 1.06 1.05 -25.1 0 0 1698.23 77.45
  L 1720.93 71.56
  A 1.69 1.69 0.0 0 0 1721.96 69.08
  L 1701.65 33.94
  Q 1701.21 33.19 1702.04 33.42"
/>
<path stroke="#b58d50" vector-effect="non-scaling-stroke" d="
  M 1817.54 48.75
  L 1805.74 3.27
  Q 1805.46 2.18 1804.90 3.16
  L 1784.34 38.82
  Q 1784.04 39.34 1783.63 38.91
  L 1750.38 5.05
  Q 1749.77 4.43 1749.77 5.30
  L 1749.87 46.50
  Q 1749.87 47.39 1749.01 47.16
  L 1703.49 34.58
  A 0.28 0.27 82.6 0 0 1703.18 34.99
  L 1722.41 68.22
  Q 1722.77 68.84 1723.27 68.34
  L 1724.29 67.31
  A 0.42 0.33 -67.4 0 1 1724.49 67.20
  C 1728.82 66.12 1737.37 65.61 1739.02 70.98
  Q 1742.41 82.04 1744.26 94.53
  Q 1744.27 94.63 1744.37 94.63
  L 1744.63 94.63
  Q 1744.70 94.63 1744.70 94.56
  Q 1744.56 82.94 1746.32 71.45
  A 2.51 2.50 86.2 0 1 1748.09 69.42
  C 1755.25 67.31 1764.35 68.75 1768.76 75.04
  Q 1773.13 81.27 1768.17 89.34
  Q 1767.93 89.75 1768.26 90.09
  C 1770.51 92.36 1773.41 95.06 1770.45 98.26
  C 1768.93 99.91 1767.26 102.45 1765.18 102.51
  C 1763.00 102.58 1759.71 99.20 1757.64 98.04
  Q 1757.05 97.70 1756.98 98.38
  C 1756.77 100.31 1756.02 101.20 1753.96 101.26
  Q 1749.81 101.37 1745.75 100.43
  Q 1745.32 100.33 1745.14 99.92
  L 1744.65 98.76
  Q 1744.50 98.42 1744.26 98.71
  Q 1743.41 99.70 1742.00 99.69
  Q 1738.50 99.67 1734.99 99.45
  C 1732.22 99.27 1731.84 94.97 1731.47 93.29
  A 0.90 0.90 0.0 0 0 1730.71 92.60
  L 1726.83 92.15
  A 0.69 0.67 -67.6 0 0 1726.20 92.42
  C 1724.88 94.24 1723.48 98.01 1720.75 97.70
  C 1718.25 97.42 1712.63 97.50 1713.47 93.94
  Q 1715.69 84.51 1720.86 72.92
  A 0.33 0.33 0.0 0 0 1720.48 72.46
  L 1678.03 83.54
  A 0.38 0.37 52.6 0 0 1677.94 84.23
  L 1713.46 104.70
  A 0.68 0.68 0.0 0 1 1713.60 105.78
  L 1680.55 138.29
  A 0.59 0.59 0.0 0 0 1680.97 139.30
  L 1712.66 139.32
  A 0.73 0.72 0.4 0 0 1713.39 138.61
  C 1713.63 127.12 1721.40 123.63 1730.97 120.83
  A 0.57 0.57 0.0 0 0 1731.02 119.76
  L 1729.18 119.02
  Q 1728.56 118.76 1728.36 119.40
  Q 1727.36 122.61 1723.51 121.85
  C 1720.87 121.33 1715.15 119.98 1716.22 116.50
  Q 1718.28 109.84 1725.49 107.49
  C 1735.51 104.22 1746.84 112.58 1744.56 123.51
  Q 1743.52 128.51 1738.42 130.78
  C 1736.86 131.48 1734.53 131.70 1732.61 132.39
  Q 1731.73 132.70 1732.65 132.90
  Q 1736.06 133.62 1737.76 133.48
  C 1743.06 133.03 1742.74 139.82 1742.13 143.05
  Q 1741.57 146.03 1737.74 145.72
  Q 1729.71 145.05 1721.56 144.04
  Q 1721.00 143.97 1720.85 144.51
  L 1709.61 185.26
  A 0.45 0.45 0.0 0 0 1710.27 185.77
  L 1745.60 165.33
  A 0.68 0.67 -22.2 0 1 1746.59 165.74
  L 1758.16 210.28
  Q 1758.64 212.13 1759.59 210.47
  L 1779.61 175.59
  A 0.59 0.58 -52.5 0 1 1780.54 175.46
  L 1813.58 209.10
  A 0.40 0.40 0.0 0 0 1814.27 208.82
  L 1814.22 167.63
  A 0.56 0.56 0.0 0 1 1814.93 167.09
  L 1860.49 179.72
  A 0.32 0.32 0.0 0 0 1860.85 179.26
  L 1843.98 150.05
  Q 1843.71 149.60 1843.20 149.50
  C 1840.63 149.02 1838.54 149.68 1838.12 146.22
  Q 1836.98 136.90 1843.49 131.35
  C 1847.44 127.99 1852.17 122.57 1857.24 121.81
  Q 1861.78 121.14 1866.22 123.46
  A 1.15 1.14 9.0 0 1 1866.81 124.26
  C 1867.46 127.54 1866.61 132.02 1866.28 135.36
  Q 1866.23 135.93 1866.78 135.79
  L 1886.20 130.78
  A 0.33 0.33 0.0 0 0 1886.28 130.18
  L 1857.30 113.45
  Q 1856.86 113.19 1856.36 113.19
  Q 1847.03 113.18 1843.39 104.93
  A 0.12 0.12 0.0 0 0 1843.16 105.00
  L 1843.67 108.95
  A 1.84 1.84 0.0 0 1 1841.79 111.02
  L 1833.30 110.76
  A 1.61 1.61 0.0 0 1 1831.79 109.58
  L 1830.42 104.64
  A 0.92 0.91 -3.8 0 0 1829.66 103.98
  L 1825.86 103.50
  A 0.75 0.75 0.0 0 0 1825.14 103.83
  L 1821.83 108.79
  A 1.02 1.01 20.8 0 1 1820.86 109.22
  L 1813.93 108.24
  A 1.87 1.87 0.0 0 1 1812.37 105.96
  Q 1815.63 91.99 1822.41 79.36
  A 1.43 1.42 -83.1 0 1 1823.27 78.68
  Q 1829.61 76.96 1835.78 79.13
  A 1.77 1.72 82.9 0 1 1836.69 79.86
  Q 1837.91 81.79 1838.67 84.52
  Q 1841.29 93.94 1842.58 101.79
  Q 1842.64 102.19 1842.86 101.86
  Q 1844.85 98.92 1848.49 99.57
  A 0.28 0.28 0.0 0 0 1848.72 99.08
  C 1845.76 96.59 1844.21 94.74 1844.53 90.74
  C 1845.46 78.83 1863.27 76.14 1867.62 86.72
  C 1869.63 91.64 1864.64 92.14 1861.42 92.37
  A 0.28 0.28 0.0 0 0 1861.31 92.90
  L 1864.21 94.38
  Q 1864.72 94.64 1865.13 94.23
  L 1884.34 75.23
  A 0.16 0.16 0.0 0 0 1884.22 74.96
  L 1842.54 75.01
  A 0.57 0.56 -82.2 0 1 1842.00 74.29
  L 1854.63 28.65
  Q 1854.82 27.93 1854.18 28.30
  L 1818.29 49.07
  Q 1817.71 49.41 1817.54 48.75"
/>
<path stroke="#aa9270" vector-effect="non-scaling-stroke" d="
  M 1843.31 74.26
  L 1872.70 74.20
  Q 1873.32 74.20 1873.19 73.59
  Q 1869.92 58.33 1870.73 42.74
  Q 1870.77 42.01 1870.24 42.51
  C 1863.42 49.04 1859.02 53.51 1848.93 54.18
  Q 1848.37 54.22 1848.22 54.76
  L 1842.95 73.79
  A 0.37 0.37 0.0 0 0 1843.31 74.26"
/>
<path stroke="#a26251" vector-effect="non-scaling-stroke" d="
  M 1732.38 92.15
  L 1733.78 97.04
  A 1.66 1.65 83.3 0 0 1735.28 98.23
  L 1741.94 98.55
  A 1.35 1.34 -2.2 0 0 1743.34 97.05
  Q 1741.81 84.04 1737.60 71.11
  Q 1736.85 68.80 1734.50 68.36
  C 1731.17 67.73 1725.31 66.74 1723.45 70.48
  Q 1717.81 81.83 1714.74 93.90
  A 1.59 1.58 -79.5 0 0 1716.08 95.86
  L 1721.33 96.51
  Q 1721.91 96.58 1722.22 96.10
  L 1725.34 91.31
  A 0.73 0.73 0.0 0 1 1725.98 90.99
  L 1731.42 91.38
  A 1.08 1.07 -6.2 0 1 1732.38 92.15"
/>
<path stroke="#a26251" vector-effect="non-scaling-stroke" d="
  M 1766.34 89.16
  Q 1771.09 84.08 1768.42 77.19
  C 1765.64 69.99 1754.63 68.61 1748.25 70.69
  A 0.94 0.93 -5.0 0 0 1747.61 71.45
  Q 1745.56 85.06 1745.88 98.83
  A 0.75 0.74 1.3 0 0 1746.57 99.55
  L 1754.86 100.13
  A 0.69 0.68 -2.4 0 0 1755.58 99.35
  Q 1755.25 97.02 1757.26 96.63
  A 1.21 1.20 -32.6 0 1 1758.19 96.83
  L 1764.22 101.12
  A 1.38 1.37 -45.6 0 0 1765.85 101.10
  Q 1768.03 99.44 1769.96 96.94
  Q 1771.20 95.33 1769.93 93.93
  C 1768.71 92.59 1767.64 91.18 1766.35 89.89
  Q 1765.99 89.53 1766.34 89.16"
/>
<path stroke="#a26251" vector-effect="non-scaling-stroke" d="
  M 1824.87 102.50
  C 1827.06 101.90 1832.02 102.51 1832.13 105.50
  Q 1832.29 110.02 1836.21 109.94
  Q 1838.98 109.87 1841.49 109.72
  A 0.94 0.94 0.0 0 0 1842.37 108.66
  Q 1840.75 96.07 1837.21 83.81
  C 1836.64 81.85 1835.85 80.33 1833.68 79.79
  C 1830.78 79.08 1824.33 78.21 1822.68 81.47
  Q 1817.03 92.68 1813.64 105.32
  A 1.49 1.49 0.0 0 0 1814.86 107.18
  L 1820.25 107.97
  A 1.01 1.01 0.0 0 0 1821.24 107.52
  L 1824.05 103.10
  Q 1824.35 102.64 1824.87 102.50"
/>
<path stroke="#a26251" vector-effect="non-scaling-stroke" d="
  M 1854.39 103.46
  Q 1850.99 99.13 1845.43 101.24
  Q 1844.03 101.78 1844.30 103.25
  C 1846.66 116.07 1869.77 114.08 1867.35 101.24
  C 1866.21 95.22 1860.02 93.41 1855.20 92.01
  A 1.22 1.21 30.2 0 1 1854.66 89.99
  C 1856.04 88.58 1858.23 88.66 1859.05 90.67
  Q 1859.25 91.15 1859.77 91.20
  Q 1863.30 91.52 1866.48 90.04
  A 0.84 0.83 -14.2 0 0 1866.96 89.24
  C 1866.36 78.93 1846.37 78.38 1845.91 91.01
  C 1845.65 98.30 1852.00 98.89 1857.21 100.96
  A 1.51 1.51 0.0 0 1 1857.48 103.64
  Q 1856.44 104.30 1855.19 103.98
  Q 1854.71 103.85 1854.39 103.46"
/>
<path stroke="#aa9270" vector-effect="non-scaling-stroke" d="
  M 1862.54 180.55
  A 0.29 0.29 0.0 0 1 1862.21 180.98
  L 1815.60 168.13
  Q 1815.04 167.97 1815.04 168.56
  L 1815.07 184.47
  Q 1815.07 184.96 1815.41 185.32
  C 1845.29 216.50 1897.43 201.90 1930.03 184.23
  A 1.13 1.13 0.0 0 0 1930.62 183.24
  L 1930.63 120.73
  A 0.91 0.91 0.0 0 0 1929.70 119.82
  Q 1912.82 120.09 1898.39 111.45
  Q 1897.90 111.16 1897.51 111.57
  C 1881.79 127.86 1856.47 102.64 1876.32 86.82
  Q 1876.91 86.35 1876.99 85.90
  Q 1877.09 85.31 1876.72 84.66
  Q 1876.43 84.15 1876.02 84.56
  L 1865.61 94.81
  A 0.56 0.56 0.0 0 0 1865.60 95.60
  C 1872.26 102.44 1867.66 111.24 1859.24 112.97
  Q 1858.36 113.15 1859.14 113.60
  L 1888.35 130.41
  A 0.37 0.36 52.8 0 1 1888.26 131.08
  L 1866.47 136.74
  A 1.02 1.01 -47.2 0 0 1866.54 138.72
  C 1867.74 138.93 1870.14 139.16 1870.77 140.37
  C 1872.00 142.75 1870.07 149.06 1869.29 150.98
  A 0.93 0.92 10.6 0 1 1868.45 151.55
  L 1864.48 151.63
  A 0.68 0.67 -83.2 0 0 1863.84 152.14
  L 1862.11 158.61
  A 0.80 0.79 0.5 0 1 1861.52 159.18
  C 1859.16 159.69 1850.37 160.17 1849.86 156.75
  Q 1849.66 155.38 1849.79 150.87
  Q 1849.81 150.30 1849.24 150.22
  L 1845.43 149.70
  Q 1844.61 149.59 1845.03 150.30
  L 1862.54 180.55"
/>
<path stroke="#a26251" vector-effect="non-scaling-stroke" d="
  M 1900.8864 99.0214
  A 15.28 15.03 -4.8 0 0 1884.4023 85.3227
  A 15.28 15.03 -4.8 0 0 1870.4336 101.5786
  A 15.28 15.03 -4.8 0 0 1886.9177 115.2773
  A 15.28 15.03 -4.8 0 0 1900.8864 99.0214"
/>
<path stroke="#a47e55" vector-effect="non-scaling-stroke" d="
  M 1857.45 91.59
  Q 1858.36 91.65 1858.08 90.78
  Q 1857.73 89.75 1856.36 89.90
  A 0.62 0.62 0.0 0 0 1856.01 90.98
  Q 1856.62 91.53 1857.45 91.59"
/>
<path stroke="#a47e55" vector-effect="non-scaling-stroke" d="
  M 1855.34 101.32
  Q 1855.16 101.22 1854.94 101.20
  Q 1854.32 101.13 1854.45 101.74
  Q 1854.73 102.96 1855.93 103.13
  A 0.70 0.69 14.7 0 0 1856.68 102.70
  Q 1857.04 101.77 1855.73 101.47
  Q 1855.60 101.44 1855.34 101.32"
/>
<path stroke="#a26251" vector-effect="non-scaling-stroke" d="
  M 1728.84 133.17
  Q 1732.01 130.93 1735.78 130.12
  C 1748.05 127.50 1744.60 112.09 1734.59 108.91
  Q 1723.45 105.38 1717.34 116.55
  A 1.06 1.06 0.0 0 0 1717.34 117.57
  C 1718.70 120.01 1723.36 120.74 1725.67 120.84
  A 0.76 0.75 -77.9 0 0 1726.40 120.36
  Q 1727.76 116.82 1731.14 118.49
  C 1733.51 119.68 1732.62 121.64 1730.44 122.25
  C 1722.57 124.46 1716.02 127.68 1714.85 136.54
  Q 1714.58 138.59 1714.27 140.27
  A 1.55 1.54 -81.8 0 0 1715.62 142.08
  L 1739.36 144.77
  A 0.88 0.88 0.0 0 0 1740.26 144.25
  C 1741.26 141.97 1742.09 134.90 1738.76 134.72
  Q 1732.99 134.42 1729.01 133.87
  Q 1728.03 133.74 1728.84 133.17"
/>
<path stroke="#a26251" vector-effect="non-scaling-stroke" d="
  M 1863.36 150.48
  L 1867.86 150.48
  A 0.80 0.80 0.0 0 0 1868.65 149.82
  L 1870.20 141.60
  A 0.81 0.80 12.1 0 0 1869.59 140.67
  L 1865.01 139.54
  Q 1864.59 139.44 1864.64 139.01
  L 1865.97 125.27
  A 0.91 0.65 20.1 0 0 1865.46 124.52
  Q 1861.59 122.49 1857.58 123.04
  Q 1854.80 123.42 1851.51 126.09
  Q 1845.90 130.64 1842.29 134.58
  Q 1837.49 139.82 1839.82 147.35
  Q 1839.98 147.89 1840.55 147.95
  L 1850.48 149.07
  Q 1851.06 149.14 1851.06 149.73
  L 1851.02 156.49
  A 0.84 0.83 10.2 0 0 1851.58 157.29
  Q 1855.95 158.86 1860.56 158.23
  Q 1861.05 158.17 1861.17 157.68
  L 1862.80 150.91
  Q 1862.91 150.48 1863.36 150.48"
/>
<path stroke="#b19e84" vector-effect="non-scaling-stroke" d="
  M 1815.03 210.78
  Q 1815.03 211.63 1814.44 211.03
  L 1780.62 176.84
  Q 1780.19 176.40 1779.88 176.94
  L 1765.55 201.70
  Q 1765.33 202.09 1765.45 202.52
  Q 1770.76 221.15 1780.77 234.99
  C 1816.17 283.95 1885.88 266.20 1929.92 242.79
  A 1.13 1.12 -14.3 0 0 1930.52 241.80
  L 1930.57 186.20
  A 0.62 0.62 0.0 0 0 1929.66 185.66
  C 1896.32 203.48 1847.15 216.92 1815.49 187.29
  Q 1815.02 186.85 1815.02 187.49
  L 1815.03 210.78"
/>
<path stroke="#b58d50" vector-effect="non-scaling-stroke" d="
  M 1799.24 97.75
  L 1799.51 105.36
  A 1.45 1.44 -85.2 0 0 1800.66 106.73
  Q 1804.36 107.48 1808.45 107.51
  C 1810.55 107.53 1811.04 106.79 1811.39 104.87
  Q 1813.98 90.56 1814.32 78.72
  C 1814.37 77.02 1813.46 76.40 1811.99 76.03
  C 1807.71 74.95 1802.60 73.86 1799.42 77.69
  Q 1797.84 79.60 1794.15 83.64
  Q 1793.76 84.07 1793.50 83.56
  C 1791.96 80.57 1789.63 74.84 1786.45 73.38
  Q 1781.53 71.13 1776.43 72.36
  Q 1775.22 72.65 1774.98 73.87
  Q 1772.40 87.06 1772.01 100.75
  Q 1771.95 103.13 1774.52 103.64
  Q 1779.26 104.59 1782.41 104.60
  A 0.90 0.89 -82.3 0 0 1783.27 103.94
  L 1785.45 96.26
  A 0.23 0.22 32.7 0 1 1785.84 96.18
  L 1790.19 101.22
  A 2.28 2.28 0.0 0 0 1793.27 101.56
  L 1798.75 97.51
  A 0.31 0.31 0.0 0 1 1799.24 97.75"
/>
<path stroke="#b58d50" vector-effect="non-scaling-stroke" d="
  M 1785.07 141.05
  C 1789.07 131.86 1789.19 116.93 1777.86 112.88
  C 1771.04 110.45 1762.43 111.63 1758.61 118.55
  C 1753.86 127.16 1752.46 142.69 1763.10 147.90
  C 1771.32 151.93 1781.15 150.07 1785.07 141.05"
/>
<path stroke="#b58d50" vector-effect="non-scaling-stroke" d="
  M 1815.71 142.69
  A 0.38 0.38 0.0 0 1 1815.63 141.94
  C 1818.46 141.26 1821.52 140.71 1823.75 139.01
  C 1828.99 135.02 1828.98 127.28 1825.32 122.35
  C 1818.71 113.46 1804.13 114.59 1799.72 125.03
  C 1797.56 130.12 1805.29 131.48 1808.25 131.49
  Q 1810.73 131.50 1811.21 129.18
  Q 1811.37 128.40 1812.13 128.61
  L 1813.88 129.10
  A 0.72 0.72 0.0 0 1 1813.86 130.49
  C 1802.84 133.22 1794.89 139.03 1796.58 151.64
  A 0.79 0.78 -89.0 0 0 1797.22 152.31
  Q 1810.04 154.68 1823.04 155.35
  A 1.24 1.22 21.3 0 0 1824.04 154.92
  C 1826.12 152.44 1826.44 143.31 1822.00 142.99
  Q 1818.68 142.74 1815.71 142.69"
/>
<path stroke="#a26251" vector-effect="non-scaling-stroke" d="
  M 1733.00 83.99
  C 1732.68 82.23 1731.96 79.24 1729.97 78.52
  A 0.80 0.80 0.0 0 0 1729.03 78.85
  L 1726.65 82.61
  A 1.66 1.66 0.0 0 0 1727.42 85.03
  Q 1730.01 86.08 1732.47 84.99
  A 0.93 0.92 73.3 0 0 1733.00 83.99"
/>
<path stroke="#a26251" vector-effect="non-scaling-stroke" d="
  M 1754.92 79.52
  L 1754.86 83.32
  A 1.41 1.41 0.0 0 0 1756.24 84.76
  L 1757.57 84.78
  A 3.60 3.22 1.0 0 0 1761.23 81.63
  L 1761.23 81.45
  A 3.60 3.22 1.0 0 0 1757.69 78.16
  L 1756.36 78.14
  A 1.41 1.41 0.0 0 0 1754.92 79.52"
/>
<path stroke="#a26251" vector-effect="non-scaling-stroke" d="
  M 1785.21 93.23
  L 1790.68 100.02
  Q 1791.72 101.32 1793.03 100.29
  L 1800.10 94.72
  A 0.30 0.29 70.3 0 1 1800.58 94.95
  L 1800.60 104.95
  A 0.74 0.73 2.6 0 0 1801.27 105.68
  L 1809.07 106.39
  A 0.81 0.81 0.0 0 0 1809.94 105.75
  Q 1812.76 92.26 1813.09 78.49
  A 1.14 1.14 0.0 0 0 1812.28 77.37
  C 1808.45 76.24 1803.24 75.06 1800.19 78.72
  Q 1798.46 80.79 1793.90 85.79
  Q 1793.52 86.21 1793.25 85.71
  C 1790.83 81.22 1788.13 74.99 1785.57 74.28
  Q 1781.83 73.24 1777.77 73.27
  A 1.79 1.78 4.6 0 0 1776.02 74.75
  Q 1773.77 87.59 1773.21 100.61
  A 1.92 1.92 0.0 0 0 1774.87 102.60
  L 1781.22 103.45
  A 1.19 1.19 0.0 0 0 1782.53 102.55
  L 1784.73 93.33
  Q 1784.86 92.79 1785.21 93.23"
/>
<path stroke="#b58d50" vector-effect="non-scaling-stroke" d="
  M 1755.98 80.03
  L 1755.96 82.93
  A 0.73 0.73 0.0 0 0 1756.68 83.66
  L 1757.04 83.66
  A 2.91 2.06 0.4 0 0 1759.97 81.62
  L 1759.97 81.38
  A 2.91 2.06 0.4 0 0 1757.08 79.30
  L 1756.72 79.30
  A 0.73 0.73 0.0 0 0 1755.98 80.03"
/>
<path stroke="#b58d50" vector-effect="non-scaling-stroke" d="
  M 1727.84 83.16
  A 0.66 0.66 0.0 0 0 1728.36 84.15
  L 1731.16 84.34
  A 0.66 0.66 0.0 0 0 1731.81 83.42
  L 1730.60 80.55
  A 0.66 0.66 0.0 0 0 1729.42 80.47
  L 1727.84 83.16"
/>
<path stroke="#a26251" vector-effect="non-scaling-stroke" d="
  M 1830.85 96.64
  A 1.83 1.83 0.0 0 0 1831.90 94.19
  L 1830.61 91.20
  A 1.83 1.83 0.0 0 0 1827.33 91.03
  L 1825.69 93.94
  A 1.83 1.83 0.0 0 0 1826.93 96.63
  L 1828.97 97.04
  A 1.83 1.83 0.0 0 0 1829.95 96.97
  L 1830.85 96.64"
/>
<path stroke="#a26251" vector-effect="non-scaling-stroke" d="
  M 1890.26 100.32
  A 4.64 4.64 0.0 0 0 1885.62 95.68
  A 4.64 4.64 0.0 0 0 1880.98 100.32
  A 4.64 4.64 0.0 0 0 1885.62 104.96
  A 4.64 4.64 0.0 0 0 1890.26 100.32"
/>
<path stroke="#b58d50" vector-effect="non-scaling-stroke" d="
  M 1830.12 95.70
  A 0.65 0.65 0.0 0 0 1830.77 94.79
  L 1829.51 91.93
  A 0.65 0.65 0.0 0 0 1828.35 91.86
  L 1826.85 94.47
  A 0.65 0.65 0.0 0 0 1827.35 95.44
  L 1830.12 95.70"
/>
<path stroke="#a47e55" vector-effect="non-scaling-stroke" d="
  M 1884.93 97.44
  L 1888.41 101.67
  A 0.15 0.15 0.0 0 0 1888.62 101.69
  L 1888.65 101.67
  A 2.74 1.88 50.6 0 0 1888.36 98.36
  L 1888.17 98.13
  A 2.74 1.88 50.6 0 0 1884.98 97.21
  L 1884.96 97.23
  A 0.15 0.15 0.0 0 0 1884.93 97.44"
/>
<path stroke="#aa9270" vector-effect="non-scaling-stroke" d="
  M 1887.78 102.71
  L 1883.69 97.70
  A 0.16 0.16 0.0 0 0 1883.47 97.68
  L 1883.42 97.72
  A 3.30 3.30 0.0 0 0 1882.95 102.36
  L 1883.06 102.50
  A 3.30 3.30 0.0 0 0 1887.71 102.97
  L 1887.75 102.94
  A 0.16 0.16 0.0 0 0 1887.78 102.71"
/>
<path stroke="#a26251" vector-effect="non-scaling-stroke" d="
  M 1758.47 121.71
  C 1754.98 129.62 1754.77 142.66 1764.02 146.92
  C 1770.62 149.96 1779.32 149.18 1783.13 142.13
  C 1787.94 133.25 1788.69 117.69 1776.73 113.92
  Q 1763.74 109.81 1758.47 121.71"
/>
<path stroke="#a26251" vector-effect="non-scaling-stroke" d="
  M 1770.7510 136.9137
  A 6.16 5.29 95.3 0 0 1776.5874 131.2686
  A 6.16 5.29 95.3 0 0 1771.8890 124.6463
  A 6.16 5.29 95.3 0 0 1766.0526 130.2914
  A 6.16 5.29 95.3 0 0 1770.7510 136.9137"
/>
<path stroke="#a26251" vector-effect="non-scaling-stroke" d="
  M 1811.88 142.92
  Q 1814.83 140.48 1817.00 140.26
  C 1823.76 139.57 1827.74 134.38 1826.41 127.77
  C 1824.49 118.28 1812.03 114.58 1804.72 120.49
  C 1803.17 121.74 1798.30 126.69 1801.93 128.60
  Q 1805.28 130.35 1808.72 130.42
  A 1.04 1.02 -77.2 0 0 1809.67 129.81
  L 1810.37 128.25
  Q 1810.56 127.84 1810.98 127.71
  C 1812.65 127.16 1816.18 127.92 1815.48 130.40
  A 1.69 1.68 -89.4 0 1 1814.27 131.59
  C 1804.31 134.22 1796.56 139.08 1797.69 150.69
  A 0.67 0.66 -87.7 0 0 1798.23 151.28
  Q 1810.43 153.47 1822.82 154.11
  A 0.70 0.69 11.0 0 0 1823.52 153.64
  Q 1824.94 149.56 1823.63 145.44
  A 1.56 1.54 83.2 0 0 1822.28 144.36
  L 1812.06 143.50
  Q 1811.26 143.43 1811.88 142.92"
/>
<path stroke="#a26251" vector-effect="non-scaling-stroke" d="
  M 1855.94 140.40
  Q 1856.73 138.40 1855.88 136.49
  A 0.69 0.68 66.1 0 0 1854.99 136.14
  Q 1852.54 137.17 1851.01 139.36
  A 0.77 0.77 0.0 0 0 1851.20 140.43
  Q 1852.11 141.09 1853.26 141.13
  A 0.83 0.01 1.5 0 1 1854.04 141.16
  Q 1855.43 141.69 1855.94 140.40"
/>
<path stroke="#b58d50" vector-effect="non-scaling-stroke" d="
  M 1770.8133 135.6358
  A 4.90 4.04 95.7 0 0 1775.3200 131.1613
  A 4.90 4.04 95.7 0 0 1771.7867 125.8842
  A 4.90 4.04 95.7 0 0 1767.2800 130.3587
  A 4.90 4.04 95.7 0 0 1770.8133 135.6358"
/>
<path stroke="#a47e55" vector-effect="non-scaling-stroke" d="
  M 1853.45 139.46
  C 1854.10 139.34 1854.54 139.33 1855.02 138.89
  A 0.72 0.72 0.0 0 0 1854.12 137.77
  Q 1853.37 138.30 1852.90 139.02
  Q 1852.66 139.40 1853.10 139.47
  Q 1853.27 139.49 1853.45 139.46"
/>
</g>
<path fill="#715a46" d="
  M 1454.52 0.00
  L 1931.00 0.00
  L 1931.00 0.90
  Q 1930.10 0.53 1929.00 0.53
  Q 1867.79 0.74 1806.78 0.51
  A 0.75 0.75 0.0 0 0 1806.05 1.45
  L 1818.07 47.71
  Q 1818.21 48.23 1818.68 47.96
  L 1855.07 26.94
  Q 1856.04 26.38 1855.74 27.46
  L 1848.92 52.24
  A 0.53 0.52 6.4 0 0 1849.45 52.90
  C 1858.77 52.50 1866.20 46.31 1871.43 38.99
  Q 1871.92 38.31 1871.91 39.15
  C 1871.79 51.02 1871.73 61.96 1874.43 73.68
  A 0.74 0.73 -6.4 0 0 1875.15 74.25
  L 1885.76 74.16
  A 0.36 0.36 0.0 0 1 1886.02 74.78
  L 1877.78 82.80
  A 1.44 1.44 0.0 0 0 1879.25 85.20
  C 1894.34 80.15 1908.94 95.08 1899.24 109.33
  Q 1898.61 110.26 1899.58 110.82
  Q 1914.49 119.41 1931.00 118.61
  L 1931.00 243.46
  C 1902.49 258.90 1864.82 270.77 1833.09 266.48
  C 1797.24 261.63 1774.82 238.05 1764.74 204.34
  A 0.38 0.38 0.0 0 0 1764.05 204.26
  L 1758.72 213.46
  Q 1758.36 214.09 1758.18 213.39
  L 1746.02 166.58
  A 0.41 0.40 -22.2 0 0 1745.43 166.34
  L 1708.71 187.57
  Q 1708.05 187.95 1708.25 187.21
  L 1720.05 144.48
  A 0.56 0.56 0.0 0 0 1719.65 143.78
  C 1717.36 143.18 1713.45 143.74 1713.21 140.68
  Q 1713.16 140.05 1712.54 140.05
  L 1678.49 140.06
  Q 1677.69 140.06 1678.25 139.49
  L 1683.87 133.83
  A 0.39 0.39 0.0 0 0 1683.71 133.19
  Q 1635.93 118.23 1617.43 71.79
  Q 1617.22 71.26 1616.67 71.44
  C 1572.54 85.45 1520.21 80.89 1499.35 32.47
  Q 1499.14 31.98 1498.60 32.01
  C 1477.06 33.24 1454.60 25.47 1454.52 0.00
  Z
  M 1749.78 3.50
  L 1783.44 37.59
  Q 1783.89 38.04 1784.21 37.49
  L 1805.02 1.36
  A 0.53 0.53 0.0 0 0 1804.56 0.56
  L 1723.22 0.53
  A 0.81 0.81 0.0 0 0 1722.41 1.34
  C 1722.44 17.03 1728.33 37.26 1748.76 34.48
  Q 1749.22 34.42 1749.22 33.96
  L 1749.23 3.73
  Q 1749.23 2.95 1749.78 3.50
  Z
  M 1675.67 83.86
  A 0.31 0.31 0.0 0 1 1675.75 83.29
  L 1695.61 78.13
  Q 1696.34 77.94 1695.90 77.32
  Q 1686.13 63.78 1681.39 47.75
  A 0.54 0.53 74.6 0 0 1680.75 47.38
  C 1649.15 55.18 1599.16 56.88 1584.95 18.67
  Q 1584.75 18.13 1584.22 18.36
  C 1565.15 26.46 1544.36 25.87 1540.32 1.41
  A 1.08 1.06 85.2 0 0 1539.27 0.51
  L 1456.50 0.56
  Q 1455.58 0.56 1455.59 1.48
  C 1455.85 15.92 1464.48 24.71 1478.04 28.73
  Q 1487.40 31.50 1497.50 30.72
  Q 1499.76 30.55 1500.35 31.93
  C 1520.93 79.87 1573.49 84.60 1617.03 70.07
  Q 1617.85 69.80 1618.17 70.61
  Q 1636.49 117.48 1684.69 132.34
  Q 1685.22 132.50 1685.62 132.12
  L 1712.42 105.75
  Q 1712.88 105.30 1712.32 104.98
  L 1675.67 83.86
  Z
  M 1702.04 33.42
  L 1748.53 46.24
  Q 1749.21 46.43 1749.21 45.72
  L 1749.18 35.98
  A 0.61 0.61 0.0 0 0 1748.48 35.38
  C 1727.83 38.51 1721.66 17.02 1721.24 1.24
  A 0.77 0.76 -0.8 0 0 1720.47 0.50
  L 1542.24 0.54
  A 0.62 0.62 0.0 0 0 1541.62 1.24
  C 1544.76 25.61 1567.30 24.82 1584.65 16.93
  Q 1585.17 16.69 1585.38 17.22
  Q 1596.03 43.69 1624.34 48.65
  Q 1652.73 53.63 1681.44 45.98
  A 0.59 0.59 0.0 0 1 1682.16 46.38
  Q 1687.02 63.00 1697.11 77.05
  A 1.06 1.05 -25.1 0 0 1698.23 77.45
  L 1720.93 71.56
  A 1.69 1.69 0.0 0 0 1721.96 69.08
  L 1701.65 33.94
  Q 1701.21 33.19 1702.04 33.42
  Z
  M 1817.54 48.75
  L 1805.74 3.27
  Q 1805.46 2.18 1804.90 3.16
  L 1784.34 38.82
  Q 1784.04 39.34 1783.63 38.91
  L 1750.38 5.05
  Q 1749.77 4.43 1749.77 5.30
  L 1749.87 46.50
  Q 1749.87 47.39 1749.01 47.16
  L 1703.49 34.58
  A 0.28 0.27 82.6 0 0 1703.18 34.99
  L 1722.41 68.22
  Q 1722.77 68.84 1723.27 68.34
  L 1724.29 67.31
  A 0.42 0.33 -67.4 0 1 1724.49 67.20
  C 1728.82 66.12 1737.37 65.61 1739.02 70.98
  Q 1742.41 82.04 1744.26 94.53
  Q 1744.27 94.63 1744.37 94.63
  L 1744.63 94.63
  Q 1744.70 94.63 1744.70 94.56
  Q 1744.56 82.94 1746.32 71.45
  A 2.51 2.50 86.2 0 1 1748.09 69.42
  C 1755.25 67.31 1764.35 68.75 1768.76 75.04
  Q 1773.13 81.27 1768.17 89.34
  Q 1767.93 89.75 1768.26 90.09
  C 1770.51 92.36 1773.41 95.06 1770.45 98.26
  C 1768.93 99.91 1767.26 102.45 1765.18 102.51
  C 1763.00 102.58 1759.71 99.20 1757.64 98.04
  Q 1757.05 97.70 1756.98 98.38
  C 1756.77 100.31 1756.02 101.20 1753.96 101.26
  Q 1749.81 101.37 1745.75 100.43
  Q 1745.32 100.33 1745.14 99.92
  L 1744.65 98.76
  Q 1744.50 98.42 1744.26 98.71
  Q 1743.41 99.70 1742.00 99.69
  Q 1738.50 99.67 1734.99 99.45
  C 1732.22 99.27 1731.84 94.97 1731.47 93.29
  A 0.90 0.90 0.0 0 0 1730.71 92.60
  L 1726.83 92.15
  A 0.69 0.67 -67.6 0 0 1726.20 92.42
  C 1724.88 94.24 1723.48 98.01 1720.75 97.70
  C 1718.25 97.42 1712.63 97.50 1713.47 93.94
  Q 1715.69 84.51 1720.86 72.92
  A 0.33 0.33 0.0 0 0 1720.48 72.46
  L 1678.03 83.54
  A 0.38 0.37 52.6 0 0 1677.94 84.23
  L 1713.46 104.70
  A 0.68 0.68 0.0 0 1 1713.60 105.78
  L 1680.55 138.29
  A 0.59 0.59 0.0 0 0 1680.97 139.30
  L 1712.66 139.32
  A 0.73 0.72 0.4 0 0 1713.39 138.61
  C 1713.63 127.12 1721.40 123.63 1730.97 120.83
  A 0.57 0.57 0.0 0 0 1731.02 119.76
  L 1729.18 119.02
  Q 1728.56 118.76 1728.36 119.40
  Q 1727.36 122.61 1723.51 121.85
  C 1720.87 121.33 1715.15 119.98 1716.22 116.50
  Q 1718.28 109.84 1725.49 107.49
  C 1735.51 104.22 1746.84 112.58 1744.56 123.51
  Q 1743.52 128.51 1738.42 130.78
  C 1736.86 131.48 1734.53 131.70 1732.61 132.39
  Q 1731.73 132.70 1732.65 132.90
  Q 1736.06 133.62 1737.76 133.48
  C 1743.06 133.03 1742.74 139.82 1742.13 143.05
  Q 1741.57 146.03 1737.74 145.72
  Q 1729.71 145.05 1721.56 144.04
  Q 1721.00 143.97 1720.85 144.51
  L 1709.61 185.26
  A 0.45 0.45 0.0 0 0 1710.27 185.77
  L 1745.60 165.33
  A 0.68 0.67 -22.2 0 1 1746.59 165.74
  L 1758.16 210.28
  Q 1758.64 212.13 1759.59 210.47
  L 1779.61 175.59
  A 0.59 0.58 -52.5 0 1 1780.54 175.46
  L 1813.58 209.10
  A 0.40 0.40 0.0 0 0 1814.27 208.82
  L 1814.22 167.63
  A 0.56 0.56 0.0 0 1 1814.93 167.09
  L 1860.49 179.72
  A 0.32 0.32 0.0 0 0 1860.85 179.26
  L 1843.98 150.05
  Q 1843.71 149.60 1843.20 149.50
  C 1840.63 149.02 1838.54 149.68 1838.12 146.22
  Q 1836.98 136.90 1843.49 131.35
  C 1847.44 127.99 1852.17 122.57 1857.24 121.81
  Q 1861.78 121.14 1866.22 123.46
  A 1.15 1.14 9.0 0 1 1866.81 124.26
  C 1867.46 127.54 1866.61 132.02 1866.28 135.36
  Q 1866.23 135.93 1866.78 135.79
  L 1886.20 130.78
  A 0.33 0.33 0.0 0 0 1886.28 130.18
  L 1857.30 113.45
  Q 1856.86 113.19 1856.36 113.19
  Q 1847.03 113.18 1843.39 104.93
  A 0.12 0.12 0.0 0 0 1843.16 105.00
  L 1843.67 108.95
  A 1.84 1.84 0.0 0 1 1841.79 111.02
  L 1833.30 110.76
  A 1.61 1.61 0.0 0 1 1831.79 109.58
  L 1830.42 104.64
  A 0.92 0.91 -3.8 0 0 1829.66 103.98
  L 1825.86 103.50
  A 0.75 0.75 0.0 0 0 1825.14 103.83
  L 1821.83 108.79
  A 1.02 1.01 20.8 0 1 1820.86 109.22
  L 1813.93 108.24
  A 1.87 1.87 0.0 0 1 1812.37 105.96
  Q 1815.63 91.99 1822.41 79.36
  A 1.43 1.42 -83.1 0 1 1823.27 78.68
  Q 1829.61 76.96 1835.78 79.13
  A 1.77 1.72 82.9 0 1 1836.69 79.86
  Q 1837.91 81.79 1838.67 84.52
  Q 1841.29 93.94 1842.58 101.79
  Q 1842.64 102.19 1842.86 101.86
  Q 1844.85 98.92 1848.49 99.57
  A 0.28 0.28 0.0 0 0 1848.72 99.08
  C 1845.76 96.59 1844.21 94.74 1844.53 90.74
  C 1845.46 78.83 1863.27 76.14 1867.62 86.72
  C 1869.63 91.64 1864.64 92.14 1861.42 92.37
  A 0.28 0.28 0.0 0 0 1861.31 92.90
  L 1864.21 94.38
  Q 1864.72 94.64 1865.13 94.23
  L 1884.34 75.23
  A 0.16 0.16 0.0 0 0 1884.22 74.96
  L 1842.54 75.01
  A 0.57 0.56 -82.2 0 1 1842.00 74.29
  L 1854.63 28.65
  Q 1854.82 27.93 1854.18 28.30
  L 1818.29 49.07
  Q 1817.71 49.41 1817.54 48.75
  Z
  M 1843.31 74.26
  L 1872.70 74.20
  Q 1873.32 74.20 1873.19 73.59
  Q 1869.92 58.33 1870.73 42.74
  Q 1870.77 42.01 1870.24 42.51
  C 1863.42 49.04 1859.02 53.51 1848.93 54.18
  Q 1848.37 54.22 1848.22 54.76
  L 1842.95 73.79
  A 0.37 0.37 0.0 0 0 1843.31 74.26
  Z
  M 1732.38 92.15
  L 1733.78 97.04
  A 1.66 1.65 83.3 0 0 1735.28 98.23
  L 1741.94 98.55
  A 1.35 1.34 -2.2 0 0 1743.34 97.05
  Q 1741.81 84.04 1737.60 71.11
  Q 1736.85 68.80 1734.50 68.36
  C 1731.17 67.73 1725.31 66.74 1723.45 70.48
  Q 1717.81 81.83 1714.74 93.90
  A 1.59 1.58 -79.5 0 0 1716.08 95.86
  L 1721.33 96.51
  Q 1721.91 96.58 1722.22 96.10
  L 1725.34 91.31
  A 0.73 0.73 0.0 0 1 1725.98 90.99
  L 1731.42 91.38
  A 1.08 1.07 -6.2 0 1 1732.38 92.15
  Z
  M 1766.34 89.16
  Q 1771.09 84.08 1768.42 77.19
  C 1765.64 69.99 1754.63 68.61 1748.25 70.69
  A 0.94 0.93 -5.0 0 0 1747.61 71.45
  Q 1745.56 85.06 1745.88 98.83
  A 0.75 0.74 1.3 0 0 1746.57 99.55
  L 1754.86 100.13
  A 0.69 0.68 -2.4 0 0 1755.58 99.35
  Q 1755.25 97.02 1757.26 96.63
  A 1.21 1.20 -32.6 0 1 1758.19 96.83
  L 1764.22 101.12
  A 1.38 1.37 -45.6 0 0 1765.85 101.10
  Q 1768.03 99.44 1769.96 96.94
  Q 1771.20 95.33 1769.93 93.93
  C 1768.71 92.59 1767.64 91.18 1766.35 89.89
  Q 1765.99 89.53 1766.34 89.16
  Z
  M 1824.87 102.50
  C 1827.06 101.90 1832.02 102.51 1832.13 105.50
  Q 1832.29 110.02 1836.21 109.94
  Q 1838.98 109.87 1841.49 109.72
  A 0.94 0.94 0.0 0 0 1842.37 108.66
  Q 1840.75 96.07 1837.21 83.81
  C 1836.64 81.85 1835.85 80.33 1833.68 79.79
  C 1830.78 79.08 1824.33 78.21 1822.68 81.47
  Q 1817.03 92.68 1813.64 105.32
  A 1.49 1.49 0.0 0 0 1814.86 107.18
  L 1820.25 107.97
  A 1.01 1.01 0.0 0 0 1821.24 107.52
  L 1824.05 103.10
  Q 1824.35 102.64 1824.87 102.50
  Z
  M 1854.39 103.46
  Q 1850.99 99.13 1845.43 101.24
  Q 1844.03 101.78 1844.30 103.25
  C 1846.66 116.07 1869.77 114.08 1867.35 101.24
  C 1866.21 95.22 1860.02 93.41 1855.20 92.01
  A 1.22 1.21 30.2 0 1 1854.66 89.99
  C 1856.04 88.58 1858.23 88.66 1859.05 90.67
  Q 1859.25 91.15 1859.77 91.20
  Q 1863.30 91.52 1866.48 90.04
  A 0.84 0.83 -14.2 0 0 1866.96 89.24
  C 1866.36 78.93 1846.37 78.38 1845.91 91.01
  C 1845.65 98.30 1852.00 98.89 1857.21 100.96
  A 1.51 1.51 0.0 0 1 1857.48 103.64
  Q 1856.44 104.30 1855.19 103.98
  Q 1854.71 103.85 1854.39 103.46
  Z
  M 1862.54 180.55
  A 0.29 0.29 0.0 0 1 1862.21 180.98
  L 1815.60 168.13
  Q 1815.04 167.97 1815.04 168.56
  L 1815.07 184.47
  Q 1815.07 184.96 1815.41 185.32
  C 1845.29 216.50 1897.43 201.90 1930.03 184.23
  A 1.13 1.13 0.0 0 0 1930.62 183.24
  L 1930.63 120.73
  A 0.91 0.91 0.0 0 0 1929.70 119.82
  Q 1912.82 120.09 1898.39 111.45
  Q 1897.90 111.16 1897.51 111.57
  C 1881.79 127.86 1856.47 102.64 1876.32 86.82
  Q 1876.91 86.35 1876.99 85.90
  Q 1877.09 85.31 1876.72 84.66
  Q 1876.43 84.15 1876.02 84.56
  L 1865.61 94.81
  A 0.56 0.56 0.0 0 0 1865.60 95.60
  C 1872.26 102.44 1867.66 111.24 1859.24 112.97
  Q 1858.36 113.15 1859.14 113.60
  L 1888.35 130.41
  A 0.37 0.36 52.8 0 1 1888.26 131.08
  L 1866.47 136.74
  A 1.02 1.01 -47.2 0 0 1866.54 138.72
  C 1867.74 138.93 1870.14 139.16 1870.77 140.37
  C 1872.00 142.75 1870.07 149.06 1869.29 150.98
  A 0.93 0.92 10.6 0 1 1868.45 151.55
  L 1864.48 151.63
  A 0.68 0.67 -83.2 0 0 1863.84 152.14
  L 1862.11 158.61
  A 0.80 0.79 0.5 0 1 1861.52 159.18
  C 1859.16 159.69 1850.37 160.17 1849.86 156.75
  Q 1849.66 155.38 1849.79 150.87
  Q 1849.81 150.30 1849.24 150.22
  L 1845.43 149.70
  Q 1844.61 149.59 1845.03 150.30
  L 1862.54 180.55
  Z
  M 1900.8864 99.0214
  A 15.28 15.03 -4.8 0 0 1884.4023 85.3227
  A 15.28 15.03 -4.8 0 0 1870.4336 101.5786
  A 15.28 15.03 -4.8 0 0 1886.9177 115.2773
  A 15.28 15.03 -4.8 0 0 1900.8864 99.0214
  Z
  M 1857.45 91.59
  Q 1858.36 91.65 1858.08 90.78
  Q 1857.73 89.75 1856.36 89.90
  A 0.62 0.62 0.0 0 0 1856.01 90.98
  Q 1856.62 91.53 1857.45 91.59
  Z
  M 1855.34 101.32
  Q 1855.16 101.22 1854.94 101.20
  Q 1854.32 101.13 1854.45 101.74
  Q 1854.73 102.96 1855.93 103.13
  A 0.70 0.69 14.7 0 0 1856.68 102.70
  Q 1857.04 101.77 1855.73 101.47
  Q 1855.60 101.44 1855.34 101.32
  Z
  M 1728.84 133.17
  Q 1732.01 130.93 1735.78 130.12
  C 1748.05 127.50 1744.60 112.09 1734.59 108.91
  Q 1723.45 105.38 1717.34 116.55
  A 1.06 1.06 0.0 0 0 1717.34 117.57
  C 1718.70 120.01 1723.36 120.74 1725.67 120.84
  A 0.76 0.75 -77.9 0 0 1726.40 120.36
  Q 1727.76 116.82 1731.14 118.49
  C 1733.51 119.68 1732.62 121.64 1730.44 122.25
  C 1722.57 124.46 1716.02 127.68 1714.85 136.54
  Q 1714.58 138.59 1714.27 140.27
  A 1.55 1.54 -81.8 0 0 1715.62 142.08
  L 1739.36 144.77
  A 0.88 0.88 0.0 0 0 1740.26 144.25
  C 1741.26 141.97 1742.09 134.90 1738.76 134.72
  Q 1732.99 134.42 1729.01 133.87
  Q 1728.03 133.74 1728.84 133.17
  Z
  M 1863.36 150.48
  L 1867.86 150.48
  A 0.80 0.80 0.0 0 0 1868.65 149.82
  L 1870.20 141.60
  A 0.81 0.80 12.1 0 0 1869.59 140.67
  L 1865.01 139.54
  Q 1864.59 139.44 1864.64 139.01
  L 1865.97 125.27
  A 0.91 0.65 20.1 0 0 1865.46 124.52
  Q 1861.59 122.49 1857.58 123.04
  Q 1854.80 123.42 1851.51 126.09
  Q 1845.90 130.64 1842.29 134.58
  Q 1837.49 139.82 1839.82 147.35
  Q 1839.98 147.89 1840.55 147.95
  L 1850.48 149.07
  Q 1851.06 149.14 1851.06 149.73
  L 1851.02 156.49
  A 0.84 0.83 10.2 0 0 1851.58 157.29
  Q 1855.95 158.86 1860.56 158.23
  Q 1861.05 158.17 1861.17 157.68
  L 1862.80 150.91
  Q 1862.91 150.48 1863.36 150.48
  Z
  M 1815.03 210.78
  Q 1815.03 211.63 1814.44 211.03
  L 1780.62 176.84
  Q 1780.19 176.40 1779.88 176.94
  L 1765.55 201.70
  Q 1765.33 202.09 1765.45 202.52
  Q 1770.76 221.15 1780.77 234.99
  C 1816.17 283.95 1885.88 266.20 1929.92 242.79
  A 1.13 1.12 -14.3 0 0 1930.52 241.80
  L 1930.57 186.20
  A 0.62 0.62 0.0 0 0 1929.66 185.66
  C 1896.32 203.48 1847.15 216.92 1815.49 187.29
  Q 1815.02 186.85 1815.02 187.49
  L 1815.03 210.78
  Z"
/>
<path fill="#d6a163" d="
  M 1749.23 3.73
  L 1749.22 33.96
  Q 1749.22 34.42 1748.76 34.48
  C 1728.33 37.26 1722.44 17.03 1722.41 1.34
  A 0.81 0.81 0.0 0 1 1723.22 0.53
  L 1804.56 0.56
  A 0.53 0.53 0.0 0 1 1805.02 1.36
  L 1784.21 37.49
  Q 1783.89 38.04 1783.44 37.59
  L 1749.78 3.50
  Q 1749.23 2.95 1749.23 3.73
  Z"
/>
<path fill="#f0e1c1" d="
  M 1675.67 83.86
  L 1712.32 104.98
  Q 1712.88 105.30 1712.42 105.75
  L 1685.62 132.12
  Q 1685.22 132.50 1684.69 132.34
  Q 1636.49 117.48 1618.17 70.61
  Q 1617.85 69.80 1617.03 70.07
  C 1573.49 84.60 1520.93 79.87 1500.35 31.93
  Q 1499.76 30.55 1497.50 30.72
  Q 1487.40 31.50 1478.04 28.73
  C 1464.48 24.71 1455.85 15.92 1455.59 1.48
  Q 1455.58 0.56 1456.50 0.56
  L 1539.27 0.51
  A 1.08 1.06 85.2 0 1 1540.32 1.41
  C 1544.36 25.87 1565.15 26.46 1584.22 18.36
  Q 1584.75 18.13 1584.95 18.67
  C 1599.16 56.88 1649.15 55.18 1680.75 47.38
  A 0.54 0.53 74.6 0 1 1681.39 47.75
  Q 1686.13 63.78 1695.90 77.32
  Q 1696.34 77.94 1695.61 78.13
  L 1675.75 83.29
  A 0.31 0.31 0.0 0 0 1675.67 83.86
  Z"
/>
<path fill="#e2c99a" d="
  M 1701.65 33.94
  L 1721.96 69.08
  A 1.69 1.69 0.0 0 1 1720.93 71.56
  L 1698.23 77.45
  A 1.06 1.05 -25.1 0 1 1697.11 77.05
  Q 1687.02 63.00 1682.16 46.38
  A 0.59 0.59 0.0 0 0 1681.44 45.98
  Q 1652.73 53.63 1624.34 48.65
  Q 1596.03 43.69 1585.38 17.22
  Q 1585.17 16.69 1584.65 16.93
  C 1567.30 24.82 1544.76 25.61 1541.62 1.24
  A 0.62 0.62 0.0 0 1 1542.24 0.54
  L 1720.47 0.50
  A 0.77 0.76 -0.8 0 1 1721.24 1.24
  C 1721.66 17.02 1727.83 38.51 1748.48 35.38
  A 0.61 0.61 0.0 0 1 1749.18 35.98
  L 1749.21 45.72
  Q 1749.21 46.43 1748.53 46.24
  L 1702.04 33.42
  Q 1701.21 33.19 1701.65 33.94
  Z"
/>
<path fill="#d6a163" d="
  M 1931.00 0.90
  L 1931.00 118.61
  Q 1914.49 119.41 1899.58 110.82
  Q 1898.61 110.26 1899.24 109.33
  C 1908.94 95.08 1894.34 80.15 1879.25 85.20
  A 1.44 1.44 0.0 0 1 1877.78 82.80
  L 1886.02 74.78
  A 0.36 0.36 0.0 0 0 1885.76 74.16
  L 1875.15 74.25
  A 0.74 0.73 -6.4 0 1 1874.43 73.68
  C 1871.73 61.96 1871.79 51.02 1871.91 39.15
  Q 1871.92 38.31 1871.43 38.99
  C 1866.20 46.31 1858.77 52.50 1849.45 52.90
  A 0.53 0.52 6.4 0 1 1848.92 52.24
  L 1855.74 27.46
  Q 1856.04 26.38 1855.07 26.94
  L 1818.68 47.96
  Q 1818.21 48.23 1818.07 47.71
  L 1806.05 1.45
  A 0.75 0.75 0.0 0 1 1806.78 0.51
  Q 1867.79 0.74 1929.00 0.53
  Q 1930.10 0.53 1931.00 0.90
  Z"
/>
<path fill="#f8c059" d="
  M 1817.54 48.75
  Q 1817.71 49.41 1818.29 49.07
  L 1854.18 28.30
  Q 1854.82 27.93 1854.63 28.65
  L 1842.00 74.29
  A 0.57 0.56 -82.2 0 0 1842.54 75.01
  L 1884.22 74.96
  A 0.16 0.16 0.0 0 1 1884.34 75.23
  L 1865.13 94.23
  Q 1864.72 94.64 1864.21 94.38
  L 1861.31 92.90
  A 0.28 0.28 0.0 0 1 1861.42 92.37
  C 1864.64 92.14 1869.63 91.64 1867.62 86.72
  C 1863.27 76.14 1845.46 78.83 1844.53 90.74
  C 1844.21 94.74 1845.76 96.59 1848.72 99.08
  A 0.28 0.28 0.0 0 1 1848.49 99.57
  Q 1844.85 98.92 1842.86 101.86
  Q 1842.64 102.19 1842.58 101.79
  Q 1841.29 93.94 1838.67 84.52
  Q 1837.91 81.79 1836.69 79.86
  A 1.77 1.72 82.9 0 0 1835.78 79.13
  Q 1829.61 76.96 1823.27 78.68
  A 1.43 1.42 -83.1 0 0 1822.41 79.36
  Q 1815.63 91.99 1812.37 105.96
  A 1.87 1.87 0.0 0 0 1813.93 108.24
  L 1820.86 109.22
  A 1.02 1.01 20.8 0 0 1821.83 108.79
  L 1825.14 103.83
  A 0.75 0.75 0.0 0 1 1825.86 103.50
  L 1829.66 103.98
  A 0.92 0.91 -3.8 0 1 1830.42 104.64
  L 1831.79 109.58
  A 1.61 1.61 0.0 0 0 1833.30 110.76
  L 1841.79 111.02
  A 1.84 1.84 0.0 0 0 1843.67 108.95
  L 1843.16 105.00
  A 0.12 0.12 0.0 0 1 1843.39 104.93
  Q 1847.03 113.18 1856.36 113.19
  Q 1856.86 113.19 1857.30 113.45
  L 1886.28 130.18
  A 0.33 0.33 0.0 0 1 1886.20 130.78
  L 1866.78 135.79
  Q 1866.23 135.93 1866.28 135.36
  C 1866.61 132.02 1867.46 127.54 1866.81 124.26
  A 1.15 1.14 9.0 0 0 1866.22 123.46
  Q 1861.78 121.14 1857.24 121.81
  C 1852.17 122.57 1847.44 127.99 1843.49 131.35
  Q 1836.98 136.90 1838.12 146.22
  C 1838.54 149.68 1840.63 149.02 1843.20 149.50
  Q 1843.71 149.60 1843.98 150.05
  L 1860.85 179.26
  A 0.32 0.32 0.0 0 1 1860.49 179.72
  L 1814.93 167.09
  A 0.56 0.56 0.0 0 0 1814.22 167.63
  L 1814.27 208.82
  A 0.40 0.40 0.0 0 1 1813.58 209.10
  L 1780.54 175.46
  A 0.59 0.58 -52.5 0 0 1779.61 175.59
  L 1759.59 210.47
  Q 1758.64 212.13 1758.16 210.28
  L 1746.59 165.74
  A 0.68 0.67 -22.2 0 0 1745.60 165.33
  L 1710.27 185.77
  A 0.45 0.45 0.0 0 1 1709.61 185.26
  L 1720.85 144.51
  Q 1721.00 143.97 1721.56 144.04
  Q 1729.71 145.05 1737.74 145.72
  Q 1741.57 146.03 1742.13 143.05
  C 1742.74 139.82 1743.06 133.03 1737.76 133.48
  Q 1736.06 133.62 1732.65 132.90
  Q 1731.73 132.70 1732.61 132.39
  C 1734.53 131.70 1736.86 131.48 1738.42 130.78
  Q 1743.52 128.51 1744.56 123.51
  C 1746.84 112.58 1735.51 104.22 1725.49 107.49
  Q 1718.28 109.84 1716.22 116.50
  C 1715.15 119.98 1720.87 121.33 1723.51 121.85
  Q 1727.36 122.61 1728.36 119.40
  Q 1728.56 118.76 1729.18 119.02
  L 1731.02 119.76
  A 0.57 0.57 0.0 0 1 1730.97 120.83
  C 1721.40 123.63 1713.63 127.12 1713.39 138.61
  A 0.73 0.72 0.4 0 1 1712.66 139.32
  L 1680.97 139.30
  A 0.59 0.59 0.0 0 1 1680.55 138.29
  L 1713.60 105.78
  A 0.68 0.68 0.0 0 0 1713.46 104.70
  L 1677.94 84.23
  A 0.38 0.37 52.6 0 1 1678.03 83.54
  L 1720.48 72.46
  A 0.33 0.33 0.0 0 1 1720.86 72.92
  Q 1715.69 84.51 1713.47 93.94
  C 1712.63 97.50 1718.25 97.42 1720.75 97.70
  C 1723.48 98.01 1724.88 94.24 1726.20 92.42
  A 0.69 0.67 -67.6 0 1 1726.83 92.15
  L 1730.71 92.60
  A 0.90 0.90 0.0 0 1 1731.47 93.29
  C 1731.84 94.97 1732.22 99.27 1734.99 99.45
  Q 1738.50 99.67 1742.00 99.69
  Q 1743.41 99.70 1744.26 98.71
  Q 1744.50 98.42 1744.65 98.76
  L 1745.14 99.92
  Q 1745.32 100.33 1745.75 100.43
  Q 1749.81 101.37 1753.96 101.26
  C 1756.02 101.20 1756.77 100.31 1756.98 98.38
  Q 1757.05 97.70 1757.64 98.04
  C 1759.71 99.20 1763.00 102.58 1765.18 102.51
  C 1767.26 102.45 1768.93 99.91 1770.45 98.26
  C 1773.41 95.06 1770.51 92.36 1768.26 90.09
  Q 1767.93 89.75 1768.17 89.34
  Q 1773.13 81.27 1768.76 75.04
  C 1764.35 68.75 1755.25 67.31 1748.09 69.42
  A 2.51 2.50 86.2 0 0 1746.32 71.45
  Q 1744.56 82.94 1744.70 94.56
  Q 1744.70 94.63 1744.63 94.63
  L 1744.37 94.63
  Q 1744.27 94.63 1744.26 94.53
  Q 1742.41 82.04 1739.02 70.98
  C 1737.37 65.61 1728.82 66.12 1724.49 67.20
  A 0.42 0.33 -67.4 0 0 1724.29 67.31
  L 1723.27 68.34
  Q 1722.77 68.84 1722.41 68.22
  L 1703.18 34.99
  A 0.28 0.27 82.6 0 1 1703.49 34.58
  L 1749.01 47.16
  Q 1749.87 47.39 1749.87 46.50
  L 1749.77 5.30
  Q 1749.77 4.43 1750.38 5.05
  L 1783.63 38.91
  Q 1784.04 39.34 1784.34 38.82
  L 1804.90 3.16
  Q 1805.46 2.18 1805.74 3.27
  L 1817.54 48.75
  Z
  M 1799.24 97.75
  L 1799.51 105.36
  A 1.45 1.44 -85.2 0 0 1800.66 106.73
  Q 1804.36 107.48 1808.45 107.51
  C 1810.55 107.53 1811.04 106.79 1811.39 104.87
  Q 1813.98 90.56 1814.32 78.72
  C 1814.37 77.02 1813.46 76.40 1811.99 76.03
  C 1807.71 74.95 1802.60 73.86 1799.42 77.69
  Q 1797.84 79.60 1794.15 83.64
  Q 1793.76 84.07 1793.50 83.56
  C 1791.96 80.57 1789.63 74.84 1786.45 73.38
  Q 1781.53 71.13 1776.43 72.36
  Q 1775.22 72.65 1774.98 73.87
  Q 1772.40 87.06 1772.01 100.75
  Q 1771.95 103.13 1774.52 103.64
  Q 1779.26 104.59 1782.41 104.60
  A 0.90 0.89 -82.3 0 0 1783.27 103.94
  L 1785.45 96.26
  A 0.23 0.22 32.7 0 1 1785.84 96.18
  L 1790.19 101.22
  A 2.28 2.28 0.0 0 0 1793.27 101.56
  L 1798.75 97.51
  A 0.31 0.31 0.0 0 1 1799.24 97.75
  Z
  M 1785.07 141.05
  C 1789.07 131.86 1789.19 116.93 1777.86 112.88
  C 1771.04 110.45 1762.43 111.63 1758.61 118.55
  C 1753.86 127.16 1752.46 142.69 1763.10 147.90
  C 1771.32 151.93 1781.15 150.07 1785.07 141.05
  Z
  M 1815.71 142.69
  A 0.38 0.38 0.0 0 1 1815.63 141.94
  C 1818.46 141.26 1821.52 140.71 1823.75 139.01
  C 1828.99 135.02 1828.98 127.28 1825.32 122.35
  C 1818.71 113.46 1804.13 114.59 1799.72 125.03
  C 1797.56 130.12 1805.29 131.48 1808.25 131.49
  Q 1810.73 131.50 1811.21 129.18
  Q 1811.37 128.40 1812.13 128.61
  L 1813.88 129.10
  A 0.72 0.72 0.0 0 1 1813.86 130.49
  C 1802.84 133.22 1794.89 139.03 1796.58 151.64
  A 0.79 0.78 -89.0 0 0 1797.22 152.31
  Q 1810.04 154.68 1823.04 155.35
  A 1.24 1.22 21.3 0 0 1824.04 154.92
  C 1826.12 152.44 1826.44 143.31 1822.00 142.99
  Q 1818.68 142.74 1815.71 142.69
  Z"
/>
<path fill="#e2c99a" d="
  M 1872.70 74.20
  L 1843.31 74.26
  A 0.37 0.37 0.0 0 1 1842.95 73.79
  L 1848.22 54.76
  Q 1848.37 54.22 1848.93 54.18
  C 1859.02 53.51 1863.42 49.04 1870.24 42.51
  Q 1870.77 42.01 1870.73 42.74
  Q 1869.92 58.33 1873.19 73.59
  Q 1873.32 74.20 1872.70 74.20
  Z"
/>
<path fill="#d3695b" d="
  M 1731.42 91.38
  L 1725.98 90.99
  A 0.73 0.73 0.0 0 0 1725.34 91.31
  L 1722.22 96.10
  Q 1721.91 96.58 1721.33 96.51
  L 1716.08 95.86
  A 1.59 1.58 -79.5 0 1 1714.74 93.90
  Q 1717.81 81.83 1723.45 70.48
  C 1725.31 66.74 1731.17 67.73 1734.50 68.36
  Q 1736.85 68.80 1737.60 71.11
  Q 1741.81 84.04 1743.34 97.05
  A 1.35 1.34 -2.2 0 1 1741.94 98.55
  L 1735.28 98.23
  A 1.66 1.65 83.3 0 1 1733.78 97.04
  L 1732.38 92.15
  A 1.08 1.07 -6.2 0 0 1731.42 91.38
  Z
  M 1733.00 83.99
  C 1732.68 82.23 1731.96 79.24 1729.97 78.52
  A 0.80 0.80 0.0 0 0 1729.03 78.85
  L 1726.65 82.61
  A 1.66 1.66 0.0 0 0 1727.42 85.03
  Q 1730.01 86.08 1732.47 84.99
  A 0.93 0.92 73.3 0 0 1733.00 83.99
  Z"
/>
<path fill="#d3695b" d="
  M 1766.35 89.89
  C 1767.64 91.18 1768.71 92.59 1769.93 93.93
  Q 1771.20 95.33 1769.96 96.94
  Q 1768.03 99.44 1765.85 101.10
  A 1.38 1.37 -45.6 0 1 1764.22 101.12
  L 1758.19 96.83
  A 1.21 1.20 -32.6 0 0 1757.26 96.63
  Q 1755.25 97.02 1755.58 99.35
  A 0.69 0.68 -2.4 0 1 1754.86 100.13
  L 1746.57 99.55
  A 0.75 0.74 1.3 0 1 1745.88 98.83
  Q 1745.56 85.06 1747.61 71.45
  A 0.94 0.93 -5.0 0 1 1748.25 70.69
  C 1754.63 68.61 1765.64 69.99 1768.42 77.19
  Q 1771.09 84.08 1766.34 89.16
  Q 1765.99 89.53 1766.35 89.89
  Z
  M 1754.92 79.52
  L 1754.86 83.32
  A 1.41 1.41 0.0 0 0 1756.24 84.76
  L 1757.57 84.78
  A 3.60 3.22 1.0 0 0 1761.23 81.63
  L 1761.23 81.45
  A 3.60 3.22 1.0 0 0 1757.69 78.16
  L 1756.36 78.14
  A 1.41 1.41 0.0 0 0 1754.92 79.52
  Z"
/>
<path fill="#715a46" d="
  M 1798.75 97.51
  L 1793.27 101.56
  A 2.28 2.28 0.0 0 1 1790.19 101.22
  L 1785.84 96.18
  A 0.23 0.22 32.7 0 0 1785.45 96.26
  L 1783.27 103.94
  A 0.90 0.89 -82.3 0 1 1782.41 104.60
  Q 1779.26 104.59 1774.52 103.64
  Q 1771.95 103.13 1772.01 100.75
  Q 1772.40 87.06 1774.98 73.87
  Q 1775.22 72.65 1776.43 72.36
  Q 1781.53 71.13 1786.45 73.38
  C 1789.63 74.84 1791.96 80.57 1793.50 83.56
  Q 1793.76 84.07 1794.15 83.64
  Q 1797.84 79.60 1799.42 77.69
  C 1802.60 73.86 1807.71 74.95 1811.99 76.03
  C 1813.46 76.40 1814.37 77.02 1814.32 78.72
  Q 1813.98 90.56 1811.39 104.87
  C 1811.04 106.79 1810.55 107.53 1808.45 107.51
  Q 1804.36 107.48 1800.66 106.73
  A 1.45 1.44 -85.2 0 1 1799.51 105.36
  L 1799.24 97.75
  A 0.31 0.31 0.0 0 0 1798.75 97.51
  Z
  M 1785.21 93.23
  L 1790.68 100.02
  Q 1791.72 101.32 1793.03 100.29
  L 1800.10 94.72
  A 0.30 0.29 70.3 0 1 1800.58 94.95
  L 1800.60 104.95
  A 0.74 0.73 2.6 0 0 1801.27 105.68
  L 1809.07 106.39
  A 0.81 0.81 0.0 0 0 1809.94 105.75
  Q 1812.76 92.26 1813.09 78.49
  A 1.14 1.14 0.0 0 0 1812.28 77.37
  C 1808.45 76.24 1803.24 75.06 1800.19 78.72
  Q 1798.46 80.79 1793.90 85.79
  Q 1793.52 86.21 1793.25 85.71
  C 1790.83 81.22 1788.13 74.99 1785.57 74.28
  Q 1781.83 73.24 1777.77 73.27
  A 1.79 1.78 4.6 0 0 1776.02 74.75
  Q 1773.77 87.59 1773.21 100.61
  A 1.92 1.92 0.0 0 0 1774.87 102.60
  L 1781.22 103.45
  A 1.19 1.19 0.0 0 0 1782.53 102.55
  L 1784.73 93.33
  Q 1784.86 92.79 1785.21 93.23
  Z"
/>
<path fill="#d3695b" d="
  M 1784.73 93.33
  L 1782.53 102.55
  A 1.19 1.19 0.0 0 1 1781.22 103.45
  L 1774.87 102.60
  A 1.92 1.92 0.0 0 1 1773.21 100.61
  Q 1773.77 87.59 1776.02 74.75
  A 1.79 1.78 4.6 0 1 1777.77 73.27
  Q 1781.83 73.24 1785.57 74.28
  C 1788.13 74.99 1790.83 81.22 1793.25 85.71
  Q 1793.52 86.21 1793.90 85.79
  Q 1798.46 80.79 1800.19 78.72
  C 1803.24 75.06 1808.45 76.24 1812.28 77.37
  A 1.14 1.14 0.0 0 1 1813.09 78.49
  Q 1812.76 92.26 1809.94 105.75
  A 0.81 0.81 0.0 0 1 1809.07 106.39
  L 1801.27 105.68
  A 0.74 0.73 2.6 0 1 1800.60 104.95
  L 1800.58 94.95
  A 0.30 0.29 70.3 0 0 1800.10 94.72
  L 1793.03 100.29
  Q 1791.72 101.32 1790.68 100.02
  L 1785.21 93.23
  Q 1784.86 92.79 1784.73 93.33
  Z"
/>
<path fill="#715a46" d="
  M 1754.92 79.52
  A 1.41 1.41 0.0 0 1 1756.36 78.14
  L 1757.69 78.16
  A 3.60 3.22 1.0 0 1 1761.23 81.45
  L 1761.23 81.63
  A 3.60 3.22 1.0 0 1 1757.57 84.78
  L 1756.24 84.76
  A 1.41 1.41 0.0 0 1 1754.86 83.32
  L 1754.92 79.52
  Z
  M 1755.98 80.03
  L 1755.96 82.93
  A 0.73 0.73 0.0 0 0 1756.68 83.66
  L 1757.04 83.66
  A 2.91 2.06 0.4 0 0 1759.97 81.62
  L 1759.97 81.38
  A 2.91 2.06 0.4 0 0 1757.08 79.30
  L 1756.72 79.30
  A 0.73 0.73 0.0 0 0 1755.98 80.03
  Z"
/>
<path fill="#715a46" d="
  M 1729.97 78.52
  C 1731.96 79.24 1732.68 82.23 1733.00 83.99
  A 0.93 0.92 73.3 0 1 1732.47 84.99
  Q 1730.01 86.08 1727.42 85.03
  A 1.66 1.66 0.0 0 1 1726.65 82.61
  L 1729.03 78.85
  A 0.80 0.80 0.0 0 1 1729.97 78.52
  Z
  M 1727.84 83.16
  A 0.66 0.66 0.0 0 0 1728.36 84.15
  L 1731.16 84.34
  A 0.66 0.66 0.0 0 0 1731.81 83.42
  L 1730.60 80.55
  A 0.66 0.66 0.0 0 0 1729.42 80.47
  L 1727.84 83.16
  Z"
/>
<path fill="#f8c059" d="
  M 1755.98 80.03
  A 0.73 0.73 0.0 0 1 1756.72 79.30
  L 1757.08 79.30
  A 2.91 2.06 0.4 0 1 1759.97 81.38
  L 1759.97 81.62
  A 2.91 2.06 0.4 0 1 1757.04 83.66
  L 1756.68 83.66
  A 0.73 0.73 0.0 0 1 1755.96 82.93
  L 1755.98 80.03
  Z"
/>
<path fill="#d3695b" d="
  M 1824.05 103.10
  L 1821.24 107.52
  A 1.01 1.01 0.0 0 1 1820.25 107.97
  L 1814.86 107.18
  A 1.49 1.49 0.0 0 1 1813.64 105.32
  Q 1817.03 92.68 1822.68 81.47
  C 1824.33 78.21 1830.78 79.08 1833.68 79.79
  C 1835.85 80.33 1836.64 81.85 1837.21 83.81
  Q 1840.75 96.07 1842.37 108.66
  A 0.94 0.94 0.0 0 1 1841.49 109.72
  Q 1838.98 109.87 1836.21 109.94
  Q 1832.29 110.02 1832.13 105.50
  C 1832.02 102.51 1827.06 101.90 1824.87 102.50
  Q 1824.35 102.64 1824.05 103.10
  Z
  M 1830.85 96.64
  A 1.83 1.83 0.0 0 0 1831.90 94.19
  L 1830.61 91.20
  A 1.83 1.83 0.0 0 0 1827.33 91.03
  L 1825.69 93.94
  A 1.83 1.83 0.0 0 0 1826.93 96.63
  L 1828.97 97.04
  A 1.83 1.83 0.0 0 0 1829.95 96.97
  L 1830.85 96.64
  Z"
/>
<path fill="#f8c059" d="
  M 1727.84 83.16
  L 1729.42 80.47
  A 0.66 0.66 0.0 0 1 1730.60 80.55
  L 1731.81 83.42
  A 0.66 0.66 0.0 0 1 1731.16 84.34
  L 1728.36 84.15
  A 0.66 0.66 0.0 0 1 1727.84 83.16
  Z"
/>
<path fill="#d3695b" d="
  M 1855.19 103.98
  Q 1856.44 104.30 1857.48 103.64
  A 1.51 1.51 0.0 0 0 1857.21 100.96
  C 1852.00 98.89 1845.65 98.30 1845.91 91.01
  C 1846.37 78.38 1866.36 78.93 1866.96 89.24
  A 0.84 0.83 -14.2 0 1 1866.48 90.04
  Q 1863.30 91.52 1859.77 91.20
  Q 1859.25 91.15 1859.05 90.67
  C 1858.23 88.66 1856.04 88.58 1854.66 89.99
  A 1.22 1.21 30.2 0 0 1855.20 92.01
  C 1860.02 93.41 1866.21 95.22 1867.35 101.24
  C 1869.77 114.08 1846.66 116.07 1844.30 103.25
  Q 1844.03 101.78 1845.43 101.24
  Q 1850.99 99.13 1854.39 103.46
  Q 1854.71 103.85 1855.19 103.98
  Z"
/>
<path fill="#e2c99a" d="
  M 1862.54 180.55
  L 1845.03 150.30
  Q 1844.61 149.59 1845.43 149.70
  L 1849.24 150.22
  Q 1849.81 150.30 1849.79 150.87
  Q 1849.66 155.38 1849.86 156.75
  C 1850.37 160.17 1859.16 159.69 1861.52 159.18
  A 0.80 0.79 0.5 0 0 1862.11 158.61
  L 1863.84 152.14
  A 0.68 0.67 -83.2 0 1 1864.48 151.63
  L 1868.45 151.55
  A 0.93 0.92 10.6 0 0 1869.29 150.98
  C 1870.07 149.06 1872.00 142.75 1870.77 140.37
  C 1870.14 139.16 1867.74 138.93 1866.54 138.72
  A 1.02 1.01 -47.2 0 1 1866.47 136.74
  L 1888.26 131.08
  A 0.37 0.36 52.8 0 0 1888.35 130.41
  L 1859.14 113.60
  Q 1858.36 113.15 1859.24 112.97
  C 1867.66 111.24 1872.26 102.44 1865.60 95.60
  A 0.56 0.56 0.0 0 1 1865.61 94.81
  L 1876.02 84.56
  Q 1876.43 84.15 1876.72 84.66
  Q 1877.09 85.31 1876.99 85.90
  Q 1876.91 86.35 1876.32 86.82
  C 1856.47 102.64 1881.79 127.86 1897.51 111.57
  Q 1897.90 111.16 1898.39 111.45
  Q 1912.82 120.09 1929.70 119.82
  A 0.91 0.91 0.0 0 1 1930.63 120.73
  L 1930.62 183.24
  A 1.13 1.13 0.0 0 1 1930.03 184.23
  C 1897.43 201.90 1845.29 216.50 1815.41 185.32
  Q 1815.07 184.96 1815.07 184.47
  L 1815.04 168.56
  Q 1815.04 167.97 1815.60 168.13
  L 1862.21 180.98
  A 0.29 0.29 0.0 0 0 1862.54 180.55
  Z"
/>
<path fill="#d3695b" d="
  M 1900.8864 99.0214
  A 15.28 15.03 -4.8 0 1 1886.9177 115.2773
  A 15.28 15.03 -4.8 0 1 1870.4336 101.5786
  A 15.28 15.03 -4.8 0 1 1884.4023 85.3227
  A 15.28 15.03 -4.8 0 1 1900.8864 99.0214
  Z
  M 1890.26 100.32
  A 4.64 4.64 0.0 0 0 1885.62 95.68
  A 4.64 4.64 0.0 0 0 1880.98 100.32
  A 4.64 4.64 0.0 0 0 1885.62 104.96
  A 4.64 4.64 0.0 0 0 1890.26 100.32
  Z"
/>
<path fill="#715a46" d="
  M 1830.85 96.64
  L 1829.95 96.97
  A 1.83 1.83 0.0 0 1 1828.97 97.04
  L 1826.93 96.63
  A 1.83 1.83 0.0 0 1 1825.69 93.94
  L 1827.33 91.03
  A 1.83 1.83 0.0 0 1 1830.61 91.20
  L 1831.90 94.19
  A 1.83 1.83 0.0 0 1 1830.85 96.64
  Z
  M 1830.12 95.70
  A 0.65 0.65 0.0 0 0 1830.77 94.79
  L 1829.51 91.93
  A 0.65 0.65 0.0 0 0 1828.35 91.86
  L 1826.85 94.47
  A 0.65 0.65 0.0 0 0 1827.35 95.44
  L 1830.12 95.70
  Z"
/>
<path fill="#d6a163" d="
  M 1857.45 91.59
  Q 1856.62 91.53 1856.01 90.98
  A 0.62 0.62 0.0 0 1 1856.36 89.90
  Q 1857.73 89.75 1858.08 90.78
  Q 1858.36 91.65 1857.45 91.59
  Z"
/>
<path fill="#f8c059" d="
  M 1830.12 95.70
  L 1827.35 95.44
  A 0.65 0.65 0.0 0 1 1826.85 94.47
  L 1828.35 91.86
  A 0.65 0.65 0.0 0 1 1829.51 91.93
  L 1830.77 94.79
  A 0.65 0.65 0.0 0 1 1830.12 95.70
  Z"
/>
<path fill="#715a46" d="
  M 1890.26 100.32
  A 4.64 4.64 0.0 0 1 1885.62 104.96
  A 4.64 4.64 0.0 0 1 1880.98 100.32
  A 4.64 4.64 0.0 0 1 1885.62 95.68
  A 4.64 4.64 0.0 0 1 1890.26 100.32
  Z
  M 1884.93 97.44
  L 1888.41 101.67
  A 0.15 0.15 0.0 0 0 1888.62 101.69
  L 1888.65 101.67
  A 2.74 1.88 50.6 0 0 1888.36 98.36
  L 1888.17 98.13
  A 2.74 1.88 50.6 0 0 1884.98 97.21
  L 1884.96 97.23
  A 0.15 0.15 0.0 0 0 1884.93 97.44
  Z
  M 1887.78 102.71
  L 1883.69 97.70
  A 0.16 0.16 0.0 0 0 1883.47 97.68
  L 1883.42 97.72
  A 3.30 3.30 0.0 0 0 1882.95 102.36
  L 1883.06 102.50
  A 3.30 3.30 0.0 0 0 1887.71 102.97
  L 1887.75 102.94
  A 0.16 0.16 0.0 0 0 1887.78 102.71
  Z"
/>
<path fill="#d6a163" d="
  M 1884.93 97.44
  A 0.15 0.15 0.0 0 1 1884.96 97.23
  L 1884.98 97.21
  A 2.74 1.88 50.6 0 1 1888.17 98.13
  L 1888.36 98.36
  A 2.74 1.88 50.6 0 1 1888.65 101.67
  L 1888.62 101.69
  A 0.15 0.15 0.0 0 1 1888.41 101.67
  L 1884.93 97.44
  Z"
/>
<path fill="#e2c99a" d="
  M 1887.78 102.71
  A 0.16 0.16 0.0 0 1 1887.75 102.94
  L 1887.71 102.97
  A 3.30 3.30 0.0 0 1 1883.06 102.50
  L 1882.95 102.36
  A 3.30 3.30 0.0 0 1 1883.42 97.72
  L 1883.47 97.68
  A 0.16 0.16 0.0 0 1 1883.69 97.70
  L 1887.78 102.71
  Z"
/>
<path fill="#d6a163" d="
  M 1855.73 101.47
  Q 1857.04 101.77 1856.68 102.70
  A 0.70 0.69 14.7 0 1 1855.93 103.13
  Q 1854.73 102.96 1854.45 101.74
  Q 1854.32 101.13 1854.94 101.20
  Q 1855.16 101.22 1855.34 101.32
  Q 1855.60 101.44 1855.73 101.47
  Z"
/>
<path fill="#d3695b" d="
  M 1729.01 133.87
  Q 1732.99 134.42 1738.76 134.72
  C 1742.09 134.90 1741.26 141.97 1740.26 144.25
  A 0.88 0.88 0.0 0 1 1739.36 144.77
  L 1715.62 142.08
  A 1.55 1.54 -81.8 0 1 1714.27 140.27
  Q 1714.58 138.59 1714.85 136.54
  C 1716.02 127.68 1722.57 124.46 1730.44 122.25
  C 1732.62 121.64 1733.51 119.68 1731.14 118.49
  Q 1727.76 116.82 1726.40 120.36
  A 0.76 0.75 -77.9 0 1 1725.67 120.84
  C 1723.36 120.74 1718.70 120.01 1717.34 117.57
  A 1.06 1.06 0.0 0 1 1717.34 116.55
  Q 1723.45 105.38 1734.59 108.91
  C 1744.60 112.09 1748.05 127.50 1735.78 130.12
  Q 1732.01 130.93 1728.84 133.17
  Q 1728.03 133.74 1729.01 133.87
  Z"
/>
<path fill="#715a46" d="
  M 1785.07 141.05
  C 1781.15 150.07 1771.32 151.93 1763.10 147.90
  C 1752.46 142.69 1753.86 127.16 1758.61 118.55
  C 1762.43 111.63 1771.04 110.45 1777.86 112.88
  C 1789.19 116.93 1789.07 131.86 1785.07 141.05
  Z
  M 1758.47 121.71
  C 1754.98 129.62 1754.77 142.66 1764.02 146.92
  C 1770.62 149.96 1779.32 149.18 1783.13 142.13
  C 1787.94 133.25 1788.69 117.69 1776.73 113.92
  Q 1763.74 109.81 1758.47 121.71
  Z"
/>
<path fill="#d3695b" d="
  M 1758.47 121.71
  Q 1763.74 109.81 1776.73 113.92
  C 1788.69 117.69 1787.94 133.25 1783.13 142.13
  C 1779.32 149.18 1770.62 149.96 1764.02 146.92
  C 1754.77 142.66 1754.98 129.62 1758.47 121.71
  Z
  M 1770.7510 136.9137
  A 6.16 5.29 95.3 0 0 1776.5874 131.2686
  A 6.16 5.29 95.3 0 0 1771.8890 124.6463
  A 6.16 5.29 95.3 0 0 1766.0526 130.2914
  A 6.16 5.29 95.3 0 0 1770.7510 136.9137
  Z"
/>
<path fill="#715a46" d="
  M 1815.71 142.69
  Q 1818.68 142.74 1822.00 142.99
  C 1826.44 143.31 1826.12 152.44 1824.04 154.92
  A 1.24 1.22 21.3 0 1 1823.04 155.35
  Q 1810.04 154.68 1797.22 152.31
  A 0.79 0.78 -89.0 0 1 1796.58 151.64
  C 1794.89 139.03 1802.84 133.22 1813.86 130.49
  A 0.72 0.72 0.0 0 0 1813.88 129.10
  L 1812.13 128.61
  Q 1811.37 128.40 1811.21 129.18
  Q 1810.73 131.50 1808.25 131.49
  C 1805.29 131.48 1797.56 130.12 1799.72 125.03
  C 1804.13 114.59 1818.71 113.46 1825.32 122.35
  C 1828.98 127.28 1828.99 135.02 1823.75 139.01
  C 1821.52 140.71 1818.46 141.26 1815.63 141.94
  A 0.38 0.38 0.0 0 0 1815.71 142.69
  Z
  M 1811.88 142.92
  Q 1814.83 140.48 1817.00 140.26
  C 1823.76 139.57 1827.74 134.38 1826.41 127.77
  C 1824.49 118.28 1812.03 114.58 1804.72 120.49
  C 1803.17 121.74 1798.30 126.69 1801.93 128.60
  Q 1805.28 130.35 1808.72 130.42
  A 1.04 1.02 -77.2 0 0 1809.67 129.81
  L 1810.37 128.25
  Q 1810.56 127.84 1810.98 127.71
  C 1812.65 127.16 1816.18 127.92 1815.48 130.40
  A 1.69 1.68 -89.4 0 1 1814.27 131.59
  C 1804.31 134.22 1796.56 139.08 1797.69 150.69
  A 0.67 0.66 -87.7 0 0 1798.23 151.28
  Q 1810.43 153.47 1822.82 154.11
  A 0.70 0.69 11.0 0 0 1823.52 153.64
  Q 1824.94 149.56 1823.63 145.44
  A 1.56 1.54 83.2 0 0 1822.28 144.36
  L 1812.06 143.50
  Q 1811.26 143.43 1811.88 142.92
  Z"
/>
<path fill="#d3695b" d="
  M 1812.06 143.50
  L 1822.28 144.36
  A 1.56 1.54 83.2 0 1 1823.63 145.44
  Q 1824.94 149.56 1823.52 153.64
  A 0.70 0.69 11.0 0 1 1822.82 154.11
  Q 1810.43 153.47 1798.23 151.28
  A 0.67 0.66 -87.7 0 1 1797.69 150.69
  C 1796.56 139.08 1804.31 134.22 1814.27 131.59
  A 1.69 1.68 -89.4 0 0 1815.48 130.40
  C 1816.18 127.92 1812.65 127.16 1810.98 127.71
  Q 1810.56 127.84 1810.37 128.25
  L 1809.67 129.81
  A 1.04 1.02 -77.2 0 1 1808.72 130.42
  Q 1805.28 130.35 1801.93 128.60
  C 1798.30 126.69 1803.17 121.74 1804.72 120.49
  C 1812.03 114.58 1824.49 118.28 1826.41 127.77
  C 1827.74 134.38 1823.76 139.57 1817.00 140.26
  Q 1814.83 140.48 1811.88 142.92
  Q 1811.26 143.43 1812.06 143.50
  Z"
/>
<path fill="#d3695b" d="
  M 1862.80 150.91
  L 1861.17 157.68
  Q 1861.05 158.17 1860.56 158.23
  Q 1855.95 158.86 1851.58 157.29
  A 0.84 0.83 10.2 0 1 1851.02 156.49
  L 1851.06 149.73
  Q 1851.06 149.14 1850.48 149.07
  L 1840.55 147.95
  Q 1839.98 147.89 1839.82 147.35
  Q 1837.49 139.82 1842.29 134.58
  Q 1845.90 130.64 1851.51 126.09
  Q 1854.80 123.42 1857.58 123.04
  Q 1861.59 122.49 1865.46 124.52
  A 0.91 0.65 20.1 0 1 1865.97 125.27
  L 1864.64 139.01
  Q 1864.59 139.44 1865.01 139.54
  L 1869.59 140.67
  A 0.81 0.80 12.1 0 1 1870.20 141.60
  L 1868.65 149.82
  A 0.80 0.80 0.0 0 1 1867.86 150.48
  L 1863.36 150.48
  Q 1862.91 150.48 1862.80 150.91
  Z
  M 1855.94 140.40
  Q 1856.73 138.40 1855.88 136.49
  A 0.69 0.68 66.1 0 0 1854.99 136.14
  Q 1852.54 137.17 1851.01 139.36
  A 0.77 0.77 0.0 0 0 1851.20 140.43
  Q 1852.11 141.09 1853.26 141.13
  A 0.83 0.01 1.5 0 1 1854.04 141.16
  Q 1855.43 141.69 1855.94 140.40
  Z"
/>
<path fill="#715a46" d="
  M 1770.7510 136.9137
  A 6.16 5.29 95.3 0 1 1766.0526 130.2914
  A 6.16 5.29 95.3 0 1 1771.8890 124.6463
  A 6.16 5.29 95.3 0 1 1776.5874 131.2686
  A 6.16 5.29 95.3 0 1 1770.7510 136.9137
  Z
  M 1770.8133 135.6358
  A 4.90 4.04 95.7 0 0 1775.3200 131.1613
  A 4.90 4.04 95.7 0 0 1771.7867 125.8842
  A 4.90 4.04 95.7 0 0 1767.2800 130.3587
  A 4.90 4.04 95.7 0 0 1770.8133 135.6358
  Z"
/>
<ellipse fill="#f8c059" cx="0.00" cy="0.00" transform="translate(1771.30,130.76) rotate(95.7)" rx="4.90" ry="4.04"/>
<path fill="#715a46" d="
  M 1855.94 140.40
  Q 1855.43 141.69 1854.04 141.16
  A 0.83 0.01 1.5 0 0 1853.26 141.13
  Q 1852.11 141.09 1851.20 140.43
  A 0.77 0.77 0.0 0 1 1851.01 139.36
  Q 1852.54 137.17 1854.99 136.14
  A 0.69 0.68 66.1 0 1 1855.88 136.49
  Q 1856.73 138.40 1855.94 140.40
  Z
  M 1853.45 139.46
  C 1854.10 139.34 1854.54 139.33 1855.02 138.89
  A 0.72 0.72 0.0 0 0 1854.12 137.77
  Q 1853.37 138.30 1852.90 139.02
  Q 1852.66 139.40 1853.10 139.47
  Q 1853.27 139.49 1853.45 139.46
  Z"
/>
<path fill="#d6a163" d="
  M 1853.45 139.46
  Q 1853.27 139.49 1853.10 139.47
  Q 1852.66 139.40 1852.90 139.02
  Q 1853.37 138.30 1854.12 137.77
  A 0.72 0.72 0.0 0 1 1855.02 138.89
  C 1854.54 139.33 1854.10 139.34 1853.45 139.46
  Z"
/>
<path fill="#f0e1c1" d="
  M 1815.03 210.78
  L 1815.02 187.49
  Q 1815.02 186.85 1815.49 187.29
  C 1847.15 216.92 1896.32 203.48 1929.66 185.66
  A 0.62 0.62 0.0 0 1 1930.57 186.20
  L 1930.52 241.80
  A 1.13 1.12 -14.3 0 1 1929.92 242.79
  C 1885.88 266.20 1816.17 283.95 1780.77 234.99
  Q 1770.76 221.15 1765.45 202.52
  Q 1765.33 202.09 1765.55 201.70
  L 1779.88 176.94
  Q 1780.19 176.40 1780.62 176.84
  L 1814.44 211.03
  Q 1815.03 211.63 1815.03 210.78
  Z"
/>
</svg>
