<?xml version="1.0" encoding="UTF-8" standalone="no"?>
<!DOCTYPE svg PUBLIC "-//W3C//DTD SVG 1.1//EN" "http://www.w3.org/Graphics/SVG/1.1/DTD/svg11.dtd">
<svg xmlns="http://www.w3.org/2000/svg" version="1.1" viewBox="0.00 0.00 1931.00 1086.00">
<g stroke-width="2.00" fill="none" stroke-linecap="butt">
<path stroke="#af9d83" vector-effect="non-scaling-stroke" d="
  M 476.21 979.27
  Q 446.36 902.96 366.94 882.38
  Q 317.26 869.51 265.50 877.36
  Q 264.94 877.44 264.92 876.87
  C 263.48 822.95 257.88 759.35 219.75 717.72
  C 163.24 656.03 63.78 683.60 1.28 716.80
  A 1.10 1.07 -14.5 0 0 0.70 717.75
  L 0.71 803.22
  A 0.71 0.71 0.0 0 0 1.76 803.85
  C 39.48 783.41 89.57 768.19 131.93 777.57
  C 202.19 793.12 215.58 875.35 215.20 934.22
  Q 215.20 934.77 215.71 934.59
  C 263.20 918.38 319.75 922.30 353.69 963.64
  C 365.89 978.50 373.84 995.18 379.80 1013.57
  Q 379.96 1014.08 380.49 1013.95
  C 428.47 1002.45 505.87 999.50 526.46 1057.97
  A 0.57 0.56 67.8 0 0 527.23 1058.30
  C 555.26 1045.37 589.00 1046.92 594.36 1084.56
  Q 594.47 1085.32 595.24 1085.32
  L 722.48 1085.26
  A 0.71 0.71 0.0 0 0 723.19 1084.55
  C 723.25 1047.43 686.59 1036.94 656.53 1038.90
  Q 656.02 1038.93 655.81 1038.47
  C 641.88 1007.84 620.34 985.63 588.11 975.08
  C 552.87 963.55 511.87 967.70 476.90 979.59
  Q 476.40 979.76 476.21 979.27"
/>
<path stroke="#a89170" vector-effect="non-scaling-stroke" d="
  M 213.67 936.40
  C 213.03 876.93 202.76 795.01 131.13 779.12
  C 88.42 769.64 38.70 785.68 1.19 805.88
  Q 0.69 806.16 0.69 806.73
  L 0.70 902.98
  A 0.77 0.77 0.0 0 0 1.49 903.75
  C 24.21 903.31 46.71 911.24 62.99 927.11
  C 87.78 951.30 92.77 988.43 91.76 1021.74
  Q 91.74 1022.46 92.20 1021.89
  C 103.68 1007.61 122.34 997.47 139.83 1008.92
  A 0.86 0.86 0.0 0 0 140.81 1008.90
  C 164.17 992.29 203.70 976.86 228.59 998.55
  C 240.34 1008.79 246.94 1025.89 249.45 1041.28
  Q 249.55 1041.92 250.11 1041.59
  C 266.57 1031.95 290.49 1025.50 305.07 1040.73
  C 314.96 1051.06 318.85 1069.88 318.95 1084.30
  Q 318.96 1085.40 320.06 1085.40
  L 592.22 1085.30
  A 0.56 0.55 -4.0 0 0 592.77 1084.67
  C 587.27 1047.38 552.83 1047.24 526.29 1060.57
  A 0.45 0.44 66.9 0 1 525.66 1060.31
  C 505.15 1000.16 427.53 1004.18 379.20 1015.86
  Q 378.68 1015.98 378.53 1015.47
  Q 370.92 988.95 355.42 968.34
  C 322.01 923.89 263.36 919.32 214.20 936.77
  Q 213.67 936.96 213.67 936.40"
/>
<path stroke="#a27d54" vector-effect="non-scaling-stroke" d="
  M 89.84 1027.14
  C 91.63 999.78 88.89 969.63 75.18 945.57
  C 59.95 918.86 31.90 905.09 1.46 905.21
  A 0.75 0.75 0.0 0 0 0.71 905.96
  L 0.65 1084.53
  A 0.88 0.87 0.0 0 0 1.53 1085.40
  L 316.93 1085.42
  A 0.64 0.64 0.0 0 0 317.57 1084.75
  C 316.96 1072.66 315.30 1058.21 308.54 1047.72
  C 294.28 1025.62 267.25 1032.42 249.02 1044.18
  A 0.49 0.49 0.0 0 1 248.27 1043.84
  C 245.21 1022.72 234.85 998.13 212.63 991.40
  C 188.95 984.24 159.65 997.63 140.59 1010.86
  A 0.73 0.72 44.5 0 1 139.76 1010.86
  C 120.91 997.95 101.12 1011.07 90.21 1027.26
  Q 89.79 1027.89 89.84 1027.14"
/>
</g>
<path fill="#6e5845" d="
  M 724.69 1086.00
  L 0.00 1086.00
  L 0.00 715.70
  C 63.88 681.47 165.30 653.92 222.30 718.22
  C 258.76 759.35 265.71 822.66 266.36 874.98
  Q 266.37 875.54 266.92 875.46
  C 304.73 870.27 344.51 872.58 380.76 885.03
  Q 450.29 908.91 477.06 977.19
  Q 477.26 977.71 477.78 977.54
  C 545.23 955.73 624.73 963.13 656.63 1036.80
  Q 656.84 1037.29 657.37 1037.26
  C 688.75 1035.86 726.00 1046.95 724.69 1086.00
  Z
  M 476.21 979.27
  Q 446.36 902.96 366.94 882.38
  Q 317.26 869.51 265.50 877.36
  Q 264.94 877.44 264.92 876.87
  C 263.48 822.95 257.88 759.35 219.75 717.72
  C 163.24 656.03 63.78 683.60 1.28 716.80
  A 1.10 1.07 -14.5 0 0 0.70 717.75
  L 0.71 803.22
  A 0.71 0.71 0.0 0 0 1.76 803.85
  C 39.48 783.41 89.57 768.19 131.93 777.57
  C 202.19 793.12 215.58 875.35 215.20 934.22
  Q 215.20 934.77 215.71 934.59
  C 263.20 918.38 319.75 922.30 353.69 963.64
  C 365.89 978.50 373.84 995.18 379.80 1013.57
  Q 379.96 1014.08 380.49 1013.95
  C 428.47 1002.45 505.87 999.50 526.46 1057.97
  A 0.57 0.56 67.8 0 0 527.23 1058.30
  C 555.26 1045.37 589.00 1046.92 594.36 1084.56
  Q 594.47 1085.32 595.24 1085.32
  L 722.48 1085.26
  A 0.71 0.71 0.0 0 0 723.19 1084.55
  C 723.25 1047.43 686.59 1036.94 656.53 1038.90
  Q 656.02 1038.93 655.81 1038.47
  C 641.88 1007.84 620.34 985.63 588.11 975.08
  C 552.87 963.55 511.87 967.70 476.90 979.59
  Q 476.40 979.76 476.21 979.27
  Z
  M 213.67 936.40
  C 213.03 876.93 202.76 795.01 131.13 779.12
  C 88.42 769.64 38.70 785.68 1.19 805.88
  Q 0.69 806.16 0.69 806.73
  L 0.70 902.98
  A 0.77 0.77 0.0 0 0 1.49 903.75
  C 24.21 903.31 46.71 911.24 62.99 927.11
  C 87.78 951.30 92.77 988.43 91.76 1021.74
  Q 91.74 1022.46 92.20 1021.89
  C 103.68 1007.61 122.34 997.47 139.83 1008.92
  A 0.86 0.86 0.0 0 0 140.81 1008.90
  C 164.17 992.29 203.70 976.86 228.59 998.55
  C 240.34 1008.79 246.94 1025.89 249.45 1041.28
  Q 249.55 1041.92 250.11 1041.59
  C 266.57 1031.95 290.49 1025.50 305.07 1040.73
  C 314.96 1051.06 318.85 1069.88 318.95 1084.30
  Q 318.96 1085.40 320.06 1085.40
  L 592.22 1085.30
  A 0.56 0.55 -4.0 0 0 592.77 1084.67
  C 587.27 1047.38 552.83 1047.24 526.29 1060.57
  A 0.45 0.44 66.9 0 1 525.66 1060.31
  C 505.15 1000.16 427.53 1004.18 379.20 1015.86
  Q 378.68 1015.98 378.53 1015.47
  Q 370.92 988.95 355.42 968.34
  C 322.01 923.89 263.36 919.32 214.20 936.77
  Q 213.67 936.96 213.67 936.40
  Z
  M 89.84 1027.14
  C 91.63 999.78 88.89 969.63 75.18 945.57
  C 59.95 918.86 31.90 905.09 1.46 905.21
  A 0.75 0.75 0.0 0 0 0.71 905.96
  L 0.65 1084.53
  A 0.88 0.87 0.0 0 0 1.53 1085.40
  L 316.93 1085.42
  A 0.64 0.64 0.0 0 0 317.57 1084.75
  C 316.96 1072.66 315.30 1058.21 308.54 1047.72
  C 294.28 1025.62 267.25 1032.42 249.02 1044.18
  A 0.49 0.49 0.0 0 1 248.27 1043.84
  C 245.21 1022.72 234.85 998.13 212.63 991.40
  C 188.95 984.24 159.65 997.63 140.59 1010.86
  A 0.73 0.72 44.5 0 1 139.76 1010.86
  C 120.91 997.95 101.12 1011.07 90.21 1027.26
  Q 89.79 1027.89 89.84 1027.14
  Z"
/>
<path fill="#f0e1c1" d="
  M 476.90 979.59
  C 511.87 967.70 552.87 963.55 588.11 975.08
  C 620.34 985.63 641.88 1007.84 655.81 1038.47
  Q 656.02 1038.93 656.53 1038.90
  C 686.59 1036.94 723.25 1047.43 723.19 1084.55
  A 0.71 0.71 0.0 0 1 722.48 1085.26
  L 595.24 1085.32
  Q 594.47 1085.32 594.36 1084.56
  C 589.00 1046.92 555.26 1045.37 527.23 1058.30
  A 0.57 0.56 67.8 0 1 526.46 1057.97
  C 505.87 999.50 428.47 1002.45 380.49 1013.95
  Q 379.96 1014.08 379.80 1013.57
  C 373.84 995.18 365.89 978.50 353.69 963.64
  C 319.75 922.30 263.20 918.38 215.71 934.59
  Q 215.20 934.77 215.20 934.22
  C 215.58 875.35 202.19 793.12 131.93 777.57
  C 89.57 768.19 39.48 783.41 1.76 803.85
  A 0.71 0.71 0.0 0 1 0.71 803.22
  L 0.70 717.75
  A 1.10 1.07 -14.5 0 1 1.28 716.80
  C 63.78 683.60 163.24 656.03 219.75 717.72
  C 257.88 759.35 263.48 822.95 264.92 876.87
  Q 264.94 877.44 265.50 877.36
  Q 317.26 869.51 366.94 882.38
  Q 446.36 902.96 476.21 979.27
  Q 476.40 979.76 476.90 979.59
  Z"
/>
<path fill="#e2c99a" d="
  M 214.20 936.77
  C 263.36 919.32 322.01 923.89 355.42 968.34
  Q 370.92 988.95 378.53 1015.47
  Q 378.68 1015.98 379.20 1015.86
  C 427.53 1004.18 505.15 1000.16 525.66 1060.31
  A 0.45 0.44 66.9 0 0 526.29 1060.57
  C 552.83 1047.24 587.27 1047.38 592.77 1084.67
  A 0.56 0.55 -4.0 0 1 592.22 1085.30
  L 320.06 1085.40
  Q 318.96 1085.40 318.95 1084.30
  C 318.85 1069.88 314.96 1051.06 305.07 1040.73
  C 290.49 1025.50 266.57 1031.95 250.11 1041.59
  Q 249.55 1041.92 249.45 1041.28
  C 246.94 1025.89 240.34 1008.79 228.59 998.55
  C 203.70 976.86 164.17 992.29 140.81 1008.90
  A 0.86 0.86 0.0 0 1 139.83 1008.92
  C 122.34 997.47 103.68 1007.61 92.20 1021.89
  Q 91.74 1022.46 91.76 1021.74
  C 92.77 988.43 87.78 951.30 62.99 927.11
  C 46.71 911.24 24.21 903.31 1.49 903.75
  A 0.77 0.77 0.0 0 1 0.70 902.98
  L 0.69 806.73
  Q 0.69 806.16 1.19 805.88
  C 38.70 785.68 88.42 769.64 131.13 779.12
  C 202.76 795.01 213.03 876.93 213.67 936.40
  Q 213.67 936.96 214.20 936.77
  Z"
/>
<path fill="#d6a163" d="
  M 90.21 1027.26
  C 101.12 1011.07 120.91 997.95 139.76 1010.86
  A 0.73 0.72 44.5 0 0 140.59 1010.86
  C 159.65 997.63 188.95 984.24 212.63 991.40
  C 234.85 998.13 245.21 1022.72 248.27 1043.84
  A 0.49 0.49 0.0 0 0 249.02 1044.18
  C 267.25 1032.42 294.28 1025.62 308.54 1047.72
  C 315.30 1058.21 316.96 1072.66 317.57 1084.75
  A 0.64 0.64 0.0 0 1 316.93 1085.42
  L 1.53 1085.40
  A 0.88 0.87 0.0 0 1 0.65 1084.53
  L 0.71 905.96
  A 0.75 0.75 0.0 0 1 1.46 905.21
  C 31.90 905.09 59.95 918.86 75.18 945.57
  C 88.89 969.63 91.63 999.78 89.84 1027.14
  Q 89.79 1027.89 90.21 1027.26
  Z"
/>
</svg>
