<?xml version="1.0" encoding="UTF-8" standalone="no"?>
<!DOCTYPE svg PUBLIC "-//W3C//DTD SVG 1.1//EN" "http://www.w3.org/Graphics/SVG/1.1/DTD/svg11.dtd">
<svg xmlns="http://www.w3.org/2000/svg" version="1.1" viewBox="0.00 0.00 1931.00 1086.00">
<g stroke-width="2.00" fill="none" stroke-linecap="butt">
<path stroke="#b38c4f" vector-effect="non-scaling-stroke" d="
  M 985.28 329.61
  Q 992.77 335.13 1001.05 339.26
  Q 1001.52 339.49 1001.93 339.18
  Q 1009.58 333.44 1018.76 330.68
  A 0.61 0.61 0.0 0 1 1019.40 331.66
  Q 1009.57 343.08 1002.97 356.62
  A 0.75 0.75 0.0 0 1 1002.17 357.02
  L 996.12 355.90
  Q 995.72 355.83 995.54 355.46
  Q 989.53 342.82 981.97 331.03"
/>
<path stroke="#f38c4a" vector-effect="non-scaling-stroke" d="
  M 999.47 398.68
  Q 1000.94 404.60 1000.51 410.45
  A 0.58 0.58 0.0 0 0 1001.57 410.83
  Q 1010.28 398.53 1016.02 384.61
  Q 1016.23 384.09 1016.78 383.98
  L 1032.24 380.65
  A 0.77 0.76 47.4 0 0 1032.30 379.17
  L 1022.94 376.37"
/>
<path stroke="#ae5840" vector-effect="non-scaling-stroke" d="
  M 1022.94 376.37
  Q 1023.10 376.38 1023.24 376.35
  Q 1023.59 376.28 1023.44 375.96
  L 1023.32 375.69"
/>
<path stroke="#ae5840" vector-effect="non-scaling-stroke" d="
  M 1034.51 376.30
  Q 1034.66 376.12 1035.34 375.91"
/>
<path stroke="#f38c4a" vector-effect="non-scaling-stroke" d="
  M 1035.34 375.91
  Q 1035.83 376.01 1036.19 375.93
  Q 1036.81 375.79 1036.42 375.29
  Q 1029.81 366.78 1021.69 359.68
  A 0.97 0.96 -64.7 0 1 1021.37 358.77
  L 1026.09 332.60
  A 0.71 0.71 0.0 0 0 1024.86 332.00
  Q 1013.74 344.31 1006.10 359.70"
/>
<path stroke="#ae5840" vector-effect="non-scaling-stroke" d="
  M 1006.10 359.70
  Q 1006.24 358.64 1005.79 358.69"
/>
<path stroke="#b38c4f" vector-effect="non-scaling-stroke" d="
  M 1035.34 375.91
  C 1026.54 373.26 1016.74 370.43 1008.60 366.17
  Q 1008.14 365.93 1007.97 365.43
  L 1006.10 359.70"
/>
<path stroke="#b38c4f" vector-effect="non-scaling-stroke" d="
  M 1022.94 376.37
  L 1007.87 370.52
  Q 1006.73 370.08 1006.07 371.11
  Q 1004.23 373.96 1000.99 375.01
  A 0.90 0.89 86.8 0 0 1000.38 375.70
  L 999.58 380.03"
/>
<path stroke="#b38c4f" vector-effect="non-scaling-stroke" d="
  M 993.99 367.49
  Q 998.21 371.32 1000.79 368.29
  C 1005.21 363.09 994.09 357.91 994.03 367.70"
/>
<path stroke="#b38c4f" vector-effect="non-scaling-stroke" d="
  M 996.69 379.34
  L 995.99 375.79
  A 0.90 0.89 3.3 0 0 995.37 375.10
  Q 992.09 374.12 990.08 371.34
  A 0.81 0.80 63.4 0 0 989.19 371.04
  Q 974.26 375.63 958.84 378.04
  A 0.30 0.30 0.0 0 0 958.81 378.62
  Q 971.51 382.11 984.69 381.52
  A 1.50 1.49 -11.9 0 1 986.14 382.46
  L 995.35 405.74
  Q 995.62 406.42 996.04 405.82
  L 996.71 404.89"
/>
<path stroke="#b38c4f" vector-effect="non-scaling-stroke" d="
  M 955.21 373.34
  A 0.50 0.49 29.4 0 0 955.45 374.20
  Q 957.63 374.60 960.05 374.11
  Q 973.97 371.29 987.87 366.98
  A 0.83 0.82 81.4 0 0 988.44 366.19
  Q 988.45 361.91 991.47 358.98
  A 1.66 1.65 -36.1 0 0 991.78 357.01
  L 977.89 331.30
  A 0.74 0.73 -58.4 0 0 976.51 331.63
  Q 976.22 341.65 977.09 351.69
  C 977.18 352.68 978.09 354.06 976.84 355.09
  Q 966.21 363.80 955.21 373.34"
/>
<path stroke="#b38c4f" vector-effect="non-scaling-stroke" d="
  M 1322.16 432.09
  A 0.54 0.54 0.0 0 0 1322.26 432.72
  L 1327.22 437.58
  A 0.54 0.54 0.0 0 0 1328.01 437.54
  L 1374.15 380.35
  A 0.54 0.54 0.0 0 0 1374.05 379.58
  L 1355.96 366.39
  A 0.54 0.54 0.0 0 0 1355.16 366.59
  L 1322.16 432.09"
/>
<path stroke="#af9d83" vector-effect="non-scaling-stroke" d="
  M 682.19 427.43
  C 688.73 421.65 687.37 409.84 682.96 403.90
  C 675.22 393.47 658.76 392.83 647.45 397.05
  C 645.86 397.65 644.37 398.16 644.31 399.75
  Q 643.45 424.76 647.00 448.97
  A 1.73 1.72 87.3 0 0 648.60 450.44
  C 651.83 450.63 662.08 451.22 664.63 449.25
  A 0.88 0.88 0.0 0 0 664.98 448.61
  L 665.34 444.53
  A 0.99 0.99 0.0 0 1 666.09 443.65
  C 671.79 442.20 677.21 450.36 682.75 450.16
  Q 683.31 450.14 683.72 449.74
  Q 688.50 445.01 691.46 438.97
  A 1.26 1.23 48.6 0 0 691.51 438.00
  C 690.30 434.72 684.90 430.47 682.20 428.21
  Q 681.74 427.82 682.19 427.43"
/>
<path stroke="#af9d83" vector-effect="non-scaling-stroke" d="
  M 840.95 411.46
  Q 843.55 408.05 847.55 409.60
  A 1.24 1.22 -0.4 0 1 848.23 410.26
  L 848.95 411.97
  A 0.79 0.79 0.0 0 0 849.71 412.46
  C 853.42 412.30 860.71 411.15 863.07 407.60
  A 1.13 1.11 55.3 0 0 863.23 406.68
  C 859.21 391.72 837.59 391.31 828.84 401.78
  C 821.70 410.34 823.53 423.08 834.80 427.31
  C 838.17 428.57 843.43 428.89 847.60 430.49
  A 2.71 2.71 0.0 0 1 849.33 433.13
  Q 849.26 434.82 847.52 435.33
  Q 843.05 436.64 841.44 432.60
  A 1.23 1.21 -0.4 0 0 840.72 431.90
  C 836.69 430.38 827.51 429.84 824.46 434.38
  A 1.31 1.30 55.2 0 0 824.28 435.40
  C 828.12 452.14 851.45 455.32 862.41 443.94
  C 867.38 438.78 868.85 430.99 864.94 424.79
  C 860.40 417.61 851.80 415.71 843.66 414.43
  Q 841.60 414.11 840.84 412.36
  A 0.90 0.89 -38.3 0 1 840.95 411.46"
/>
<path stroke="#af9d83" vector-effect="non-scaling-stroke" d="
  M 926.2576 417.3459
  A 28.03 27.61 -11.7 0 0 893.2110 395.9937
  A 28.03 27.61 -11.7 0 0 871.3624 428.7141
  A 28.03 27.61 -11.7 0 0 904.4090 450.0663
  A 28.03 27.61 -11.7 0 0 926.2576 417.3459"
/>
<path stroke="#af9d83" vector-effect="non-scaling-stroke" d="
  M 668.84 419.79
  C 678.59 410.60 654.12 403.27 660.90 419.40
  C 662.34 422.81 666.88 421.63 668.84 419.79"
/>
<path stroke="#af9d83" vector-effect="non-scaling-stroke" d="
  M 716.31 431.62
  A 0.24 0.24 0.0 0 1 716.71 431.47
  L 728.43 442.89
  A 2.28 2.28 0.0 0 0 731.46 443.03
  Q 738.31 437.48 744.04 430.80
  A 0.38 0.38 0.0 0 1 744.71 431.04
  C 744.90 436.95 745.92 442.43 746.66 448.32
  Q 746.88 450.09 748.74 450.23
  Q 755.70 450.78 762.74 449.92
  A 1.34 1.32 -84.5 0 0 763.85 448.99
  Q 764.43 447.06 764.59 444.75
  Q 766.23 421.46 764.33 398.61
  A 2.02 2.00 5.0 0 0 762.83 396.84
  C 758.06 395.63 747.28 394.63 743.25 398.54
  C 738.35 403.29 734.67 410.11 730.63 415.70
  Q 730.27 416.20 729.94 415.69
  Q 724.61 407.43 718.58 399.67
  C 716.95 397.57 715.75 396.93 713.25 396.46
  Q 705.17 394.94 697.84 396.83
  A 2.05 2.05 0.0 0 0 696.31 398.66
  Q 694.38 423.29 696.68 447.89
  A 2.35 2.35 0.0 0 0 698.69 450.00
  Q 705.72 450.98 712.75 450.33
  A 1.04 1.04 0.0 0 0 713.55 449.82
  Q 714.15 448.79 714.37 447.36
  Q 715.64 439.43 716.31 431.62"
/>
<path stroke="#af9d83" vector-effect="non-scaling-stroke" d="
  M 627.87 402.38
  C 626.49 399.23 625.29 397.10 621.57 396.57
  C 617.74 396.02 603.60 395.77 601.81 400.42
  Q 593.67 421.59 590.16 445.74
  Q 589.83 448.00 590.59 449.65
  A 0.97 0.96 78.4 0 0 591.43 450.21
  L 602.79 450.65
  A 1.73 1.72 -74.7 0 0 604.37 449.74
  Q 606.31 446.12 608.21 442.18
  C 609.12 440.29 610.24 439.40 612.29 439.35
  C 614.64 439.29 620.20 438.53 621.59 440.97
  Q 623.13 443.66 624.61 448.36
  Q 625.30 450.55 626.98 450.57
  Q 634.03 450.66 641.19 449.50
  A 2.06 2.05 78.8 0 0 642.86 446.99
  Q 637.43 424.12 627.87 402.38"
/>
<path stroke="#af9d83" vector-effect="non-scaling-stroke" d="
  M 811.67 410.41
  C 810.21 406.56 807.05 397.36 802.51 396.61
  C 798.25 395.91 783.91 395.47 781.83 400.95
  Q 774.26 420.92 770.47 445.00
  Q 770.03 447.74 770.79 449.56
  Q 771.05 450.19 771.74 450.22
  L 782.80 450.65
  A 2.06 2.05 -74.7 0 0 784.71 449.56
  C 786.40 446.39 788.35 439.49 792.50 439.37
  C 795.19 439.28 800.87 438.39 802.21 441.56
  Q 803.76 445.24 805.05 448.93
  A 2.35 2.35 0.0 0 0 807.17 450.51
  C 810.48 450.67 819.55 450.69 822.50 448.97
  A 1.56 1.55 67.8 0 0 823.22 447.24
  Q 818.52 428.51 811.67 410.41"
/>
<path stroke="#af9d83" vector-effect="non-scaling-stroke" d="
  M 906.75 423.07
  A 8.01 8.01 0.0 0 0 898.74 415.06
  A 8.01 8.01 0.0 0 0 890.73 423.07
  A 8.01 8.01 0.0 0 0 898.74 431.08
  A 8.01 8.01 0.0 0 0 906.75 423.07"
/>
<path stroke="#b38c4f" vector-effect="non-scaling-stroke" d="
  M 1337.82 469.37
  A 0.63 0.63 0.0 0 0 1337.84 470.23
  L 1343.39 475.80
  A 0.63 0.63 0.0 0 0 1344.21 475.86
  L 1420.13 419.98
  A 0.63 0.63 0.0 0 0 1420.23 419.06
  L 1402.19 398.23
  A 0.63 0.63 0.0 0 0 1401.24 398.23
  L 1337.82 469.37"
/>
<path stroke="#af9d83" vector-effect="non-scaling-stroke" d="
  M 609.84 425.25
  A 2.15 2.15 0.0 0 0 611.17 427.64
  C 614.10 428.77 623.29 428.97 619.94 422.77
  C 618.53 420.14 617.09 416.36 614.18 416.73
  A 1.30 1.29 -75.7 0 0 613.29 417.26
  Q 610.65 420.84 609.84 425.25"
/>
<path stroke="#af9d83" vector-effect="non-scaling-stroke" d="
  M 793.18 417.92
  Q 790.84 421.10 790.09 425.09
  A 2.39 2.39 0.0 0 0 791.71 427.81
  C 794.64 428.76 801.81 429.01 800.70 423.82
  Q 800.31 421.99 797.03 417.97
  Q 794.99 415.47 793.18 417.92"
/>
<path stroke="#b38c4f" vector-effect="non-scaling-stroke" d="
  M 1351.50 500.50
  A 0.59 0.59 0.0 0 0 1351.20 501.29
  L 1354.92 509.27
  A 0.59 0.59 0.0 0 0 1355.59 509.60
  L 1442.04 488.88
  A 0.59 0.59 0.0 0 0 1442.49 488.26
  L 1440.73 463.39
  A 0.59 0.59 0.0 0 0 1439.91 462.89
  L 1351.50 500.50"
/>
<path stroke="#af9d83" vector-effect="non-scaling-stroke" d="
  M 640.13 514.08
  C 641.96 515.85 642.00 520.46 645.25 520.44
  C 653.33 520.40 669.97 517.17 676.53 510.27
  C 681.38 505.16 673.66 493.71 669.48 489.26
  C 662.20 481.52 650.75 477.20 639.96 476.14
  C 617.90 473.98 591.58 486.28 586.39 509.42
  C 580.44 535.93 592.92 553.33 618.39 557.88
  Q 625.44 559.14 635.24 561.60
  C 638.69 562.47 642.56 563.42 643.25 567.35
  Q 643.87 570.95 639.51 572.49
  Q 631.02 575.50 627.54 568.71
  Q 626.20 566.11 625.13 565.34
  Q 623.41 564.11 621.02 563.51
  Q 604.41 559.35 589.35 566.04
  C 584.90 568.01 583.15 572.27 584.45 577.09
  C 590.45 599.33 614.54 611.86 636.15 611.06
  C 654.04 610.40 670.96 603.99 681.25 588.59
  C 689.74 575.86 689.63 559.41 681.20 546.82
  C 669.51 529.37 649.33 526.68 630.54 522.57
  Q 627.90 521.99 626.03 520.62
  A 2.34 2.34 0.0 0 1 625.52 517.35
  C 628.46 513.30 635.81 509.92 640.13 514.08"
/>
<path stroke="#af9d83" vector-effect="non-scaling-stroke" d="
  M 854.39 610.52
  C 858.61 610.16 865.24 609.27 866.29 605.25
  Q 867.64 600.06 868.34 593.24
  Q 872.79 549.67 871.60 505.88
  Q 871.34 496.40 870.38 486.93
  Q 870.16 484.71 869.07 483.35
  Q 867.56 481.49 865.82 481.00
  Q 841.42 474.12 817.44 482.32
  Q 815.78 482.89 813.90 484.92
  C 811.67 487.34 811.61 491.59 811.65 494.50
  Q 812.23 531.37 816.27 568.02
  Q 818.25 586.04 821.50 601.26
  Q 822.19 604.48 824.24 608.10
  A 1.43 1.38 83.9 0 0 824.97 608.71
  C 833.64 611.78 845.32 611.31 854.39 610.52"
/>
<path stroke="#af9d83" vector-effect="non-scaling-stroke" d="
  M 734.24 605.79
  C 752.74 612.95 774.81 612.65 793.73 605.96
  C 807.62 601.05 801.17 566.66 789.99 561.23
  Q 787.39 559.96 785.50 560.44
  C 776.44 562.73 760.89 564.88 753.15 558.76
  C 747.23 554.09 746.21 545.51 749.42 539.01
  C 753.04 531.66 762.76 525.82 770.74 524.31
  Q 775.96 523.32 785.04 523.06
  C 797.65 522.70 794.51 504.22 792.37 496.99
  C 789.51 487.36 786.36 479.91 775.51 478.83
  C 732.17 474.52 699.59 503.28 696.39 546.01
  C 694.38 572.69 709.42 596.18 734.24 605.79"
/>
<path stroke="#af9d83" vector-effect="non-scaling-stroke" d="
  M 936.42 559.54
  Q 944.04 559.43 951.60 558.40
  C 953.72 558.11 954.96 557.08 955.26 555.00
  C 956.28 547.78 955.79 535.41 951.71 528.89
  Q 951.40 528.40 950.83 528.30
  Q 943.04 526.88 935.13 527.01
  Q 934.53 527.02 934.50 526.42
  L 934.17 521.09
  Q 934.14 520.53 934.71 520.52
  Q 952.04 520.21 966.76 518.81
  Q 969.67 518.53 972.60 516.63
  A 1.22 1.20 -11.9 0 0 973.14 515.82
  Q 975.34 503.60 974.02 489.00
  Q 973.64 484.85 972.61 482.16
  A 1.27 1.24 89.7 0 0 971.90 481.44
  Q 968.01 479.92 965.50 479.74
  Q 927.70 476.94 889.97 480.73
  Q 884.33 481.30 883.36 486.71
  C 882.99 488.78 882.42 491.07 882.33 493.12
  Q 880.37 539.51 884.50 585.75
  Q 885.29 594.69 887.03 603.50
  Q 887.51 605.94 888.91 608.09
  A 1.42 1.38 80.6 0 0 889.70 608.67
  Q 895.18 610.17 900.87 610.47
  Q 932.40 612.11 963.78 608.67
  Q 971.21 607.86 978.33 605.51
  Q 980.82 604.69 981.11 602.27
  Q 982.96 586.97 979.80 570.74
  C 979.32 568.26 978.86 566.49 976.12 565.79
  Q 972.70 564.92 969.49 565.06
  Q 949.57 565.95 936.51 566.20
  Q 935.96 566.21 935.95 565.66
  L 935.91 560.07
  Q 935.91 559.55 936.42 559.54"
/>
<path stroke="#af9d83" vector-effect="non-scaling-stroke" d="
  M 1039.44 569.32
  Q 1051.27 584.28 1064.47 598.01
  Q 1071.80 605.63 1073.27 606.64
  Q 1078.29 610.08 1085.47 610.53
  C 1091.29 610.89 1113.47 611.95 1114.28 606.01
  Q 1115.55 596.83 1116.13 582.00
  Q 1117.54 545.76 1116.73 509.50
  Q 1116.46 497.46 1115.36 485.43
  C 1115.15 483.07 1113.62 481.44 1111.52 480.88
  Q 1092.45 475.83 1072.73 481.36
  C 1065.01 483.52 1065.52 486.64 1065.77 494.35
  Q 1066.11 504.88 1066.33 515.43
  Q 1066.35 516.03 1066.00 515.54
  Q 1057.88 504.09 1049.07 493.16
  C 1044.49 487.49 1039.80 482.62 1033.51 481.25
  Q 1016.32 477.51 998.50 480.55
  Q 995.12 481.13 992.78 482.74
  A 2.37 2.34 76.9 0 0 991.77 484.38
  C 989.81 498.69 989.36 511.40 989.10 527.26
  Q 988.55 561.06 991.53 594.75
  Q 991.89 598.84 993.26 604.36
  C 994.05 607.56 995.52 608.84 998.63 609.41
  C 1008.30 611.19 1023.99 612.70 1032.88 608.67
  A 1.32 1.30 89.6 0 0 1033.54 607.99
  Q 1035.20 604.02 1035.57 601.26
  Q 1036.93 591.04 1038.89 569.49
  Q 1038.96 568.71 1039.44 569.32"
/>
<path stroke="#af9d83" vector-effect="non-scaling-stroke" d="
  M 1143.30 593.21
  C 1164.18 612.63 1195.91 615.04 1222.26 606.14
  C 1228.13 604.15 1230.09 598.23 1230.32 592.42
  C 1230.70 583.06 1228.16 563.80 1217.31 560.85
  Q 1215.20 560.27 1211.76 561.05
  C 1201.07 563.46 1180.93 565.59 1177.20 551.31
  C 1173.26 536.23 1188.90 525.81 1201.77 524.01
  Q 1206.68 523.32 1214.07 523.05
  Q 1216.67 522.95 1218.30 521.78
  C 1227.66 515.10 1222.09 496.60 1217.89 487.87
  Q 1213.96 479.71 1204.89 478.83
  C 1170.72 475.49 1140.70 492.31 1129.41 525.35
  C 1120.97 550.04 1124.32 575.56 1143.30 593.21"
/>
<path stroke="#af9d83" vector-effect="non-scaling-stroke" d="
  M 1291.38 520.56
  Q 1305.96 520.16 1320.50 519.12
  C 1322.67 518.96 1329.25 518.12 1329.73 515.34
  Q 1332.44 499.69 1329.89 483.98
  C 1329.23 479.91 1321.33 479.64 1318.25 479.45
  Q 1282.32 477.19 1246.49 480.86
  C 1239.52 481.58 1239.07 489.05 1238.85 494.50
  Q 1237.08 537.99 1240.55 581.39
  Q 1241.55 593.86 1243.66 604.01
  Q 1244.06 605.92 1245.49 608.10
  A 1.39 1.37 81.0 0 0 1246.25 608.66
  Q 1251.77 610.17 1257.50 610.46
  Q 1285.16 611.87 1312.76 609.55
  Q 1323.13 608.68 1333.29 606.34
  Q 1337.53 605.37 1337.86 600.51
  Q 1338.80 586.34 1337.00 574.46
  C 1335.77 566.40 1334.82 564.91 1326.25 565.24
  Q 1309.60 565.89 1292.91 566.15
  Q 1292.43 566.15 1292.42 565.67
  L 1292.41 560.06
  Q 1292.41 559.53 1292.94 559.52
  Q 1300.63 559.44 1308.27 558.43
  Q 1311.32 558.02 1311.75 555.00
  Q 1313.48 542.97 1309.51 531.50
  C 1308.78 529.38 1308.41 528.41 1305.96 528.03
  Q 1298.88 526.94 1291.68 526.99
  Q 1291.09 526.99 1291.07 526.41
  L 1290.80 521.19
  Q 1290.77 520.57 1291.38 520.56"
/>
<path stroke="#b38c4f" vector-effect="non-scaling-stroke" d="
  M 1355.78 532.06
  A 0.53 0.53 0.0 0 0 1355.30 532.68
  L 1356.52 539.87
  A 0.53 0.53 0.0 0 0 1357.01 540.31
  L 1413.02 543.93
  A 0.53 0.53 0.0 0 0 1413.57 543.50
  L 1416.46 527.67
  A 0.53 0.53 0.0 0 0 1415.89 527.05
  L 1355.78 532.06"
/>
</g>
<path fill="#f8c059" d="
  M 985.28 329.61
  Q 992.77 335.13 1001.05 339.26
  Q 1001.52 339.49 1001.93 339.18
  Q 1009.58 333.44 1018.76 330.68
  A 0.61 0.61 0.0 0 1 1019.40 331.66
  Q 1009.57 343.08 1002.97 356.62
  A 0.75 0.75 0.0 0 1 1002.17 357.02
  L 996.12 355.90
  Q 995.72 355.83 995.54 355.46
  Q 989.53 342.82 981.97 331.03
  L 979.20 326.30
  Q 978.84 325.68 979.45 326.05
  L 985.28 329.61
  Z"
/>
<path fill="#6d5845" d="
  M 959.75 374.50
  Q 955.53 375.23 952.58 375.20
  Q 951.73 375.19 952.38 374.64
  L 976.20 354.48
  A 0.96 0.92 67.2 0 0 976.52 353.65
  Q 974.96 340.69 976.13 327.67
  Q 976.22 326.63 976.72 327.55
  L 993.24 357.98
  A 0.47 0.47 0.0 0 1 993.10 358.59
  Q 988.91 361.55 989.21 366.77
  Q 989.24 367.38 988.66 367.57
  Q 975.98 371.73 959.75 374.50
  Z
  M 955.21 373.34
  A 0.50 0.49 29.4 0 0 955.45 374.20
  Q 957.63 374.60 960.05 374.11
  Q 973.97 371.29 987.87 366.98
  A 0.83 0.82 81.4 0 0 988.44 366.19
  Q 988.45 361.91 991.47 358.98
  A 1.66 1.65 -36.1 0 0 991.78 357.01
  L 977.89 331.30
  A 0.74 0.73 -58.4 0 0 976.51 331.63
  Q 976.22 341.65 977.09 351.69
  C 977.18 352.68 978.09 354.06 976.84 355.09
  Q 966.21 363.80 955.21 373.34
  Z"
/>
<path fill="#6d5845" d="
  M 981.97 331.03
  Q 989.53 342.82 995.54 355.46
  Q 995.72 355.83 996.12 355.90
  L 1002.17 357.02
  A 0.75 0.75 0.0 0 0 1002.97 356.62
  Q 1009.57 343.08 1019.40 331.66
  A 0.61 0.61 0.0 0 0 1018.76 330.68
  Q 1009.58 333.44 1001.93 339.18
  Q 1001.52 339.49 1001.05 339.26
  Q 992.77 335.13 985.28 329.61
  L 1000.79 338.40
  Q 1001.23 338.65 1001.63 338.36
  Q 1011.21 331.37 1022.83 328.86
  Q 1023.54 328.70 1023.02 329.20
  C 1014.70 337.10 1008.44 347.37 1003.03 357.91
  Q 1002.75 358.47 1002.20 358.16
  Q 999.49 356.65 996.46 357.20
  Q 995.99 357.29 995.77 356.87
  L 981.97 331.03
  Z"
/>
<path fill="#ee583b" d="
  M 999.47 398.68
  Q 1000.94 404.60 1000.51 410.45
  A 0.58 0.58 0.0 0 0 1001.57 410.83
  Q 1010.28 398.53 1016.02 384.61
  Q 1016.23 384.09 1016.78 383.98
  L 1032.24 380.65
  A 0.77 0.76 47.4 0 0 1032.30 379.17
  L 1022.94 376.37
  Q 1023.10 376.38 1023.24 376.35
  Q 1023.59 376.28 1023.44 375.96
  L 1023.32 375.69
  Q 1029.54 377.76 1035.80 379.57
  C 1037.05 379.93 1038.12 379.40 1038.72 378.36
  A 0.54 0.54 0.0 0 0 1038.42 377.58
  L 1034.51 376.30
  Q 1034.66 376.12 1035.34 375.91
  Q 1035.83 376.01 1036.19 375.93
  Q 1036.81 375.79 1036.42 375.29
  Q 1029.81 366.78 1021.69 359.68
  A 0.97 0.96 -64.7 0 1 1021.37 358.77
  L 1026.09 332.60
  A 0.71 0.71 0.0 0 0 1024.86 332.00
  Q 1013.74 344.31 1006.10 359.70
  Q 1006.24 358.64 1005.79 358.69
  Q 1012.67 344.69 1022.41 333.43
  Q 1023.96 331.64 1026.41 329.98
  Q 1026.99 329.58 1026.91 330.28
  Q 1025.34 344.11 1022.23 357.68
  Q 1022.03 358.55 1022.67 359.19
  L 1032.06 368.58
  Q 1032.43 368.95 1032.94 369.08
  L 1266.89 429.37
  Q 1267.36 429.50 1267.70 429.86
  C 1270.04 432.39 1271.72 436.53 1269.24 439.23
  C 1266.96 441.72 1261.05 442.29 1257.93 442.32
  Q 1254.75 442.34 1249.22 440.85
  Q 1141.77 411.75 1034.32 382.61
  Q 1031.66 381.89 1029.10 382.28
  Q 1023.11 383.18 1017.26 384.77
  Q 1016.76 384.91 1016.55 385.40
  Q 1010.18 400.53 1000.49 413.79
  Q 1000.05 414.40 1000.02 413.65
  L 999.47 398.68
  Z"
/>
<path fill="#f8c059" d="
  M 955.21 373.34
  Q 966.21 363.80 976.84 355.09
  C 978.09 354.06 977.18 352.68 977.09 351.69
  Q 976.22 341.65 976.51 331.63
  A 0.74 0.73 -58.4 0 1 977.89 331.30
  L 991.78 357.01
  A 1.66 1.65 -36.1 0 1 991.47 358.98
  Q 988.45 361.91 988.44 366.19
  A 0.83 0.82 81.4 0 1 987.87 366.98
  Q 973.97 371.29 960.05 374.11
  Q 957.63 374.60 955.45 374.20
  A 0.50 0.49 29.4 0 1 955.21 373.34
  Z"
/>
<path fill="#f8c059" d="
  M 1035.34 375.91
  C 1026.54 373.26 1016.74 370.43 1008.60 366.17
  Q 1008.14 365.93 1007.97 365.43
  L 1006.10 359.70
  Q 1013.74 344.31 1024.86 332.00
  A 0.71 0.71 0.0 0 1 1026.09 332.60
  L 1021.37 358.77
  A 0.97 0.96 -64.7 0 0 1021.69 359.68
  Q 1029.81 366.78 1036.42 375.29
  Q 1036.81 375.79 1036.19 375.93
  Q 1035.83 376.01 1035.34 375.91
  Z"
/>
<path fill="#6d5845" d="
  M 1005.79 358.69
  Q 1006.24 358.64 1006.10 359.70
  L 1007.97 365.43
  Q 1008.14 365.93 1008.60 366.17
  C 1016.74 370.43 1026.54 373.26 1035.34 375.91
  Q 1034.66 376.12 1034.51 376.30
  Q 1020.63 372.50 1007.44 366.61
  Q 1006.97 366.39 1006.93 365.88
  Q 1006.76 363.07 1005.22 360.73
  Q 1004.93 360.29 1005.08 359.78
  Q 1005.28 359.10 1005.79 358.69
  Z"
/>
<path fill="#6d5845" d="
  M 993.99 367.49
  Q 998.21 371.32 1000.79 368.29
  C 1005.21 363.09 994.09 357.91 994.03 367.70
  Q 992.71 364.11 995.35 362.32
  C 1001.00 358.51 1005.62 367.56 999.78 370.00
  Q 995.72 371.70 993.99 367.49
  Z"
/>
<path fill="#f8c059" d="
  M 993.99 367.49
  Q 994.01 367.59 994.03 367.70
  C 994.09 357.91 1005.21 363.09 1000.79 368.29
  Q 998.21 371.32 993.99 367.49
  Z"
/>
<path fill="#6d5845" d="
  M 1320.41 432.56
  L 1354.82 364.34
  A 0.31 0.31 0.0 0 1 1355.27 364.22
  L 1376.21 379.47
  A 0.31 0.31 0.0 0 1 1376.27 379.91
  L 1328.05 439.66
  A 0.31 0.31 0.0 0 1 1327.60 439.69
  L 1320.48 432.93
  A 0.31 0.31 0.0 0 1 1320.41 432.56
  Z
  M 1322.16 432.09
  A 0.54 0.54 0.0 0 0 1322.26 432.72
  L 1327.22 437.58
  A 0.54 0.54 0.0 0 0 1328.01 437.54
  L 1374.15 380.35
  A 0.54 0.54 0.0 0 0 1374.05 379.58
  L 1355.96 366.39
  A 0.54 0.54 0.0 0 0 1355.16 366.59
  L 1322.16 432.09
  Z"
/>
<path fill="#f8c059" d="
  M 1322.16 432.09
  L 1355.16 366.59
  A 0.54 0.54 0.0 0 1 1355.96 366.39
  L 1374.05 379.58
  A 0.54 0.54 0.0 0 1 1374.15 380.35
  L 1328.01 437.54
  A 0.54 0.54 0.0 0 1 1327.22 437.58
  L 1322.26 432.72
  A 0.54 0.54 0.0 0 1 1322.16 432.09
  Z"
/>
<path fill="#6d5845" d="
  M 1023.32 375.69
  L 1023.44 375.96
  Q 1023.59 376.28 1023.24 376.35
  Q 1023.10 376.38 1022.94 376.37
  L 1007.87 370.52
  Q 1006.73 370.08 1006.07 371.11
  Q 1004.23 373.96 1000.99 375.01
  A 0.90 0.89 86.8 0 0 1000.38 375.70
  L 999.58 380.03
  L 999.66 375.20
  Q 999.67 374.62 1000.23 374.46
  Q 1004.22 373.32 1006.04 369.60
  Q 1006.29 369.08 1006.83 369.29
  L 1023.32 375.69
  Z"
/>
<path fill="#6d5845" d="
  M 996.69 379.34
  L 995.99 375.79
  A 0.90 0.89 3.3 0 0 995.37 375.10
  Q 992.09 374.12 990.08 371.34
  A 0.81 0.80 63.4 0 0 989.19 371.04
  Q 974.26 375.63 958.84 378.04
  A 0.30 0.30 0.0 0 0 958.81 378.62
  Q 971.51 382.11 984.69 381.52
  A 1.50 1.49 -11.9 0 1 986.14 382.46
  L 995.35 405.74
  Q 995.62 406.42 996.04 405.82
  L 996.71 404.89
  L 997.10 411.42
  Q 997.18 412.82 996.68 411.52
  L 985.48 382.75
  A 0.71 0.71 0.0 0 0 984.78 382.30
  C 974.32 382.82 964.55 381.20 954.52 378.30
  Q 953.66 378.05 954.55 377.92
  C 966.67 376.16 977.98 373.83 989.65 370.08
  Q 990.19 369.90 990.48 370.40
  Q 992.47 373.83 996.45 374.56
  Q 996.95 374.65 996.92 375.17
  L 996.69 379.34
  Z"
/>
<path fill="#f8c059" d="
  M 1022.94 376.37
  L 1032.30 379.17
  A 0.77 0.76 47.4 0 1 1032.24 380.65
  L 1016.78 383.98
  Q 1016.23 384.09 1016.02 384.61
  Q 1010.28 398.53 1001.57 410.83
  A 0.58 0.58 0.0 0 1 1000.51 410.45
  Q 1000.94 404.60 999.47 398.68
  L 999.58 380.03
  L 1000.38 375.70
  A 0.90 0.89 86.8 0 1 1000.99 375.01
  Q 1004.23 373.96 1006.07 371.11
  Q 1006.73 370.08 1007.87 370.52
  L 1022.94 376.37
  Z"
/>
<path fill="#f8c059" d="
  M 996.69 379.34
  L 996.71 404.89
  L 996.04 405.82
  Q 995.62 406.42 995.35 405.74
  L 986.14 382.46
  A 1.50 1.49 -11.9 0 0 984.69 381.52
  Q 971.51 382.11 958.81 378.62
  A 0.30 0.30 0.0 0 1 958.84 378.04
  Q 974.26 375.63 989.19 371.04
  A 0.81 0.80 63.4 0 1 990.08 371.34
  Q 992.09 374.12 995.37 375.10
  A 0.90 0.89 3.3 0 1 995.99 375.79
  L 996.69 379.34
  Z"
/>
<path fill="#6d5845" d="
  M 684.47 428.16
  Q 688.27 431.55 691.65 435.33
  C 695.30 439.41 689.22 445.62 686.34 449.13
  Q 682.99 453.22 678.50 450.49
  Q 674.05 447.79 668.09 444.74
  A 1.15 1.15 0.0 0 0 666.46 446.09
  Q 667.31 449.02 665.24 450.55
  C 662.37 452.68 653.93 451.99 649.51 451.96
  Q 646.03 451.93 645.58 448.74
  Q 642.77 429.06 642.72 406.25
  Q 642.71 401.32 643.35 397.94
  A 1.25 1.24 -10.7 0 1 643.92 397.11
  Q 646.06 395.78 649.26 394.88
  C 667.66 389.70 690.92 396.22 687.66 420.24
  Q 687.11 424.31 684.42 427.38
  Q 684.06 427.80 684.47 428.16
  Z
  M 682.19 427.43
  C 688.73 421.65 687.37 409.84 682.96 403.90
  C 675.22 393.47 658.76 392.83 647.45 397.05
  C 645.86 397.65 644.37 398.16 644.31 399.75
  Q 643.45 424.76 647.00 448.97
  A 1.73 1.72 87.3 0 0 648.60 450.44
  C 651.83 450.63 662.08 451.22 664.63 449.25
  A 0.88 0.88 0.0 0 0 664.98 448.61
  L 665.34 444.53
  A 0.99 0.99 0.0 0 1 666.09 443.65
  C 671.79 442.20 677.21 450.36 682.75 450.16
  Q 683.31 450.14 683.72 449.74
  Q 688.50 445.01 691.46 438.97
  A 1.26 1.23 48.6 0 0 691.51 438.00
  C 690.30 434.72 684.90 430.47 682.20 428.21
  Q 681.74 427.82 682.19 427.43
  Z"
/>
<path fill="#6d5845" d="
  M 834.37 428.82
  C 828.31 426.62 824.10 422.29 823.53 415.61
  C 822.39 402.43 831.74 393.62 844.20 393.13
  C 852.92 392.79 862.77 397.23 864.69 406.48
  C 865.75 411.56 853.87 413.43 850.98 413.94
  Q 850.14 414.09 850.97 414.31
  Q 854.60 415.26 857.95 416.86
  C 869.45 422.34 872.55 436.71 862.83 445.59
  Q 856.12 451.71 845.49 452.03
  C 835.75 452.33 825.42 446.53 823.06 436.54
  C 821.68 430.66 830.34 429.35 834.27 429.35
  A 0.28 0.27 -34.6 0 0 834.37 428.82
  Z
  M 840.95 411.46
  Q 843.55 408.05 847.55 409.60
  A 1.24 1.22 -0.4 0 1 848.23 410.26
  L 848.95 411.97
  A 0.79 0.79 0.0 0 0 849.71 412.46
  C 853.42 412.30 860.71 411.15 863.07 407.60
  A 1.13 1.11 55.3 0 0 863.23 406.68
  C 859.21 391.72 837.59 391.31 828.84 401.78
  C 821.70 410.34 823.53 423.08 834.80 427.31
  C 838.17 428.57 843.43 428.89 847.60 430.49
  A 2.71 2.71 0.0 0 1 849.33 433.13
  Q 849.26 434.82 847.52 435.33
  Q 843.05 436.64 841.44 432.60
  A 1.23 1.21 -0.4 0 0 840.72 431.90
  C 836.69 430.38 827.51 429.84 824.46 434.38
  A 1.31 1.30 55.2 0 0 824.28 435.40
  C 828.12 452.14 851.45 455.32 862.41 443.94
  C 867.38 438.78 868.85 430.99 864.94 424.79
  C 860.40 417.61 851.80 415.71 843.66 414.43
  Q 841.60 414.11 840.84 412.36
  A 0.90 0.89 -38.3 0 1 840.95 411.46
  Z
  M 847.51 412.25
  C 846.88 409.62 843.85 410.31 842.60 411.96
  Q 842.23 412.47 842.84 412.61
  L 848.20 413.82
  A 0.27 0.27 0.0 0 0 848.42 413.33
  L 848.06 413.06
  Q 847.63 412.76 847.51 412.25
  Z
  M 843.11 432.61
  Q 843.79 434.26 846.93 434.17
  A 1.18 1.18 0.0 0 0 847.23 431.85
  L 841.98 430.31
  Q 840.75 429.95 841.74 430.76
  Q 842.65 431.51 843.11 432.61
  Z"
/>
<path fill="#6d5845" d="
  M 927.7173 417.0962
  A 29.51 29.07 -11.6 0 1 904.6553 451.5063
  A 29.51 29.07 -11.6 0 1 869.9027 428.9638
  A 29.51 29.07 -11.6 0 1 892.9647 394.5537
  A 29.51 29.07 -11.6 0 1 927.7173 417.0962
  Z
  M 926.2576 417.3459
  A 28.03 27.61 -11.7 0 0 893.2110 395.9937
  A 28.03 27.61 -11.7 0 0 871.3624 428.7141
  A 28.03 27.61 -11.7 0 0 904.4090 450.0663
  A 28.03 27.61 -11.7 0 0 926.2576 417.3459
  Z"
/>
<path fill="#f0e1c0" d="
  M 682.20 428.21
  C 684.90 430.47 690.30 434.72 691.51 438.00
  A 1.26 1.23 48.6 0 1 691.46 438.97
  Q 688.50 445.01 683.72 449.74
  Q 683.31 450.14 682.75 450.16
  C 677.21 450.36 671.79 442.20 666.09 443.65
  A 0.99 0.99 0.0 0 0 665.34 444.53
  L 664.98 448.61
  A 0.88 0.88 0.0 0 1 664.63 449.25
  C 662.08 451.22 651.83 450.63 648.60 450.44
  A 1.73 1.72 87.3 0 1 647.00 448.97
  Q 643.45 424.76 644.31 399.75
  C 644.37 398.16 645.86 397.65 647.45 397.05
  C 658.76 392.83 675.22 393.47 682.96 403.90
  C 687.37 409.84 688.73 421.65 682.19 427.43
  Q 681.74 427.82 682.20 428.21
  Z
  M 668.84 419.79
  C 678.59 410.60 654.12 403.27 660.90 419.40
  C 662.34 422.81 666.88 421.63 668.84 419.79
  Z"
/>
<path fill="#6d5845" d="
  M 742.86 434.43
  Q 739.49 437.91 733.28 443.48
  C 731.01 445.52 729.15 445.18 726.88 443.24
  Q 722.24 439.30 718.07 434.90
  Q 717.57 434.36 717.47 435.09
  C 716.96 439.28 716.78 447.77 714.49 451.11
  A 1.26 1.25 -75.9 0 1 713.62 451.64
  Q 705.26 452.70 697.00 451.11
  Q 696.53 451.02 696.30 450.60
  Q 695.22 448.63 695.04 446.51
  Q 693.17 424.59 694.77 399.50
  Q 695.00 395.85 698.23 395.23
  Q 704.44 394.03 711.99 394.80
  C 715.47 395.16 717.38 395.85 719.67 398.71
  Q 725.21 405.63 729.95 413.11
  Q 730.27 413.62 730.62 413.13
  C 734.35 407.91 737.76 401.77 742.32 397.33
  C 746.34 393.42 755.31 394.35 761.00 395.00
  C 766.02 395.57 765.75 397.74 766.07 402.31
  C 767.14 417.43 767.62 434.04 765.46 449.05
  A 2.62 2.61 -0.0 0 1 763.24 451.26
  Q 755.23 452.42 747.19 451.59
  A 1.17 1.16 -13.0 0 1 746.33 451.06
  C 743.88 447.23 743.64 437.36 743.39 434.62
  Q 743.33 433.94 742.86 434.43
  Z
  M 716.31 431.62
  A 0.24 0.24 0.0 0 1 716.71 431.47
  L 728.43 442.89
  A 2.28 2.28 0.0 0 0 731.46 443.03
  Q 738.31 437.48 744.04 430.80
  A 0.38 0.38 0.0 0 1 744.71 431.04
  C 744.90 436.95 745.92 442.43 746.66 448.32
  Q 746.88 450.09 748.74 450.23
  Q 755.70 450.78 762.74 449.92
  A 1.34 1.32 -84.5 0 0 763.85 448.99
  Q 764.43 447.06 764.59 444.75
  Q 766.23 421.46 764.33 398.61
  A 2.02 2.00 5.0 0 0 762.83 396.84
  C 758.06 395.63 747.28 394.63 743.25 398.54
  C 738.35 403.29 734.67 410.11 730.63 415.70
  Q 730.27 416.20 729.94 415.69
  Q 724.61 407.43 718.58 399.67
  C 716.95 397.57 715.75 396.93 713.25 396.46
  Q 705.17 394.94 697.84 396.83
  A 2.05 2.05 0.0 0 0 696.31 398.66
  Q 694.38 423.29 696.68 447.89
  A 2.35 2.35 0.0 0 0 698.69 450.00
  Q 705.72 450.98 712.75 450.33
  A 1.04 1.04 0.0 0 0 713.55 449.82
  Q 714.15 448.79 714.37 447.36
  Q 715.64 439.43 716.31 431.62
  Z"
/>
<path fill="#f0e1c0" d="
  M 840.84 412.36
  Q 841.60 414.11 843.66 414.43
  C 851.80 415.71 860.40 417.61 864.94 424.79
  C 868.85 430.99 867.38 438.78 862.41 443.94
  C 851.45 455.32 828.12 452.14 824.28 435.40
  A 1.31 1.30 55.2 0 1 824.46 434.38
  C 827.51 429.84 836.69 430.38 840.72 431.90
  A 1.23 1.21 -0.4 0 1 841.44 432.60
  Q 843.05 436.64 847.52 435.33
  Q 849.26 434.82 849.33 433.13
  A 2.71 2.71 0.0 0 0 847.60 430.49
  C 843.43 428.89 838.17 428.57 834.80 427.31
  C 823.53 423.08 821.70 410.34 828.84 401.78
  C 837.59 391.31 859.21 391.72 863.23 406.68
  A 1.13 1.11 55.3 0 1 863.07 407.60
  C 860.71 411.15 853.42 412.30 849.71 412.46
  A 0.79 0.79 0.0 0 1 848.95 411.97
  L 848.23 410.26
  A 1.24 1.22 -0.4 0 0 847.55 409.60
  Q 843.55 408.05 840.95 411.46
  A 0.90 0.89 -38.3 0 0 840.84 412.36
  Z"
/>
<path fill="#6d5845" d="
  M 610.23 441.65
  Q 608.06 445.35 606.36 449.29
  Q 605.38 451.57 603.00 451.78
  Q 596.46 452.35 591.25 451.49
  C 587.70 450.90 588.64 445.60 589.15 442.38
  Q 592.89 418.34 600.52 399.65
  C 602.49 394.84 613.83 394.79 619.03 394.85
  Q 626.44 394.93 629.13 401.20
  Q 639.69 425.78 644.30 446.50
  C 645.21 450.62 641.63 450.91 638.28 451.37
  Q 632.16 452.21 626.48 451.96
  A 2.98 2.97 -11.5 0 1 623.93 450.28
  C 622.77 447.87 621.43 441.15 618.28 440.80
  Q 614.62 440.40 611.06 441.06
  A 1.21 1.20 -80.1 0 0 610.23 441.65
  Z
  M 627.87 402.38
  C 626.49 399.23 625.29 397.10 621.57 396.57
  C 617.74 396.02 603.60 395.77 601.81 400.42
  Q 593.67 421.59 590.16 445.74
  Q 589.83 448.00 590.59 449.65
  A 0.97 0.96 78.4 0 0 591.43 450.21
  L 602.79 450.65
  A 1.73 1.72 -74.7 0 0 604.37 449.74
  Q 606.31 446.12 608.21 442.18
  C 609.12 440.29 610.24 439.40 612.29 439.35
  C 614.64 439.29 620.20 438.53 621.59 440.97
  Q 623.13 443.66 624.61 448.36
  Q 625.30 450.55 626.98 450.57
  Q 634.03 450.66 641.19 449.50
  A 2.06 2.05 78.8 0 0 642.86 446.99
  Q 637.43 424.12 627.87 402.38
  Z"
/>
<path fill="#6d5845" d="
  M 789.88 442.48
  C 788.66 445.17 786.18 452.17 782.76 452.07
  C 778.97 451.95 775.36 452.11 771.60 451.44
  C 767.66 450.74 768.95 445.43 769.40 442.51
  Q 772.65 421.46 779.99 401.48
  C 780.87 399.07 782.01 397.35 784.63 396.54
  Q 793.24 393.91 802.24 395.14
  C 806.78 395.77 808.47 399.14 810.49 404.02
  Q 819.13 424.85 824.63 446.73
  C 825.57 450.50 821.25 451.11 818.63 451.34
  Q 811.27 451.98 807.53 451.99
  C 803.28 452.01 802.16 444.93 800.69 441.96
  A 2.15 2.13 76.4 0 0 798.76 440.77
  L 792.53 440.77
  A 2.91 2.90 12.1 0 0 789.88 442.48
  Z
  M 811.67 410.41
  C 810.21 406.56 807.05 397.36 802.51 396.61
  C 798.25 395.91 783.91 395.47 781.83 400.95
  Q 774.26 420.92 770.47 445.00
  Q 770.03 447.74 770.79 449.56
  Q 771.05 450.19 771.74 450.22
  L 782.80 450.65
  A 2.06 2.05 -74.7 0 0 784.71 449.56
  C 786.40 446.39 788.35 439.49 792.50 439.37
  C 795.19 439.28 800.87 438.39 802.21 441.56
  Q 803.76 445.24 805.05 448.93
  A 2.35 2.35 0.0 0 0 807.17 450.51
  C 810.48 450.67 819.55 450.69 822.50 448.97
  A 1.56 1.55 67.8 0 0 823.22 447.24
  Q 818.52 428.51 811.67 410.41
  Z"
/>
<path fill="#f0e1c0" d="
  M 926.2576 417.3459
  A 28.03 27.61 -11.7 0 1 904.4090 450.0663
  A 28.03 27.61 -11.7 0 1 871.3624 428.7141
  A 28.03 27.61 -11.7 0 1 893.2110 395.9937
  A 28.03 27.61 -11.7 0 1 926.2576 417.3459
  Z
  M 906.75 423.07
  A 8.01 8.01 0.0 0 0 898.74 415.06
  A 8.01 8.01 0.0 0 0 890.73 423.07
  A 8.01 8.01 0.0 0 0 898.74 431.08
  A 8.01 8.01 0.0 0 0 906.75 423.07
  Z"
/>
<path fill="#f0e1c0" d="
  M 716.31 431.62
  Q 715.64 439.43 714.37 447.36
  Q 714.15 448.79 713.55 449.82
  A 1.04 1.04 0.0 0 1 712.75 450.33
  Q 705.72 450.98 698.69 450.00
  A 2.35 2.35 0.0 0 1 696.68 447.89
  Q 694.38 423.29 696.31 398.66
  A 2.05 2.05 0.0 0 1 697.84 396.83
  Q 705.17 394.94 713.25 396.46
  C 715.75 396.93 716.95 397.57 718.58 399.67
  Q 724.61 407.43 729.94 415.69
  Q 730.27 416.20 730.63 415.70
  C 734.67 410.11 738.35 403.29 743.25 398.54
  C 747.28 394.63 758.06 395.63 762.83 396.84
  A 2.02 2.00 5.0 0 1 764.33 398.61
  Q 766.23 421.46 764.59 444.75
  Q 764.43 447.06 763.85 448.99
  A 1.34 1.32 -84.5 0 1 762.74 449.92
  Q 755.70 450.78 748.74 450.23
  Q 746.88 450.09 746.66 448.32
  C 745.92 442.43 744.90 436.95 744.71 431.04
  A 0.38 0.38 0.0 0 0 744.04 430.80
  Q 738.31 437.48 731.46 443.03
  A 2.28 2.28 0.0 0 1 728.43 442.89
  L 716.71 431.47
  A 0.24 0.24 0.0 0 0 716.31 431.62
  Z"
/>
<path fill="#6d5845" d="
  M 1335.72 469.67
  L 1401.46 395.96
  A 0.34 0.34 0.0 0 1 1401.97 395.96
  L 1422.42 419.50
  A 0.34 0.34 0.0 0 1 1422.36 420.00
  L 1343.93 477.74
  A 0.34 0.34 0.0 0 1 1343.49 477.71
  L 1335.73 470.14
  A 0.34 0.34 0.0 0 1 1335.72 469.67
  Z
  M 1337.82 469.37
  A 0.63 0.63 0.0 0 0 1337.84 470.23
  L 1343.39 475.80
  A 0.63 0.63 0.0 0 0 1344.21 475.86
  L 1420.13 419.98
  A 0.63 0.63 0.0 0 0 1420.23 419.06
  L 1402.19 398.23
  A 0.63 0.63 0.0 0 0 1401.24 398.23
  L 1337.82 469.37
  Z"
/>
<path fill="#f0e1c0" d="
  M 627.87 402.38
  Q 637.43 424.12 642.86 446.99
  A 2.06 2.05 78.8 0 1 641.19 449.50
  Q 634.03 450.66 626.98 450.57
  Q 625.30 450.55 624.61 448.36
  Q 623.13 443.66 621.59 440.97
  C 620.20 438.53 614.64 439.29 612.29 439.35
  C 610.24 439.40 609.12 440.29 608.21 442.18
  Q 606.31 446.12 604.37 449.74
  A 1.73 1.72 -74.7 0 1 602.79 450.65
  L 591.43 450.21
  A 0.97 0.96 78.4 0 1 590.59 449.65
  Q 589.83 448.00 590.16 445.74
  Q 593.67 421.59 601.81 400.42
  C 603.60 395.77 617.74 396.02 621.57 396.57
  C 625.29 397.10 626.49 399.23 627.87 402.38
  Z
  M 609.84 425.25
  A 2.15 2.15 0.0 0 0 611.17 427.64
  C 614.10 428.77 623.29 428.97 619.94 422.77
  C 618.53 420.14 617.09 416.36 614.18 416.73
  A 1.30 1.29 -75.7 0 0 613.29 417.26
  Q 610.65 420.84 609.84 425.25
  Z"
/>
<path fill="#f0e1c0" d="
  M 811.67 410.41
  Q 818.52 428.51 823.22 447.24
  A 1.56 1.55 67.8 0 1 822.50 448.97
  C 819.55 450.69 810.48 450.67 807.17 450.51
  A 2.35 2.35 0.0 0 1 805.05 448.93
  Q 803.76 445.24 802.21 441.56
  C 800.87 438.39 795.19 439.28 792.50 439.37
  C 788.35 439.49 786.40 446.39 784.71 449.56
  A 2.06 2.05 -74.7 0 1 782.80 450.65
  L 771.74 450.22
  Q 771.05 450.19 770.79 449.56
  Q 770.03 447.74 770.47 445.00
  Q 774.26 420.92 781.83 400.95
  C 783.91 395.47 798.25 395.91 802.51 396.61
  C 807.05 397.36 810.21 406.56 811.67 410.41
  Z
  M 793.18 417.92
  Q 790.84 421.10 790.09 425.09
  A 2.39 2.39 0.0 0 0 791.71 427.81
  C 794.64 428.76 801.81 429.01 800.70 423.82
  Q 800.31 421.99 797.03 417.97
  Q 794.99 415.47 793.18 417.92
  Z"
/>
<path fill="#f8c059" d="
  M 1337.82 469.37
  L 1401.24 398.23
  A 0.63 0.63 0.0 0 1 1402.19 398.23
  L 1420.23 419.06
  A 0.63 0.63 0.0 0 1 1420.13 419.98
  L 1344.21 475.86
  A 0.63 0.63 0.0 0 1 1343.39 475.80
  L 1337.84 470.23
  A 0.63 0.63 0.0 0 1 1337.82 469.37
  Z"
/>
<path fill="#6d5845" d="
  M 660.90 419.40
  C 654.12 403.27 678.59 410.60 668.84 419.79
  C 666.88 421.63 662.34 422.81 660.90 419.40
  Z
  M 661.13 413.77
  L 661.81 418.58
  A 1.91 1.91 0.0 0 0 663.96 420.21
  L 664.47 420.14
  A 5.70 4.24 -8.0 0 0 669.52 415.14
  L 669.50 414.95
  A 5.70 4.24 -8.0 0 0 663.26 411.54
  L 662.76 411.61
  A 1.91 1.91 0.0 0 0 661.13 413.77
  Z"
/>
<path fill="#6d5845" d="
  M 906.75 423.07
  A 8.01 8.01 0.0 0 1 898.74 431.08
  A 8.01 8.01 0.0 0 1 890.73 423.07
  A 8.01 8.01 0.0 0 1 898.74 415.06
  A 8.01 8.01 0.0 0 1 906.75 423.07
  Z
  M 905.28 423.09
  A 6.54 6.54 0.0 0 0 898.74 416.55
  A 6.54 6.54 0.0 0 0 892.20 423.09
  A 6.54 6.54 0.0 0 0 898.74 429.63
  A 6.54 6.54 0.0 0 0 905.28 423.09
  Z"
/>
<path fill="#6d5845" d="
  M 609.84 425.25
  Q 610.65 420.84 613.29 417.26
  A 1.30 1.29 -75.7 0 1 614.18 416.73
  C 617.09 416.36 618.53 420.14 619.94 422.77
  C 623.29 428.97 614.10 428.77 611.17 427.64
  A 2.15 2.15 0.0 0 1 609.84 425.25
  Z
  M 614.34 418.32
  C 612.87 420.26 611.75 423.06 611.25 425.47
  A 0.72 0.71 -75.0 0 0 611.72 426.30
  Q 615.42 427.52 618.95 425.95
  A 0.62 0.61 -20.3 0 0 619.29 425.22
  Q 618.10 421.26 615.26 418.27
  A 0.60 0.60 0.0 0 0 614.34 418.32
  Z"
/>
<path fill="#6d5845" d="
  M 793.18 417.92
  Q 794.99 415.47 797.03 417.97
  Q 800.31 421.99 800.70 423.82
  C 801.81 429.01 794.64 428.76 791.71 427.81
  A 2.39 2.39 0.0 0 1 790.09 425.09
  Q 790.84 421.10 793.18 417.92
  Z
  M 794.78 418.32
  C 793.15 419.84 792.07 422.85 791.62 424.90
  A 1.41 1.40 12.0 0 0 792.71 426.57
  Q 795.69 427.19 798.58 426.25
  Q 799.83 425.84 799.37 424.61
  Q 798.06 421.13 795.64 418.36
  A 0.60 0.60 0.0 0 0 794.78 418.32
  Z"
/>
<path fill="#6d5845" d="
  M 1349.46 499.90
  L 1441.36 460.82
  A 0.36 0.36 0.0 0 1 1441.86 461.12
  L 1443.91 489.51
  A 0.36 0.36 0.0 0 1 1443.63 489.88
  L 1354.67 511.21
  A 0.36 0.36 0.0 0 1 1354.26 511.01
  L 1349.28 500.39
  A 0.36 0.36 0.0 0 1 1349.46 499.90
  Z
  M 1351.50 500.50
  A 0.59 0.59 0.0 0 0 1351.20 501.29
  L 1354.92 509.27
  A 0.59 0.59 0.0 0 0 1355.59 509.60
  L 1442.04 488.88
  A 0.59 0.59 0.0 0 0 1442.49 488.26
  L 1440.73 463.39
  A 0.59 0.59 0.0 0 0 1439.91 462.89
  L 1351.50 500.50
  Z"
/>
<path fill="#f8c059" d="
  M 1351.50 500.50
  L 1439.91 462.89
  A 0.59 0.59 0.0 0 1 1440.73 463.39
  L 1442.49 488.26
  A 0.59 0.59 0.0 0 1 1442.04 488.88
  L 1355.59 509.60
  A 0.59 0.59 0.0 0 1 1354.92 509.27
  L 1351.20 501.29
  A 0.59 0.59 0.0 0 1 1351.50 500.50
  Z"
/>
<path fill="#6d5845" d="
  M 626.76 519.01
  C 629.24 522.01 640.92 523.42 644.98 524.18
  C 662.82 527.55 680.53 536.71 686.79 554.86
  C 692.41 571.15 687.37 586.79 674.85 598.17
  C 662.92 609.03 647.50 612.99 631.51 612.45
  C 611.45 611.78 589.65 599.28 583.43 578.96
  C 581.52 572.69 582.84 567.33 588.94 564.60
  Q 605.62 557.11 623.70 562.79
  C 626.17 563.56 627.47 565.07 628.64 567.65
  Q 631.48 573.91 639.09 571.39
  Q 641.70 570.53 641.92 568.26
  C 642.11 566.38 640.48 564.94 638.71 564.28
  C 631.98 561.80 624.84 560.54 617.81 559.22
  Q 610.19 557.77 606.56 556.29
  C 589.02 549.11 582.38 534.81 583.75 516.49
  C 585.89 488.06 613.76 472.33 640.26 474.62
  C 654.60 475.86 669.83 483.49 676.58 496.79
  C 680.47 504.47 681.80 509.91 673.10 514.77
  C 665.33 519.11 654.62 521.54 646.25 521.87
  Q 641.74 522.04 640.48 518.06
  Q 639.75 515.74 639.06 515.07
  C 635.58 511.69 629.20 514.88 626.74 518.13
  Q 626.40 518.58 626.76 519.01
  Z
  M 640.13 514.08
  C 641.96 515.85 642.00 520.46 645.25 520.44
  C 653.33 520.40 669.97 517.17 676.53 510.27
  C 681.38 505.16 673.66 493.71 669.48 489.26
  C 662.20 481.52 650.75 477.20 639.96 476.14
  C 617.90 473.98 591.58 486.28 586.39 509.42
  C 580.44 535.93 592.92 553.33 618.39 557.88
  Q 625.44 559.14 635.24 561.60
  C 638.69 562.47 642.56 563.42 643.25 567.35
  Q 643.87 570.95 639.51 572.49
  Q 631.02 575.50 627.54 568.71
  Q 626.20 566.11 625.13 565.34
  Q 623.41 564.11 621.02 563.51
  Q 604.41 559.35 589.35 566.04
  C 584.90 568.01 583.15 572.27 584.45 577.09
  C 590.45 599.33 614.54 611.86 636.15 611.06
  C 654.04 610.40 670.96 603.99 681.25 588.59
  C 689.74 575.86 689.63 559.41 681.20 546.82
  C 669.51 529.37 649.33 526.68 630.54 522.57
  Q 627.90 521.99 626.03 520.62
  A 2.34 2.34 0.0 0 1 625.52 517.35
  C 628.46 513.30 635.81 509.92 640.13 514.08
  Z"
/>
<path fill="#f0e1c0" d="
  M 640.13 514.08
  C 635.81 509.92 628.46 513.30 625.52 517.35
  A 2.34 2.34 0.0 0 0 626.03 520.62
  Q 627.90 521.99 630.54 522.57
  C 649.33 526.68 669.51 529.37 681.20 546.82
  C 689.63 559.41 689.74 575.86 681.25 588.59
  C 670.96 603.99 654.04 610.40 636.15 611.06
  C 614.54 611.86 590.45 599.33 584.45 577.09
  C 583.15 572.27 584.90 568.01 589.35 566.04
  Q 604.41 559.35 621.02 563.51
  Q 623.41 564.11 625.13 565.34
  Q 626.20 566.11 627.54 568.71
  Q 631.02 575.50 639.51 572.49
  Q 643.87 570.95 643.25 567.35
  C 642.56 563.42 638.69 562.47 635.24 561.60
  Q 625.44 559.14 618.39 557.88
  C 592.92 553.33 580.44 535.93 586.39 509.42
  C 591.58 486.28 617.90 473.98 639.96 476.14
  C 650.75 477.20 662.20 481.52 669.48 489.26
  C 673.66 493.71 681.38 505.16 676.53 510.27
  C 669.97 517.17 653.33 520.40 645.25 520.44
  C 642.00 520.46 641.96 515.85 640.13 514.08
  Z"
/>
<path fill="#6d5845" d="
  M 853.32 611.87
  C 848.14 612.52 825.44 613.56 822.68 608.38
  Q 820.64 604.55 819.78 600.26
  Q 817.36 588.21 815.87 576.01
  Q 810.96 535.90 810.19 495.50
  C 810.05 487.99 810.99 482.63 818.99 480.19
  Q 840.59 473.60 862.67 478.65
  C 867.33 479.72 871.38 481.49 871.85 486.74
  Q 872.92 498.54 873.17 516.25
  Q 873.70 553.46 870.23 590.50
  Q 869.39 599.42 867.59 606.02
  C 866.10 611.44 857.55 611.34 853.32 611.87
  Z
  M 854.39 610.52
  C 858.61 610.16 865.24 609.27 866.29 605.25
  Q 867.64 600.06 868.34 593.24
  Q 872.79 549.67 871.60 505.88
  Q 871.34 496.40 870.38 486.93
  Q 870.16 484.71 869.07 483.35
  Q 867.56 481.49 865.82 481.00
  Q 841.42 474.12 817.44 482.32
  Q 815.78 482.89 813.90 484.92
  C 811.67 487.34 811.61 491.59 811.65 494.50
  Q 812.23 531.37 816.27 568.02
  Q 818.25 586.04 821.50 601.26
  Q 822.19 604.48 824.24 608.10
  A 1.43 1.38 83.9 0 0 824.97 608.71
  C 833.64 611.78 845.32 611.31 854.39 610.52
  Z"
/>
<path fill="#6d5845" d="
  M 764.25 612.42
  C 727.43 613.51 694.20 588.66 694.66 550.01
  C 695.13 510.06 724.14 477.47 765.12 477.01
  Q 776.06 476.88 780.31 478.25
  C 790.56 481.56 793.57 494.07 795.41 504.02
  C 796.87 511.86 795.78 523.81 785.39 524.44
  Q 777.35 524.94 774.50 525.23
  C 761.48 526.59 744.54 537.30 750.23 552.76
  C 754.31 563.83 773.41 561.73 782.57 559.60
  C 799.61 555.62 803.53 581.72 802.88 592.77
  C 802.53 598.58 800.52 605.11 794.42 607.26
  Q 781.18 611.92 764.25 612.42
  Z
  M 734.24 605.79
  C 752.74 612.95 774.81 612.65 793.73 605.96
  C 807.62 601.05 801.17 566.66 789.99 561.23
  Q 787.39 559.96 785.50 560.44
  C 776.44 562.73 760.89 564.88 753.15 558.76
  C 747.23 554.09 746.21 545.51 749.42 539.01
  C 753.04 531.66 762.76 525.82 770.74 524.31
  Q 775.96 523.32 785.04 523.06
  C 797.65 522.70 794.51 504.22 792.37 496.99
  C 789.51 487.36 786.36 479.91 775.51 478.83
  C 732.17 474.52 699.59 503.28 696.39 546.01
  C 694.38 572.69 709.42 596.18 734.24 605.79
  Z"
/>
<path fill="#6d5845" d="
  M 935.70 522.53
  L 935.85 524.85
  Q 935.88 525.45 936.48 525.47
  Q 942.49 525.66 948.56 526.42
  C 954.01 527.11 954.02 529.83 955.27 534.18
  Q 958.19 544.37 956.66 554.84
  C 956.14 558.37 954.63 559.52 951.26 559.93
  Q 944.59 560.73 937.89 560.94
  A 0.54 0.54 0.0 0 0 937.36 561.48
  L 937.34 564.06
  Q 937.33 564.72 937.99 564.71
  Q 953.22 564.45 968.40 563.66
  C 970.90 563.53 973.33 563.83 975.75 564.16
  C 981.12 564.90 981.30 570.34 981.98 574.82
  Q 984.10 588.81 982.60 602.26
  C 982.07 607.01 975.83 608.41 972.27 608.91
  Q 933.39 614.41 894.24 611.35
  Q 891.79 611.16 888.18 609.46
  A 1.41 1.39 89.2 0 1 887.50 608.79
  Q 885.46 604.67 884.81 600.19
  Q 882.34 583.05 881.41 565.75
  Q 879.46 529.52 880.78 494.75
  C 881.01 488.81 881.96 480.30 888.73 479.58
  Q 917.92 476.49 947.25 477.13
  Q 958.32 477.38 969.24 479.04
  C 974.38 479.82 974.89 483.31 975.36 487.75
  Q 976.93 502.69 974.53 516.02
  C 973.91 519.47 966.06 520.51 963.38 520.67
  Q 949.79 521.48 936.18 522.00
  Q 935.67 522.02 935.70 522.53
  Z
  M 936.42 559.54
  Q 944.04 559.43 951.60 558.40
  C 953.72 558.11 954.96 557.08 955.26 555.00
  C 956.28 547.78 955.79 535.41 951.71 528.89
  Q 951.40 528.40 950.83 528.30
  Q 943.04 526.88 935.13 527.01
  Q 934.53 527.02 934.50 526.42
  L 934.17 521.09
  Q 934.14 520.53 934.71 520.52
  Q 952.04 520.21 966.76 518.81
  Q 969.67 518.53 972.60 516.63
  A 1.22 1.20 -11.9 0 0 973.14 515.82
  Q 975.34 503.60 974.02 489.00
  Q 973.64 484.85 972.61 482.16
  A 1.27 1.24 89.7 0 0 971.90 481.44
  Q 968.01 479.92 965.50 479.74
  Q 927.70 476.94 889.97 480.73
  Q 884.33 481.30 883.36 486.71
  C 882.99 488.78 882.42 491.07 882.33 493.12
  Q 880.37 539.51 884.50 585.75
  Q 885.29 594.69 887.03 603.50
  Q 887.51 605.94 888.91 608.09
  A 1.42 1.38 80.6 0 0 889.70 608.67
  Q 895.18 610.17 900.87 610.47
  Q 932.40 612.11 963.78 608.67
  Q 971.21 607.86 978.33 605.51
  Q 980.82 604.69 981.11 602.27
  Q 982.96 586.97 979.80 570.74
  C 979.32 568.26 978.86 566.49 976.12 565.79
  Q 972.70 564.92 969.49 565.06
  Q 949.57 565.95 936.51 566.20
  Q 935.96 566.21 935.95 565.66
  L 935.91 560.07
  Q 935.91 559.55 936.42 559.54
  Z"
/>
<path fill="#6d5845" d="
  M 1040.01 573.32
  Q 1038.81 587.19 1036.96 601.00
  C 1036.34 605.71 1035.70 610.39 1030.01 611.31
  Q 1013.55 613.97 997.97 610.80
  Q 992.24 609.63 991.29 603.53
  Q 989.71 593.45 989.06 583.25
  Q 986.67 545.90 988.13 508.50
  Q 988.71 493.67 990.42 483.74
  C 991.03 480.13 999.49 478.61 1003.48 478.20
  Q 1020.09 476.54 1036.28 480.44
  C 1039.34 481.17 1044.16 485.30 1046.69 488.18
  Q 1056.09 498.92 1064.25 510.65
  A 0.35 0.35 0.0 0 0 1064.89 510.44
  Q 1064.63 504.94 1064.12 489.73
  C 1063.85 482.00 1069.25 480.56 1076.04 479.03
  Q 1093.98 474.98 1111.77 479.47
  Q 1116.78 480.73 1117.13 485.97
  Q 1118.28 503.10 1118.48 520.22
  Q 1118.89 556.51 1116.97 592.75
  Q 1116.63 599.18 1115.73 605.54
  C 1115.27 608.84 1113.28 610.26 1110.26 610.83
  Q 1093.85 613.91 1078.74 611.20
  Q 1075.95 610.70 1073.04 608.22
  C 1061.02 597.96 1050.58 585.30 1040.49 573.17
  Q 1040.07 572.67 1040.01 573.32
  Z
  M 1039.44 569.32
  Q 1051.27 584.28 1064.47 598.01
  Q 1071.80 605.63 1073.27 606.64
  Q 1078.29 610.08 1085.47 610.53
  C 1091.29 610.89 1113.47 611.95 1114.28 606.01
  Q 1115.55 596.83 1116.13 582.00
  Q 1117.54 545.76 1116.73 509.50
  Q 1116.46 497.46 1115.36 485.43
  C 1115.15 483.07 1113.62 481.44 1111.52 480.88
  Q 1092.45 475.83 1072.73 481.36
  C 1065.01 483.52 1065.52 486.64 1065.77 494.35
  Q 1066.11 504.88 1066.33 515.43
  Q 1066.35 516.03 1066.00 515.54
  Q 1057.88 504.09 1049.07 493.16
  C 1044.49 487.49 1039.80 482.62 1033.51 481.25
  Q 1016.32 477.51 998.50 480.55
  Q 995.12 481.13 992.78 482.74
  A 2.37 2.34 76.9 0 0 991.77 484.38
  C 989.81 498.69 989.36 511.40 989.10 527.26
  Q 988.55 561.06 991.53 594.75
  Q 991.89 598.84 993.26 604.36
  C 994.05 607.56 995.52 608.84 998.63 609.41
  C 1008.30 611.19 1023.99 612.70 1032.88 608.67
  A 1.32 1.30 89.6 0 0 1033.54 607.99
  Q 1035.20 604.02 1035.57 601.26
  Q 1036.93 591.04 1038.89 569.49
  Q 1038.96 568.71 1039.44 569.32
  Z"
/>
<path fill="#6d5845" d="
  M 1231.85 587.75
  C 1232.43 594.83 1230.86 604.69 1223.17 607.34
  Q 1197.75 616.11 1172.25 610.24
  C 1144.77 603.91 1124.00 580.79 1123.63 552.01
  C 1123.04 506.09 1158.82 472.52 1204.28 477.41
  Q 1210.10 478.03 1213.24 480.24
  C 1221.92 486.35 1225.21 503.20 1224.82 512.49
  C 1224.58 518.00 1220.72 524.06 1214.68 524.43
  C 1205.21 525.00 1196.67 525.12 1188.52 530.52
  C 1182.47 534.51 1178.42 538.96 1178.06 546.24
  C 1177.17 564.51 1200.11 561.80 1211.01 559.66
  Q 1215.07 558.87 1217.11 559.31
  C 1228.22 561.74 1231.03 577.89 1231.85 587.75
  Z
  M 1143.30 593.21
  C 1164.18 612.63 1195.91 615.04 1222.26 606.14
  C 1228.13 604.15 1230.09 598.23 1230.32 592.42
  C 1230.70 583.06 1228.16 563.80 1217.31 560.85
  Q 1215.20 560.27 1211.76 561.05
  C 1201.07 563.46 1180.93 565.59 1177.20 551.31
  C 1173.26 536.23 1188.90 525.81 1201.77 524.01
  Q 1206.68 523.32 1214.07 523.05
  Q 1216.67 522.95 1218.30 521.78
  C 1227.66 515.10 1222.09 496.60 1217.89 487.87
  Q 1213.96 479.71 1204.89 478.83
  C 1170.72 475.49 1140.70 492.31 1129.41 525.35
  C 1120.97 550.04 1124.32 575.56 1143.30 593.21
  Z"
/>
<path fill="#6d5845" d="
  M 1292.93 525.41
  Q 1297.07 525.59 1306.19 526.61
  C 1308.67 526.89 1309.64 527.69 1310.54 530.10
  Q 1315.37 543.06 1312.91 556.77
  C 1312.15 561.01 1297.77 560.86 1294.45 560.92
  Q 1293.87 560.94 1293.87 561.52
  L 1293.88 564.19
  Q 1293.88 564.70 1294.39 564.69
  Q 1309.65 564.50 1324.87 563.62
  C 1326.54 563.52 1328.90 563.80 1330.94 563.92
  Q 1336.75 564.28 1337.83 570.75
  Q 1340.83 588.52 1338.92 603.77
  C 1337.76 613.09 1272.30 612.42 1262.50 612.09
  Q 1252.71 611.76 1246.10 610.20
  C 1240.67 608.91 1239.16 582.29 1238.79 577.25
  Q 1235.77 536.05 1237.35 494.78
  C 1237.49 491.09 1238.18 485.30 1240.35 482.24
  C 1242.13 479.73 1246.91 479.28 1249.74 479.03
  Q 1284.53 475.89 1319.38 478.07
  C 1323.82 478.35 1330.52 478.69 1331.43 484.29
  Q 1334.04 500.29 1330.93 516.74
  A 1.33 1.31 -12.3 0 1 1330.38 517.58
  Q 1326.62 520.13 1321.50 520.44
  Q 1299.89 521.76 1292.70 522.04
  Q 1292.20 522.06 1292.24 522.56
  L 1292.44 524.95
  Q 1292.48 525.39 1292.93 525.41
  Z
  M 1291.38 520.56
  Q 1305.96 520.16 1320.50 519.12
  C 1322.67 518.96 1329.25 518.12 1329.73 515.34
  Q 1332.44 499.69 1329.89 483.98
  C 1329.23 479.91 1321.33 479.64 1318.25 479.45
  Q 1282.32 477.19 1246.49 480.86
  C 1239.52 481.58 1239.07 489.05 1238.85 494.50
  Q 1237.08 537.99 1240.55 581.39
  Q 1241.55 593.86 1243.66 604.01
  Q 1244.06 605.92 1245.49 608.10
  A 1.39 1.37 81.0 0 0 1246.25 608.66
  Q 1251.77 610.17 1257.50 610.46
  Q 1285.16 611.87 1312.76 609.55
  Q 1323.13 608.68 1333.29 606.34
  Q 1337.53 605.37 1337.86 600.51
  Q 1338.80 586.34 1337.00 574.46
  C 1335.77 566.40 1334.82 564.91 1326.25 565.24
  Q 1309.60 565.89 1292.91 566.15
  Q 1292.43 566.15 1292.42 565.67
  L 1292.41 560.06
  Q 1292.41 559.53 1292.94 559.52
  Q 1300.63 559.44 1308.27 558.43
  Q 1311.32 558.02 1311.75 555.00
  Q 1313.48 542.97 1309.51 531.50
  C 1308.78 529.38 1308.41 528.41 1305.96 528.03
  Q 1298.88 526.94 1291.68 526.99
  Q 1291.09 526.99 1291.07 526.41
  L 1290.80 521.19
  Q 1290.77 520.57 1291.38 520.56
  Z"
/>
<path fill="#f0e1c0" d="
  M 854.39 610.52
  C 845.32 611.31 833.64 611.78 824.97 608.71
  A 1.43 1.38 83.9 0 1 824.24 608.10
  Q 822.19 604.48 821.50 601.26
  Q 818.25 586.04 816.27 568.02
  Q 812.23 531.37 811.65 494.50
  C 811.61 491.59 811.67 487.34 813.90 484.92
  Q 815.78 482.89 817.44 482.32
  Q 841.42 474.12 865.82 481.00
  Q 867.56 481.49 869.07 483.35
  Q 870.16 484.71 870.38 486.93
  Q 871.34 496.40 871.60 505.88
  Q 872.79 549.67 868.34 593.24
  Q 867.64 600.06 866.29 605.25
  C 865.24 609.27 858.61 610.16 854.39 610.52
  Z"
/>
<path fill="#f0e1c0" d="
  M 793.73 605.96
  C 774.81 612.65 752.74 612.95 734.24 605.79
  C 709.42 596.18 694.38 572.69 696.39 546.01
  C 699.59 503.28 732.17 474.52 775.51 478.83
  C 786.36 479.91 789.51 487.36 792.37 496.99
  C 794.51 504.22 797.65 522.70 785.04 523.06
  Q 775.96 523.32 770.74 524.31
  C 762.76 525.82 753.04 531.66 749.42 539.01
  C 746.21 545.51 747.23 554.09 753.15 558.76
  C 760.89 564.88 776.44 562.73 785.50 560.44
  Q 787.39 559.96 789.99 561.23
  C 801.17 566.66 807.62 601.05 793.73 605.96
  Z"
/>
<path fill="#f0e1c0" d="
  M 935.91 560.07
  L 935.95 565.66
  Q 935.96 566.21 936.51 566.20
  Q 949.57 565.95 969.49 565.06
  Q 972.70 564.92 976.12 565.79
  C 978.86 566.49 979.32 568.26 979.80 570.74
  Q 982.96 586.97 981.11 602.27
  Q 980.82 604.69 978.33 605.51
  Q 971.21 607.86 963.78 608.67
  Q 932.40 612.11 900.87 610.47
  Q 895.18 610.17 889.70 608.67
  A 1.42 1.38 80.6 0 1 888.91 608.09
  Q 887.51 605.94 887.03 603.50
  Q 885.29 594.69 884.50 585.75
  Q 880.37 539.51 882.33 493.12
  C 882.42 491.07 882.99 488.78 883.36 486.71
  Q 884.33 481.30 889.97 480.73
  Q 927.70 476.94 965.50 479.74
  Q 968.01 479.92 971.90 481.44
  A 1.27 1.24 89.7 0 1 972.61 482.16
  Q 973.64 484.85 974.02 489.00
  Q 975.34 503.60 973.14 515.82
  A 1.22 1.20 -11.9 0 1 972.60 516.63
  Q 969.67 518.53 966.76 518.81
  Q 952.04 520.21 934.71 520.52
  Q 934.14 520.53 934.17 521.09
  L 934.50 526.42
  Q 934.53 527.02 935.13 527.01
  Q 943.04 526.88 950.83 528.30
  Q 951.40 528.40 951.71 528.89
  C 955.79 535.41 956.28 547.78 955.26 555.00
  C 954.96 557.08 953.72 558.11 951.60 558.40
  Q 944.04 559.43 936.42 559.54
  Q 935.91 559.55 935.91 560.07
  Z"
/>
<path fill="#f0e1c0" d="
  M 1038.89 569.49
  Q 1036.93 591.04 1035.57 601.26
  Q 1035.20 604.02 1033.54 607.99
  A 1.32 1.30 89.6 0 1 1032.88 608.67
  C 1023.99 612.70 1008.30 611.19 998.63 609.41
  C 995.52 608.84 994.05 607.56 993.26 604.36
  Q 991.89 598.84 991.53 594.75
  Q 988.55 561.06 989.10 527.26
  C 989.36 511.40 989.81 498.69 991.77 484.38
  A 2.37 2.34 76.9 0 1 992.78 482.74
  Q 995.12 481.13 998.50 480.55
  Q 1016.32 477.51 1033.51 481.25
  C 1039.80 482.62 1044.49 487.49 1049.07 493.16
  Q 1057.88 504.09 1066.00 515.54
  Q 1066.35 516.03 1066.33 515.43
  Q 1066.11 504.88 1065.77 494.35
  C 1065.52 486.64 1065.01 483.52 1072.73 481.36
  Q 1092.45 475.83 1111.52 480.88
  C 1113.62 481.44 1115.15 483.07 1115.36 485.43
  Q 1116.46 497.46 1116.73 509.50
  Q 1117.54 545.76 1116.13 582.00
  Q 1115.55 596.83 1114.28 606.01
  C 1113.47 611.95 1091.29 610.89 1085.47 610.53
  Q 1078.29 610.08 1073.27 606.64
  Q 1071.80 605.63 1064.47 598.01
  Q 1051.27 584.28 1039.44 569.32
  Q 1038.96 568.71 1038.89 569.49
  Z"
/>
<path fill="#f0e1c0" d="
  M 1222.26 606.14
  C 1195.91 615.04 1164.18 612.63 1143.30 593.21
  C 1124.32 575.56 1120.97 550.04 1129.41 525.35
  C 1140.70 492.31 1170.72 475.49 1204.89 478.83
  Q 1213.96 479.71 1217.89 487.87
  C 1222.09 496.60 1227.66 515.10 1218.30 521.78
  Q 1216.67 522.95 1214.07 523.05
  Q 1206.68 523.32 1201.77 524.01
  C 1188.90 525.81 1173.26 536.23 1177.20 551.31
  C 1180.93 565.59 1201.07 563.46 1211.76 561.05
  Q 1215.20 560.27 1217.31 560.85
  C 1228.16 563.80 1230.70 583.06 1230.32 592.42
  C 1230.09 598.23 1228.13 604.15 1222.26 606.14
  Z"
/>
<path fill="#f0e1c0" d="
  M 1290.80 521.19
  L 1291.07 526.41
  Q 1291.09 526.99 1291.68 526.99
  Q 1298.88 526.94 1305.96 528.03
  C 1308.41 528.41 1308.78 529.38 1309.51 531.50
  Q 1313.48 542.97 1311.75 555.00
  Q 1311.32 558.02 1308.27 558.43
  Q 1300.63 559.44 1292.94 559.52
  Q 1292.41 559.53 1292.41 560.06
  L 1292.42 565.67
  Q 1292.43 566.15 1292.91 566.15
  Q 1309.60 565.89 1326.25 565.24
  C 1334.82 564.91 1335.77 566.40 1337.00 574.46
  Q 1338.80 586.34 1337.86 600.51
  Q 1337.53 605.37 1333.29 606.34
  Q 1323.13 608.68 1312.76 609.55
  Q 1285.16 611.87 1257.50 610.46
  Q 1251.77 610.17 1246.25 608.66
  A 1.39 1.37 81.0 0 1 1245.49 608.10
  Q 1244.06 605.92 1243.66 604.01
  Q 1241.55 593.86 1240.55 581.39
  Q 1237.08 537.99 1238.85 494.50
  C 1239.07 489.05 1239.52 481.58 1246.49 480.86
  Q 1282.32 477.19 1318.25 479.45
  C 1321.33 479.64 1329.23 479.91 1329.89 483.98
  Q 1332.44 499.69 1329.73 515.34
  C 1329.25 518.12 1322.67 518.96 1320.50 519.12
  Q 1305.96 520.16 1291.38 520.56
  Q 1290.77 520.57 1290.80 521.19
  Z"
/>
<path fill="#6d5845" d="
  M 1353.96 530.90
  L 1417.85 525.60
  A 0.34 0.34 0.0 0 1 1418.22 526.00
  L 1414.60 545.06
  A 0.34 0.34 0.0 0 1 1414.24 545.34
  L 1355.74 541.57
  A 0.34 0.34 0.0 0 1 1355.42 541.29
  L 1353.66 531.30
  A 0.34 0.34 0.0 0 1 1353.96 530.90
  Z
  M 1355.78 532.06
  A 0.53 0.53 0.0 0 0 1355.30 532.68
  L 1356.52 539.87
  A 0.53 0.53 0.0 0 0 1357.01 540.31
  L 1413.02 543.93
  A 0.53 0.53 0.0 0 0 1413.57 543.50
  L 1416.46 527.67
  A 0.53 0.53 0.0 0 0 1415.89 527.05
  L 1355.78 532.06
  Z"
/>
<path fill="#f8c059" d="
  M 1355.78 532.06
  L 1415.89 527.05
  A 0.53 0.53 0.0 0 1 1416.46 527.67
  L 1413.57 543.50
  A 0.53 0.53 0.0 0 1 1413.02 543.93
  L 1357.01 540.31
  A 0.53 0.53 0.0 0 1 1356.52 539.87
  L 1355.30 532.68
  A 0.53 0.53 0.0 0 1 1355.78 532.06
  Z"
/>
<path fill="#6d5845" d="
  M 1219.43 670.20
  C 1224.07 668.09 1224.20 661.00 1218.28 659.55
  C 1212.44 658.11 1204.38 656.86 1203.13 649.56
  C 1201.89 642.33 1208.57 636.94 1215.50 637.04
  Q 1222.92 637.15 1226.77 643.27
  Q 1227.09 643.79 1226.54 644.06
  L 1222.91 645.87
  Q 1222.48 646.09 1222.19 645.70
  C 1218.44 640.65 1208.96 640.84 1208.16 647.98
  C 1207.67 652.33 1216.29 653.67 1220.00 654.52
  C 1226.89 656.09 1230.02 664.08 1226.64 670.13
  C 1221.26 679.73 1206.94 677.56 1202.48 668.29
  Q 1202.24 667.77 1202.75 667.52
  L 1206.47 665.77
  Q 1206.92 665.56 1207.16 665.99
  Q 1211.57 673.78 1219.43 670.20
  Z"
/>
<path fill="#6d5845" d="
  M 617.80 667.64
  L 600.14 667.64
  A 0.33 0.33 0.0 0 0 599.84 667.85
  L 596.73 675.60
  A 0.33 0.33 0.0 0 1 596.43 675.81
  L 591.54 675.83
  A 0.33 0.33 0.0 0 1 591.24 675.37
  L 606.55 637.70
  A 0.33 0.33 0.0 0 1 606.85 637.49
  L 611.22 637.49
  A 0.33 0.33 0.0 0 1 611.52 637.70
  L 626.86 675.34
  A 0.33 0.33 0.0 0 1 626.55 675.79
  L 621.57 675.84
  A 0.33 0.33 0.0 0 1 621.27 675.63
  L 618.10 667.85
  A 0.33 0.33 0.0 0 0 617.80 667.64
  Z
  M 602.30 661.87
  A 0.34 0.34 0.0 0 0 602.61 662.33
  L 615.35 662.33
  A 0.34 0.34 0.0 0 0 615.66 661.87
  L 609.30 646.18
  A 0.34 0.34 0.0 0 0 608.66 646.18
  L 602.30 661.87
  Z"
/>
<path fill="#6d5845" d="
  M 681.51 663.23
  L 681.51 675.26
  Q 681.51 675.83 680.94 675.83
  L 676.82 675.81
  Q 676.33 675.81 676.33 675.32
  L 676.33 638.19
  Q 676.33 637.52 677.00 637.51
  C 681.51 637.45 687.66 637.18 691.04 637.63
  C 704.22 639.38 706.58 655.87 694.59 661.71
  Q 694.12 661.94 694.38 662.38
  L 701.82 675.22
  Q 702.16 675.81 701.48 675.81
  L 696.57 675.83
  Q 696.01 675.83 695.74 675.34
  L 688.87 663.19
  Q 688.60 662.71 688.05 662.71
  L 682.02 662.72
  Q 681.51 662.72 681.51 663.23
  Z
  M 681.49 643.03
  L 681.47 656.99
  A 0.53 0.53 0.0 0 0 682.00 657.52
  L 688.89 657.53
  A 8.34 7.34 0.1 0 0 697.24 650.20
  L 697.24 649.86
  A 8.34 7.34 0.1 0 0 688.91 642.51
  L 682.02 642.50
  A 0.53 0.53 0.0 0 0 681.49 643.03
  Z"
/>
<path fill="#6d5845" d="
  M 744.84 651.90
  C 751.87 649.10 761.00 650.90 761.29 660.00
  Q 761.53 667.65 761.54 675.28
  Q 761.54 675.83 760.99 675.83
  L 756.93 675.81
  Q 756.36 675.81 756.36 675.24
  Q 756.35 668.55 756.36 661.92
  C 756.36 656.48 754.16 655.83 749.43 655.76
  C 744.65 655.68 744.15 659.05 744.22 663.11
  Q 744.34 669.26 744.23 675.33
  Q 744.22 675.82 743.73 675.82
  L 739.70 675.82
  Q 739.09 675.82 739.09 675.20
  L 739.09 638.08
  Q 739.09 637.50 739.67 637.50
  L 743.75 637.50
  Q 744.26 637.50 744.26 638.00
  L 744.26 651.51
  Q 744.26 652.13 744.84 651.90
  Z"
/>
<path fill="#6d5845" d="
  M 853.74 656.27
  L 853.77 669.08
  A 0.84 0.83 -71.2 0 0 854.09 669.74
  Q 856.26 671.47 858.75 670.02
  Q 859.27 669.71 859.49 670.28
  L 861.03 674.18
  Q 861.20 674.61 860.78 674.78
  C 854.70 677.29 848.65 674.92 848.70 667.98
  Q 848.75 662.04 848.69 656.25
  Q 848.69 655.77 848.21 655.78
  L 845.50 655.79
  Q 844.96 655.79 844.96 655.25
  L 844.95 651.24
  Q 844.95 650.67 845.51 650.67
  L 848.15 650.66
  Q 848.71 650.66 848.71 650.09
  L 848.71 638.02
  Q 848.71 637.49 849.23 637.49
  L 853.25 637.50
  Q 853.75 637.50 853.75 638.00
  L 853.75 650.20
  A 0.45 0.45 0.0 0 0 854.20 650.65
  L 859.78 650.68
  Q 860.38 650.68 860.38 651.28
  L 860.36 655.22
  Q 860.36 655.79 859.78 655.79
  L 854.23 655.78
  Q 853.74 655.78 853.74 656.27
  Z"
/>
<path fill="#6d5845" d="
  M 914.91 648.91
  L 903.57 674.25
  A 3.21 3.20 45.0 0 1 897.72 674.25
  L 886.23 648.55
  A 0.15 0.15 0.0 0 0 885.95 648.61
  L 885.99 675.28
  Q 885.99 675.81 885.47 675.81
  L 881.05 675.82
  Q 880.53 675.82 880.53 675.30
  L 880.53 637.98
  Q 880.53 637.49 881.02 637.49
  L 886.32 637.50
  Q 886.91 637.50 887.14 638.03
  L 900.39 667.64
  A 0.28 0.28 0.0 0 0 900.91 667.64
  L 914.19 638.01
  Q 914.42 637.49 914.99 637.49
  L 920.24 637.50
  Q 920.74 637.50 920.74 637.99
  L 920.73 675.29
  A 0.53 0.52 90.0 0 1 920.21 675.82
  L 915.80 675.82
  Q 915.29 675.82 915.29 675.30
  L 915.28 648.99
  Q 915.28 648.10 914.91 648.91
  Z"
/>
<path fill="#6d5845" d="
  M 960.74 655.78
  L 957.99 655.79
  Q 957.45 655.79 957.45 655.24
  L 957.45 651.24
  Q 957.45 650.67 958.01 650.67
  L 960.81 650.65
  Q 961.26 650.65 961.26 650.19
  L 961.26 637.99
  Q 961.26 637.49 961.76 637.50
  L 965.78 637.50
  Q 966.31 637.50 966.31 638.03
  L 966.31 650.10
  Q 966.31 650.64 966.85 650.64
  L 972.27 650.68
  Q 972.85 650.68 972.85 651.27
  L 972.83 655.23
  Q 972.82 655.79 972.26 655.79
  L 966.76 655.78
  A 0.46 0.45 90.0 0 0 966.31 656.24
  L 966.31 668.68
  A 1.82 1.82 0.0 0 0 967.59 670.42
  Q 969.51 671.03 971.31 670.02
  A 0.51 0.51 0.0 0 1 972.04 670.27
  L 973.59 674.16
  Q 973.77 674.62 973.32 674.81
  C 969.48 676.46 964.31 676.13 962.19 672.28
  C 960.35 668.95 961.30 660.38 961.24 656.28
  Q 961.24 655.78 960.74 655.78
  Z"
/>
<path fill="#6d5845" d="
  M 985.11 651.90
  C 990.36 649.77 997.87 650.19 1000.65 655.70
  Q 1001.73 657.84 1001.72 662.96
  Q 1001.72 669.15 1001.71 675.35
  A 0.47 0.47 0.0 0 1 1001.24 675.82
  L 997.23 675.82
  Q 996.64 675.82 996.65 675.23
  Q 996.68 668.23 996.84 661.26
  C 997.00 653.99 984.59 653.65 984.56 660.60
  Q 984.53 667.94 984.53 675.28
  Q 984.53 675.83 983.99 675.82
  L 979.99 675.81
  Q 979.41 675.81 979.41 675.24
  L 979.41 638.04
  Q 979.41 637.49 979.96 637.49
  L 984.01 637.49
  Q 984.53 637.49 984.53 638.01
  L 984.54 651.51
  Q 984.54 652.13 985.11 651.90
  Z"
/>
<path fill="#6d5845" d="
  M 1116.22 655.77
  L 1113.53 655.81
  Q 1113.00 655.82 1113.00 655.28
  L 1112.99 651.02
  Q 1112.99 650.65 1113.36 650.65
  L 1116.15 650.68
  Q 1116.74 650.68 1116.74 650.10
  L 1116.74 638.00
  Q 1116.74 637.49 1117.25 637.49
  L 1121.45 637.50
  A 0.46 0.45 -0.0 0 1 1121.91 637.95
  L 1121.91 650.04
  Q 1121.91 650.66 1122.54 650.66
  L 1127.80 650.67
  Q 1128.43 650.67 1128.43 651.30
  L 1128.43 655.31
  Q 1128.43 655.79 1127.94 655.79
  L 1122.44 655.78
  A 0.53 0.53 0.0 0 0 1121.91 656.31
  L 1121.91 669.01
  A 1.22 1.22 0.0 0 0 1122.54 670.08
  Q 1124.63 671.27 1126.82 670.02
  Q 1127.32 669.74 1127.54 670.27
  L 1129.09 674.13
  Q 1129.28 674.62 1128.80 674.82
  C 1124.93 676.48 1119.77 676.11 1117.67 672.23
  C 1115.84 668.86 1116.78 660.49 1116.72 656.25
  Q 1116.71 655.76 1116.22 655.77
  Z"
/>
<circle fill="#6d5845" cx="1137.68" cy="640.82" r="3.36"/>
<circle fill="#6d5845" cx="1263.80" cy="640.82" r="3.35"/>
<path fill="#6d5845" d="
  M 725.82 673.96
  C 714.94 681.16 702.89 670.81 706.59 659.09
  C 709.08 651.23 719.01 647.28 725.73 652.95
  Q 726.22 653.37 726.21 652.72
  L 726.20 651.23
  Q 726.19 650.65 726.77 650.65
  L 730.76 650.68
  Q 731.33 650.68 731.33 651.26
  L 731.33 674.99
  Q 731.33 675.81 730.51 675.81
  L 726.73 675.82
  A 0.63 0.62 4.0 0 1 726.11 675.11
  L 726.24 674.22
  Q 726.32 673.63 725.82 673.96
  Z
  M 718.8803 671.2569
  A 7.89 7.51 88.4 0 0 726.1671 663.1603
  A 7.89 7.51 88.4 0 0 718.4397 655.4831
  A 7.89 7.51 88.4 0 0 711.1529 663.5797
  A 7.89 7.51 88.4 0 0 718.8803 671.2569
  Z"
/>
<path fill="#6d5845" d="
  M 834.84 673.81
  C 818.66 685.39 805.70 657.49 823.49 650.95
  Q 829.62 648.69 834.67 652.99
  Q 835.21 653.44 835.20 652.74
  L 835.18 651.24
  Q 835.17 650.65 835.76 650.65
  L 839.75 650.68
  Q 840.31 650.68 840.31 651.25
  L 840.31 675.25
  Q 840.31 675.82 839.75 675.82
  L 835.69 675.82
  Q 835.07 675.82 835.12 675.20
  L 835.23 674.03
  Q 835.27 673.50 834.84 673.81
  Z
  M 827.8954 671.2552
  A 7.89 7.52 88.0 0 0 835.1354 663.1076
  A 7.89 7.52 88.0 0 0 827.3446 655.4848
  A 7.89 7.52 88.0 0 0 820.1046 663.6324
  A 7.89 7.52 88.0 0 0 827.8954 671.2552
  Z"
/>
<path fill="#6d5845" d="
  M 947.73 652.69
  L 947.63 651.17
  Q 947.60 650.69 948.08 650.68
  L 952.44 650.67
  Q 952.96 650.67 952.96 651.19
  L 952.96 675.25
  Q 952.96 675.84 952.37 675.83
  L 948.20 675.81
  Q 947.59 675.80 947.61 675.19
  L 947.64 674.44
  Q 947.68 673.57 946.98 674.09
  Q 941.19 678.32 934.74 675.20
  C 918.89 667.53 931.60 641.90 947.37 652.89
  Q 947.76 653.16 947.73 652.69
  Z
  M 940.5066 671.2536
  A 7.89 7.51 87.7 0 0 947.6939 663.0686
  A 7.89 7.51 87.7 0 0 939.8734 655.4864
  A 7.89 7.51 87.7 0 0 932.6861 663.6714
  A 7.89 7.51 87.7 0 0 940.5066 671.2536
  Z"
/>
<path fill="#6d5845" d="
  M 1012.73 665.37
  C 1014.05 671.86 1021.78 673.68 1025.02 667.40
  A 0.62 0.61 26.1 0 1 1025.82 667.13
  L 1029.60 668.85
  Q 1030.08 669.07 1029.84 669.53
  C 1022.73 683.13 1005.81 675.08 1007.28 661.50
  C 1008.32 651.85 1019.91 646.19 1027.36 653.65
  Q 1031.69 658.00 1031.19 664.58
  Q 1031.15 665.01 1030.73 665.01
  L 1013.04 664.99
  Q 1012.66 664.99 1012.73 665.37
  Z
  M 1013.36 660.06
  L 1025.12 660.10
  A 0.13 0.13 0.0 0 0 1025.25 659.97
  L 1025.25 659.95
  A 5.88 4.41 0.2 0 0 1019.39 655.52
  L 1019.13 655.52
  A 5.88 4.41 0.2 0 0 1013.23 659.91
  L 1013.23 659.93
  A 0.13 0.13 0.0 0 0 1013.36 660.06
  Z"
/>
<path fill="#6d5845" d="
  M 1102.80 673.78
  C 1088.77 684.63 1074.07 661.27 1089.57 651.84
  Q 1096.26 647.76 1102.70 652.99
  Q 1103.24 653.43 1103.24 652.73
  L 1103.22 651.22
  Q 1103.21 650.65 1103.78 650.65
  L 1107.78 650.68
  Q 1108.38 650.68 1108.38 651.28
  L 1108.38 675.22
  Q 1108.38 675.82 1107.78 675.82
  L 1103.74 675.82
  Q 1103.16 675.82 1103.19 675.24
  L 1103.25 674.02
  Q 1103.29 673.41 1102.80 673.78
  Z
  M 1095.9138 671.2465
  A 7.88 7.51 88.3 0 0 1103.1867 663.1472
  A 7.88 7.51 88.3 0 0 1095.4462 655.4935
  A 7.88 7.51 88.3 0 0 1088.1733 663.5928
  A 7.88 7.51 88.3 0 0 1095.9138 671.2465
  Z"
/>
<path fill="#6d5845" d="
  M 1151.80 663.17
  C 1152.02 670.21 1160.38 674.69 1165.29 668.22
  Q 1165.66 667.73 1166.17 668.06
  L 1169.52 670.23
  A 0.54 0.53 33.8 0 1 1169.67 670.98
  C 1160.60 683.95 1141.98 672.30 1147.85 657.84
  C 1151.56 648.70 1163.91 647.83 1169.67 655.62
  Q 1169.99 656.04 1169.55 656.33
  L 1166.10 658.62
  A 0.68 0.67 -36.4 0 1 1165.22 658.49
  C 1160.36 652.70 1151.58 656.26 1151.80 663.17
  Z"
/>
<path fill="#6d5845" d="
  M 1250.69 668.36
  Q 1251.19 667.77 1251.84 668.19
  L 1254.97 670.26
  Q 1255.40 670.54 1255.10 670.97
  C 1245.62 684.39 1226.39 671.17 1233.62 657.13
  C 1238.01 648.60 1249.49 647.99 1255.13 655.64
  Q 1255.43 656.04 1255.01 656.32
  L 1251.46 658.66
  Q 1251.04 658.95 1250.73 658.54
  C 1244.31 649.99 1232.74 660.61 1239.02 668.36
  C 1242.18 672.25 1247.37 672.27 1250.69 668.36
  Z"
/>
<path fill="#6d5845" d="
  M 1277.74 665.63
  C 1279.40 671.93 1286.90 673.56 1290.16 667.38
  Q 1290.40 666.93 1290.87 667.14
  L 1294.61 668.83
  Q 1295.10 669.06 1294.86 669.54
  C 1291.09 676.92 1282.71 678.55 1276.66 673.61
  C 1269.47 667.74 1271.25 654.74 1280.01 651.04
  C 1288.85 647.30 1296.91 655.58 1296.14 664.63
  Q 1296.11 665.01 1295.73 665.01
  L 1278.23 664.99
  Q 1277.57 664.99 1277.74 665.63
  Z
  M 1290.24 659.62
  C 1287.90 654.15 1280.87 654.03 1278.40 659.52
  Q 1278.17 660.04 1278.73 660.04
  L 1289.96 660.04
  Q 1290.41 660.04 1290.24 659.62
  Z"
/>
<path fill="#6d5845" d="
  M 1336.58 660.06
  C 1333.16 668.36 1343.47 675.72 1349.40 668.18
  Q 1349.74 667.74 1350.20 668.05
  L 1353.54 670.25
  Q 1354.02 670.57 1353.68 671.04
  C 1347.75 679.12 1336.30 677.91 1331.91 669.00
  C 1328.95 663.01 1331.31 655.79 1336.98 652.25
  Q 1345.67 646.80 1353.82 655.50
  Q 1354.20 655.91 1353.73 656.23
  L 1350.24 658.56
  A 0.76 0.75 -37.2 0 1 1349.26 658.43
  C 1345.29 653.90 1338.78 654.74 1336.58 660.06
  Z"
/>
<path fill="#6d5845" d="
  M 1362.86 665.46
  C 1364.09 671.87 1371.95 673.64 1375.12 667.38
  A 0.58 0.58 0.0 0 1 1375.88 667.11
  L 1379.66 668.82
  Q 1380.13 669.03 1379.90 669.50
  C 1372.99 683.57 1354.73 674.61 1357.60 660.25
  C 1359.45 650.98 1370.92 646.56 1377.79 653.97
  Q 1381.80 658.31 1381.30 664.50
  Q 1381.26 665.01 1380.75 665.01
  L 1363.25 664.99
  Q 1362.78 664.99 1362.86 665.46
  Z
  M 1375.29 659.58
  C 1372.94 654.10 1365.91 654.11 1363.45 659.58
  Q 1363.24 660.04 1363.74 660.04
  L 1374.99 660.04
  Q 1375.48 660.04 1375.29 659.58
  Z"
/>
<path fill="#6d5845" d="
  M 637.46 652.20
  Q 642.59 648.93 648.16 651.85
  Q 648.58 652.07 648.48 652.53
  L 647.51 656.98
  A 0.37 0.37 0.0 0 1 646.94 657.21
  Q 643.52 654.91 640.17 656.26
  C 637.04 657.51 636.66 660.45 636.65 663.50
  Q 636.64 669.37 636.60 675.23
  Q 636.60 675.82 636.01 675.82
  L 632.06 675.82
  Q 631.55 675.82 631.55 675.31
  L 631.55 651.47
  Q 631.55 651.00 632.03 651.00
  L 635.99 650.99
  Q 636.50 650.99 636.60 651.49
  L 636.66 651.85
  Q 636.81 652.62 637.46 652.20
  Z"
/>
<rect fill="#6d5845" x="1261.22" y="650.67" width="5.12" height="25.16" rx="0.30"/>
<path fill="#6d5845" d="
  M 774.90 651.98
  Q 782.24 648.72 788.62 653.24
  Q 788.99 653.50 789.36 653.23
  Q 793.63 650.09 799.74 650.82
  C 806.58 651.64 808.69 655.33 808.73 662.01
  Q 808.76 668.68 808.72 675.34
  A 0.48 0.48 0.0 0 1 808.24 675.82
  L 804.25 675.82
  Q 803.73 675.82 803.73 675.30
  Q 803.64 668.38 803.71 661.48
  Q 803.76 655.89 797.50 655.87
  C 792.61 655.85 791.49 657.65 791.53 662.40
  Q 791.58 668.86 791.54 675.28
  Q 791.54 675.82 790.99 675.82
  L 787.01 675.81
  Q 786.46 675.81 786.45 675.26
  Q 786.40 667.61 786.46 660.00
  C 786.50 654.54 774.47 653.85 774.39 660.25
  Q 774.29 667.77 774.28 675.30
  Q 774.27 675.82 773.75 675.82
  L 769.75 675.81
  Q 769.18 675.81 769.18 675.25
  L 769.18 651.47
  Q 769.18 650.87 769.78 650.88
  L 773.64 650.90
  A 0.67 0.66 -8.7 0 1 774.26 651.35
  L 774.39 651.76
  Q 774.52 652.15 774.90 651.98
  Z"
/>
<path fill="#6d5845" d="
  M 1042.97 651.97
  Q 1050.19 648.77 1056.62 653.16
  Q 1057.05 653.46 1057.48 653.16
  C 1062.55 649.70 1072.09 649.18 1075.61 655.38
  Q 1076.75 657.39 1076.76 661.85
  Q 1076.77 668.57 1076.75 675.30
  Q 1076.75 675.82 1076.23 675.82
  L 1072.26 675.82
  Q 1071.75 675.82 1071.74 675.31
  Q 1071.70 667.51 1071.74 659.75
  C 1071.77 654.71 1062.73 654.84 1060.02 658.17
  A 1.71 1.69 -25.8 0 0 1059.64 659.24
  L 1059.62 675.22
  Q 1059.62 675.81 1059.03 675.82
  L 1055.04 675.82
  Q 1054.55 675.82 1054.55 675.33
  Q 1054.60 667.39 1054.50 659.50
  C 1054.44 654.86 1042.38 653.65 1042.40 660.52
  Q 1042.42 667.89 1042.34 675.25
  Q 1042.33 675.82 1041.76 675.82
  L 1037.77 675.81
  Q 1037.22 675.81 1037.22 675.27
  L 1037.22 651.45
  Q 1037.22 650.87 1037.80 650.87
  L 1041.66 650.91
  Q 1042.17 650.91 1042.34 651.40
  L 1042.47 651.76
  Q 1042.60 652.14 1042.97 651.97
  Z"
/>
<rect fill="#6d5845" x="1135.07" y="650.68" width="5.18" height="25.14" rx="0.27"/>
<path fill="#6d5845" d="
  M 1307.96 651.97
  C 1314.91 648.80 1324.45 651.17 1324.57 660.25
  Q 1324.67 667.79 1324.68 675.34
  Q 1324.68 675.82 1324.20 675.82
  L 1320.05 675.82
  Q 1319.58 675.82 1319.58 675.35
  Q 1319.63 668.02 1319.62 660.75
  C 1319.62 654.03 1307.59 653.84 1307.47 660.49
  Q 1307.33 667.92 1307.42 675.36
  Q 1307.43 675.83 1306.96 675.83
  L 1302.77 675.81
  Q 1302.24 675.81 1302.24 675.27
  L 1302.24 651.44
  Q 1302.24 650.86 1302.81 650.87
  L 1306.74 650.91
  Q 1307.23 650.91 1307.37 651.38
  L 1307.48 651.76
  Q 1307.60 652.14 1307.96 651.97
  Z"
/>
<rect fill="#6d5845" x="651.36" y="659.79" width="18.60" height="5.22" rx="0.44"/>
<path fill="#6d5845" d="
  M 1177.23 675.63
  C 1171.97 672.43 1179.29 665.91 1181.89 671.18
  C 1183.85 675.18 1179.09 680.74 1175.95 682.70
  Q 1175.51 682.98 1175.19 682.57
  L 1174.53 681.75
  Q 1174.16 681.28 1174.61 680.89
  Q 1176.70 679.07 1177.55 676.47
  Q 1177.72 675.92 1177.23 675.63
  Z"
/>
<path fill="#6d5845" d="
  M 1389.30 675.86
  C 1381.94 670.77 1395.28 665.38 1393.99 673.56
  Q 1393.06 679.49 1387.76 682.67
  Q 1387.32 682.94 1387.00 682.53
  L 1386.47 681.87
  Q 1386.22 681.56 1386.45 681.23
  L 1389.48 676.84
  A 0.71 0.71 0.0 0 0 1389.30 675.86
  Z"
/>
<path fill="#6d5845" d="
  M 704.79 713.51
  C 706.23 717.52 717.00 718.01 720.53 720.62
  C 728.42 726.46 723.92 737.78 715.15 739.89
  Q 704.71 742.40 698.78 732.41
  A 0.51 0.51 0.0 0 1 699.00 731.69
  L 702.87 729.87
  Q 703.36 729.64 703.60 730.12
  Q 705.59 734.02 709.48 735.01
  C 717.85 737.13 724.61 726.18 713.71 723.39
  C 707.97 721.92 700.84 720.67 699.54 713.62
  Q 698.70 709.08 701.67 705.70
  C 707.54 699.02 718.57 699.68 723.21 707.42
  Q 723.50 707.90 723.00 708.15
  L 719.44 709.91
  Q 718.98 710.13 718.65 709.75
  Q 713.43 703.73 707.11 707.82
  C 705.29 708.99 704.08 711.55 704.79 713.51
  Z"
/>
<path fill="#6d5845" d="
  M 674.69 716.74
  L 674.68 702.18
  Q 674.68 701.55 675.32 701.55
  L 679.14 701.55
  A 0.59 0.59 0.0 0 1 679.73 702.14
  L 679.72 739.23
  Q 679.72 739.94 679.02 739.94
  L 675.24 739.94
  Q 674.52 739.95 674.60 739.23
  L 674.71 738.25
  A 0.35 0.35 0.0 0 0 674.15 737.93
  Q 667.74 742.79 661.34 739.16
  C 645.46 730.13 659.67 706.14 674.19 716.99
  Q 674.69 717.37 674.69 716.74
  Z
  M 667.6376 735.3667
  A 7.92 7.45 85.6 0 0 674.4580 726.8984
  A 7.92 7.45 85.6 0 0 666.4224 719.5733
  A 7.92 7.45 85.6 0 0 659.6020 728.0416
  A 7.92 7.45 85.6 0 0 667.6376 735.3667
  Z"
/>
<circle fill="#6d5845" cx="790.23" cy="704.91" r="3.36"/>
<rect fill="#6d5845" x="832.42" y="701.59" width="5.12" height="38.36" rx="0.36"/>
<path fill="#6d5845" d="
  M 875.7769 739.8799
  A 19.17 18.45 89.8 0 1 857.2601 720.7744
  A 19.17 18.45 89.8 0 1 875.6431 701.5401
  A 19.17 18.45 89.8 0 1 894.1599 720.6456
  A 19.17 18.45 89.8 0 1 875.7769 739.8799
  Z
  M 875.7100 734.7000
  A 13.99 13.26 90.0 0 0 888.9700 720.7100
  A 13.99 13.26 90.0 0 0 875.7100 706.7200
  A 13.99 13.26 90.0 0 0 862.4500 720.7100
  A 13.99 13.26 90.0 0 0 875.7100 734.7000
  Z"
/>
<rect fill="#6d5845" x="900.32" y="701.55" width="5.18" height="38.40" rx="0.39"/>
<circle fill="#6d5845" cx="1024.45" cy="704.91" r="3.36"/>
<path fill="#6d5845" d="
  M 1085.01 737.99
  C 1069.89 749.02 1056.02 723.26 1072.90 715.41
  Q 1078.89 712.62 1085.05 716.96
  Q 1085.49 717.27 1085.49 716.74
  L 1085.48 702.03
  Q 1085.48 701.54 1085.97 701.54
  L 1090.03 701.55
  Q 1090.51 701.55 1090.51 702.03
  L 1090.51 739.47
  Q 1090.51 739.96 1090.03 739.95
  L 1086.05 739.94
  Q 1085.41 739.93 1085.44 739.30
  L 1085.50 738.25
  Q 1085.53 737.61 1085.01 737.99
  Z
  M 1078.4438 735.3677
  A 7.92 7.45 85.7 0 0 1085.2790 726.9114
  A 7.92 7.45 85.7 0 0 1077.2562 719.5723
  A 7.92 7.45 85.7 0 0 1070.4210 728.0286
  A 7.92 7.45 85.7 0 0 1078.4438 735.3677
  Z"
/>
<path fill="#6d5845" d="
  M 612.89 716.71
  L 612.83 715.21
  Q 612.81 714.74 613.29 714.74
  L 617.51 714.74
  Q 618.03 714.74 618.03 715.26
  L 618.03 739.33
  Q 618.03 739.94 617.42 739.94
  L 613.50 739.94
  A 0.67 0.67 0.0 0 1 612.83 739.25
  L 612.85 738.27
  Q 612.86 737.54 612.28 737.99
  Q 606.06 742.76 599.59 739.15
  C 583.94 730.42 597.30 706.30 612.44 716.95
  Q 612.91 717.28 612.89 716.71
  Z
  M 605.5028 735.3376
  A 7.89 7.51 88.6 0 0 612.8178 727.2665
  A 7.89 7.51 88.6 0 0 605.1172 719.5624
  A 7.89 7.51 88.6 0 0 597.8022 727.6335
  A 7.89 7.51 88.6 0 0 605.5028 735.3376
  Z"
/>
<path fill="#6d5845" d="
  M 741.3815 740.5397
  A 13.10 12.71 89.6 0 1 728.5803 727.5287
  A 13.10 12.71 89.6 0 1 741.1985 714.3403
  A 13.10 12.71 89.6 0 1 753.9997 727.3513
  A 13.10 12.71 89.6 0 1 741.3815 740.5397
  Z
  M 741.1561 735.3390
  A 7.89 7.53 90.9 0 0 748.8091 727.5683
  A 7.89 7.53 90.9 0 0 741.4039 719.5610
  A 7.89 7.53 90.9 0 0 733.7509 727.3317
  A 7.89 7.53 90.9 0 0 741.1561 735.3390
  Z"
/>
<path fill="#6d5845" d="
  M 777.14 722.58
  C 774.14 718.68 768.76 718.53 765.77 722.07
  C 758.93 730.14 770.55 740.87 777.18 732.20
  Q 777.50 731.78 777.95 732.07
  L 781.42 734.33
  Q 781.86 734.62 781.55 735.05
  C 775.75 743.14 764.27 742.07 759.84 733.22
  C 753.03 719.63 772.07 706.55 781.52 719.76
  Q 781.81 720.16 781.40 720.43
  L 777.95 722.71
  Q 777.49 723.02 777.14 722.58
  Z"
/>
<path fill="#6d5845" d="
  M 819.14 738.09
  Q 813.11 742.04 807.43 739.69
  C 795.80 734.89 796.96 717.04 809.60 714.53
  Q 814.50 713.56 818.95 716.85
  Q 819.51 717.26 819.49 716.57
  L 819.47 715.27
  Q 819.46 714.74 819.99 714.74
  L 824.25 714.73
  Q 824.76 714.73 824.76 715.25
  L 824.76 739.34
  Q 824.76 739.94 824.16 739.94
  L 820.07 739.94
  Q 819.44 739.95 819.46 739.32
  L 819.50 738.29
  Q 819.51 737.85 819.14 738.09
  Z
  M 812.3329 735.3342
  A 7.89 7.51 87.8 0 0 819.5345 727.1617
  A 7.89 7.51 87.8 0 0 811.7271 719.5658
  A 7.89 7.51 87.8 0 0 804.5255 727.7383
  A 7.89 7.51 87.8 0 0 812.3329 735.3342
  Z"
/>
<path fill="#6d5845" d="
  M 1053.76 716.71
  L 1053.73 715.26
  Q 1053.72 714.74 1054.24 714.74
  L 1058.45 714.74
  Q 1058.92 714.74 1058.92 715.20
  L 1058.91 739.39
  Q 1058.91 739.95 1058.36 739.95
  L 1054.32 739.94
  Q 1053.70 739.94 1053.72 739.32
  L 1053.74 738.43
  Q 1053.76 737.72 1053.17 738.13
  C 1042.64 745.64 1030.14 734.25 1034.37 723.04
  C 1037.48 714.78 1045.80 711.77 1053.38 716.92
  Q 1053.77 717.19 1053.76 716.71
  Z
  M 1046.4641 735.3465
  A 7.89 7.51 88.3 0 0 1053.7367 727.2372
  A 7.89 7.51 88.3 0 0 1045.9959 719.5735
  A 7.89 7.51 88.3 0 0 1038.7233 727.6828
  A 7.89 7.51 88.3 0 0 1046.4641 735.3465
  Z"
/>
<path fill="#6d5845" d="
  M 995.04 738.25
  L 995.05 750.55
  Q 995.05 751.14 994.45 751.14
  L 990.53 751.15
  Q 989.91 751.15 989.91 750.53
  L 989.91 715.39
  Q 989.91 714.81 990.49 714.81
  L 994.45 714.83
  Q 995.07 714.83 995.05 715.45
  L 995.02 716.48
  Q 995.00 717.17 995.57 716.78
  Q 1000.72 713.29 1005.94 714.84
  C 1017.97 718.39 1018.32 735.38 1007.01 739.73
  Q 1000.88 742.09 995.65 737.95
  Q 995.04 737.47 995.04 738.25
  Z
  M 1002.4321 735.3688
  A 7.90 7.55 91.0 0 0 1010.1189 727.6018
  A 7.90 7.55 91.0 0 0 1002.7079 719.5712
  A 7.90 7.55 91.0 0 0 995.0211 727.3382
  A 7.90 7.55 91.0 0 0 1002.4321 735.3688
  Z"
/>
<path fill="#6d5845" d="
  M 631.80 715.95
  C 636.97 713.65 644.89 714.50 647.31 720.31
  Q 648.08 722.15 648.07 726.76
  Q 648.06 733.09 648.05 739.41
  Q 648.05 739.95 647.51 739.95
  L 643.51 739.94
  Q 643.02 739.94 643.02 739.45
  Q 643.01 732.36 642.99 725.31
  C 642.98 721.90 642.04 720.68 638.77 720.10
  Q 633.94 719.24 631.38 722.01
  A 1.50 1.49 66.6 0 0 630.98 723.03
  L 630.95 739.50
  Q 630.95 739.95 630.50 739.95
  L 626.35 739.94
  Q 625.76 739.94 625.76 739.35
  L 625.76 715.48
  Q 625.76 714.97 626.27 714.96
  L 630.09 714.95
  Q 630.66 714.95 630.92 715.45
  L 631.04 715.69
  Q 631.29 716.18 631.80 715.95
  Z"
/>
<rect fill="#6d5845" x="787.63" y="714.74" width="5.14" height="25.20" rx="0.32"/>
<path fill="#6d5845" d="
  M 924.27 732.74
  L 931.92 715.32
  Q 932.18 714.73 932.82 714.73
  L 937.24 714.73
  Q 937.84 714.73 937.60 715.29
  L 922.14 750.60
  Q 921.90 751.15 921.31 751.15
  L 916.84 751.16
  Q 916.21 751.16 916.46 750.58
  L 921.01 740.31
  Q 921.23 739.81 921.01 739.31
  L 910.43 715.26
  Q 910.19 714.74 910.77 714.74
  L 915.69 714.73
  Q 916.13 714.73 916.30 715.14
  L 923.77 732.74
  Q 924.02 733.32 924.27 732.74
  Z"
/>
<path fill="#6d5845" d="
  M 962.77 717.32
  Q 968.50 713.25 975.50 715.34
  C 981.16 717.03 982.14 720.90 982.15 726.63
  Q 982.15 733.07 982.14 739.51
  Q 982.14 739.96 981.69 739.96
  L 977.53 739.92
  Q 976.98 739.92 976.98 739.36
  Q 976.98 731.28 976.96 723.26
  Q 976.96 721.09 974.09 720.16
  Q 968.64 718.37 965.35 722.29
  A 1.45 1.42 65.5 0 0 965.01 723.22
  L 965.00 739.22
  Q 965.00 739.94 964.28 739.94
  L 960.30 739.94
  Q 959.84 739.94 959.84 739.49
  Q 959.78 731.72 959.83 724.00
  C 959.86 718.72 947.86 717.80 947.79 724.49
  Q 947.72 731.94 947.76 739.39
  Q 947.77 739.94 947.21 739.94
  L 943.13 739.94
  Q 942.56 739.94 942.56 739.38
  L 942.56 715.45
  Q 942.56 714.97 943.05 714.96
  L 947.15 714.95
  Q 947.63 714.95 947.75 715.41
  Q 947.79 715.58 947.84 715.76
  Q 947.97 716.20 948.39 716.02
  Q 955.70 712.84 962.00 717.32
  Q 962.39 717.59 962.77 717.32
  Z"
/>
<rect fill="#6d5845" x="1021.87" y="714.74" width="5.16" height="25.20" rx="0.29"/>
</svg>
