<?xml version="1.0" encoding="UTF-8" standalone="no"?>
<!DOCTYPE svg PUBLIC "-//W3C//DTD SVG 1.1//EN" "http://www.w3.org/Graphics/SVG/1.1/DTD/svg11.dtd">
<svg xmlns="http://www.w3.org/2000/svg" version="1.1" viewBox="0.00 0.00 1307.00 635.00">
<g stroke-width="2.00" fill="none" stroke-linecap="butt">
<path stroke="#af9d83" vector-effect="non-scaling-stroke" d="
  M 122.03 256.50
  C 96.26 337.91 151.99 423.73 237.53 432.82
  Q 244.33 433.55 257.50 433.55
  Q 634.00 433.64 1010.50 433.55
  Q 1023.42 433.55 1030.46 432.74
  C 1087.98 426.19 1136.00 383.66 1148.36 326.74
  C 1165.94 245.78 1108.31 168.08 1025.74 161.70
  Q 1020.03 161.26 1005.75 161.25
  Q 631.92 161.24 258.10 161.26
  Q 244.97 161.26 238.12 161.97
  C 183.92 167.57 138.30 205.09 122.03 256.50"
/>
<path stroke="#af9d83" vector-effect="non-scaling-stroke" d="
  M 289.99 236.94
  L 289.99 356.84
  A 0.50 0.50 0.0 0 0 290.49 357.34
  L 321.71 357.34
  A 60.38 60.37 0.0 0 0 382.09 296.97
  L 382.09 296.81
  A 60.38 60.37 0.0 0 0 321.71 236.44
  L 290.49 236.44
  A 0.50 0.50 0.0 0 0 289.99 236.94"
/>
<path stroke="#af9d83" vector-effect="non-scaling-stroke" d="
  M 420.04 331.69
  A 0.31 0.31 0.0 0 1 420.33 331.50
  L 477.07 331.50
  A 0.31 0.31 0.0 0 1 477.36 331.69
  L 487.69 357.06
  A 0.31 0.31 0.0 0 0 487.98 357.25
  L 505.20 357.25
  A 0.31 0.31 0.0 0 0 505.49 356.82
  L 456.55 236.69
  A 0.31 0.31 0.0 0 0 456.26 236.50
  L 441.55 236.50
  A 0.31 0.31 0.0 0 0 441.26 236.69
  L 392.42 356.82
  A 0.31 0.31 0.0 0 0 392.71 357.25
  L 409.55 357.25
  A 0.31 0.31 0.0 0 0 409.84 357.06
  L 420.04 331.69"
/>
<path stroke="#af9d83" vector-effect="non-scaling-stroke" d="
  M 537.75 305.31
  A 0.31 0.31 0.0 0 1 538.06 305.00
  L 577.19 305.00
  A 0.31 0.31 0.0 0 0 577.50 304.69
  L 577.50 289.06
  A 0.31 0.31 0.0 0 0 577.19 288.75
  L 538.06 288.75
  A 0.31 0.31 0.0 0 1 537.75 288.44
  L 537.75 252.81
  A 0.31 0.31 0.0 0 1 538.06 252.50
  L 586.44 252.50
  A 0.31 0.31 0.0 0 0 586.75 252.19
  L 586.75 236.81
  A 0.31 0.31 0.0 0 0 586.44 236.50
  L 522.06 236.50
  A 0.31 0.31 0.0 0 0 521.75 236.81
  L 521.75 356.94
  A 0.31 0.31 0.0 0 0 522.06 357.25
  L 537.44 357.25
  A 0.31 0.31 0.0 0 0 537.75 356.94
  L 537.75 305.31"
/>
<path stroke="#af9d83" vector-effect="non-scaling-stroke" d="
  M 640.00 252.82
  A 0.32 0.32 0.0 0 1 640.32 252.50
  L 671.68 252.50
  A 0.32 0.32 0.0 0 0 672.00 252.18
  L 672.00 236.82
  A 0.32 0.32 0.0 0 0 671.68 236.50
  L 592.07 236.50
  A 0.32 0.32 0.0 0 0 591.75 236.82
  L 591.75 252.18
  A 0.32 0.32 0.0 0 0 592.07 252.50
  L 623.43 252.50
  A 0.32 0.32 0.0 0 1 623.75 252.82
  L 623.75 356.93
  A 0.32 0.32 0.0 0 0 624.07 357.25
  L 639.68 357.25
  A 0.32 0.32 0.0 0 0 640.00 356.93
  L 640.00 252.82"
/>
<path stroke="#af9d83" vector-effect="non-scaling-stroke" d="
  M 760.52 331.50
  A 0.32 0.32 0.0 0 1 760.82 331.70
  L 771.16 357.05
  A 0.32 0.32 0.0 0 0 771.46 357.25
  L 788.65 357.25
  A 0.32 0.32 0.0 0 0 788.95 356.81
  L 740.02 236.70
  A 0.32 0.32 0.0 0 0 739.72 236.50
  L 725.02 236.50
  A 0.32 0.32 0.0 0 0 724.72 236.70
  L 675.90 356.81
  A 0.32 0.32 0.0 0 0 676.20 357.25
  L 693.01 357.25
  A 0.32 0.32 0.0 0 0 693.31 357.05
  L 703.49 331.70
  A 0.32 0.32 0.0 0 1 703.79 331.50
  L 760.52 331.50"
/>
<path stroke="#af9d83" vector-effect="non-scaling-stroke" d="
  M 821.75 316.00
  L 843.03 316.00
  Q 843.67 316.00 843.99 316.56
  L 866.67 356.72
  Q 866.97 357.25 867.58 357.25
  L 885.50 357.25
  A 0.45 0.45 0.0 0 0 885.89 356.58
  L 861.25 314.04
  Q 860.91 313.45 861.54 313.18
  C 875.62 307.10 885.54 295.18 887.07 279.76
  C 888.94 260.85 875.97 243.15 857.58 238.04
  Q 852.16 236.54 840.73 236.50
  Q 823.16 236.45 805.49 236.52
  Q 805.00 236.52 805.00 237.01
  L 805.00 357.00
  Q 805.00 357.25 805.25 357.25
  L 820.75 357.25
  Q 821.25 357.25 821.25 356.75
  L 821.25 316.50
  Q 821.25 316.00 821.75 316.00"
/>
<path stroke="#af9d83" vector-effect="non-scaling-stroke" d="
  M 957.09 331.87
  A 0.39 0.39 0.0 0 0 957.48 332.25
  L 972.98 332.25
  A 0.39 0.39 0.0 0 0 973.37 331.87
  L 975.80 236.90
  A 0.39 0.39 0.0 0 0 975.41 236.50
  L 955.05 236.50
  A 0.39 0.39 0.0 0 0 954.66 236.90
  L 957.09 331.87"
/>
<path stroke="#af9d83" vector-effect="non-scaling-stroke" d="
  M 975.8317 347.9534
  A 10.63 10.50 6.5 0 0 966.4586 336.3175
  A 10.63 10.50 6.5 0 0 954.7083 345.5466
  A 10.63 10.50 6.5 0 0 964.0814 357.1825
  A 10.63 10.50 6.5 0 0 975.8317 347.9534"
/>
<path stroke="#af9d83" vector-effect="non-scaling-stroke" d="
  M 306.07 253.25
  L 305.91 340.69
  A 0.63 0.63 0.0 0 0 306.54 341.32
  L 320.66 341.34
  A 45.25 44.22 0.1 0 0 365.99 297.20
  L 365.99 296.94
  A 45.25 44.22 0.1 0 0 320.82 252.64
  L 306.70 252.62
  A 0.63 0.63 0.0 0 0 306.07 253.25"
/>
<path stroke="#af9d83" vector-effect="non-scaling-stroke" d="
  M 427.04 314.53
  A 0.32 0.32 0.0 0 0 427.33 314.97
  L 470.02 315.04
  A 0.32 0.32 0.0 0 0 470.32 314.60
  L 449.07 261.99
  A 0.32 0.32 0.0 0 0 448.47 261.99
  L 427.04 314.53"
/>
<path stroke="#af9d83" vector-effect="non-scaling-stroke" d="
  M 710.55 314.55
  A 0.33 0.33 0.0 0 0 710.86 315.00
  L 753.52 315.00
  A 0.33 0.33 0.0 0 0 753.83 314.55
  L 732.50 261.99
  A 0.33 0.33 0.0 0 0 731.88 261.99
  L 710.55 314.55"
/>
<path stroke="#af9d83" vector-effect="non-scaling-stroke" d="
  M 821.33 252.83
  L 821.17 299.39
  A 0.37 0.37 0.0 0 0 821.54 299.76
  L 845.07 299.85
  A 25.86 23.54 0.2 0 0 871.01 276.40
  L 871.01 276.18
  A 25.86 23.54 0.2 0 0 845.23 252.55
  L 821.70 252.46
  A 0.37 0.37 0.0 0 0 821.33 252.83"
/>
</g>
<path fill="#f0e1c1" d="
  M 1148.29 255.13
  C 1174.67 338.49 1118.86 425.41 1031.85 435.86
  Q 1024.53 436.74 1011.89 436.74
  Q 634.44 436.77 257.00 436.76
  Q 244.25 436.75 237.04 435.96
  Q 185.49 430.24 150.08 392.66
  C 111.19 351.38 101.56 289.39 125.76 237.99
  C 146.48 193.99 189.19 163.61 238.02 158.69
  Q 244.80 158.01 258.00 158.01
  Q 632.38 158.00 1006.75 157.99
  Q 1020.23 157.99 1026.73 158.55
  C 1083.10 163.42 1131.14 200.95 1148.29 255.13
  Z
  M 122.03 256.50
  C 96.26 337.91 151.99 423.73 237.53 432.82
  Q 244.33 433.55 257.50 433.55
  Q 634.00 433.64 1010.50 433.55
  Q 1023.42 433.55 1030.46 432.74
  C 1087.98 426.19 1136.00 383.66 1148.36 326.74
  C 1165.94 245.78 1108.31 168.08 1025.74 161.70
  Q 1020.03 161.26 1005.75 161.25
  Q 631.92 161.24 258.10 161.26
  Q 244.97 161.26 238.12 161.97
  C 183.92 167.57 138.30 205.09 122.03 256.50
  Z"
/>
<path fill="#6d5845" d="
  M 237.53 432.82
  C 151.99 423.73 96.26 337.91 122.03 256.50
  C 138.30 205.09 183.92 167.57 238.12 161.97
  Q 244.97 161.26 258.10 161.26
  Q 631.92 161.24 1005.75 161.25
  Q 1020.03 161.26 1025.74 161.70
  C 1108.31 168.08 1165.94 245.78 1148.36 326.74
  C 1136.00 383.66 1087.98 426.19 1030.46 432.74
  Q 1023.42 433.55 1010.50 433.55
  Q 634.00 433.64 257.50 433.55
  Q 244.33 433.55 237.53 432.82
  Z
  M 289.99 236.94
  L 289.99 356.84
  A 0.50 0.50 0.0 0 0 290.49 357.34
  L 321.71 357.34
  A 60.38 60.37 0.0 0 0 382.09 296.97
  L 382.09 296.81
  A 60.38 60.37 0.0 0 0 321.71 236.44
  L 290.49 236.44
  A 0.50 0.50 0.0 0 0 289.99 236.94
  Z
  M 420.04 331.69
  A 0.31 0.31 0.0 0 1 420.33 331.50
  L 477.07 331.50
  A 0.31 0.31 0.0 0 1 477.36 331.69
  L 487.69 357.06
  A 0.31 0.31 0.0 0 0 487.98 357.25
  L 505.20 357.25
  A 0.31 0.31 0.0 0 0 505.49 356.82
  L 456.55 236.69
  A 0.31 0.31 0.0 0 0 456.26 236.50
  L 441.55 236.50
  A 0.31 0.31 0.0 0 0 441.26 236.69
  L 392.42 356.82
  A 0.31 0.31 0.0 0 0 392.71 357.25
  L 409.55 357.25
  A 0.31 0.31 0.0 0 0 409.84 357.06
  L 420.04 331.69
  Z
  M 537.75 305.31
  A 0.31 0.31 0.0 0 1 538.06 305.00
  L 577.19 305.00
  A 0.31 0.31 0.0 0 0 577.50 304.69
  L 577.50 289.06
  A 0.31 0.31 0.0 0 0 577.19 288.75
  L 538.06 288.75
  A 0.31 0.31 0.0 0 1 537.75 288.44
  L 537.75 252.81
  A 0.31 0.31 0.0 0 1 538.06 252.50
  L 586.44 252.50
  A 0.31 0.31 0.0 0 0 586.75 252.19
  L 586.75 236.81
  A 0.31 0.31 0.0 0 0 586.44 236.50
  L 522.06 236.50
  A 0.31 0.31 0.0 0 0 521.75 236.81
  L 521.75 356.94
  A 0.31 0.31 0.0 0 0 522.06 357.25
  L 537.44 357.25
  A 0.31 0.31 0.0 0 0 537.75 356.94
  L 537.75 305.31
  Z
  M 640.00 252.82
  A 0.32 0.32 0.0 0 1 640.32 252.50
  L 671.68 252.50
  A 0.32 0.32 0.0 0 0 672.00 252.18
  L 672.00 236.82
  A 0.32 0.32 0.0 0 0 671.68 236.50
  L 592.07 236.50
  A 0.32 0.32 0.0 0 0 591.75 236.82
  L 591.75 252.18
  A 0.32 0.32 0.0 0 0 592.07 252.50
  L 623.43 252.50
  A 0.32 0.32 0.0 0 1 623.75 252.82
  L 623.75 356.93
  A 0.32 0.32 0.0 0 0 624.07 357.25
  L 639.68 357.25
  A 0.32 0.32 0.0 0 0 640.00 356.93
  L 640.00 252.82
  Z
  M 760.52 331.50
  A 0.32 0.32 0.0 0 1 760.82 331.70
  L 771.16 357.05
  A 0.32 0.32 0.0 0 0 771.46 357.25
  L 788.65 357.25
  A 0.32 0.32 0.0 0 0 788.95 356.81
  L 740.02 236.70
  A 0.32 0.32 0.0 0 0 739.72 236.50
  L 725.02 236.50
  A 0.32 0.32 0.0 0 0 724.72 236.70
  L 675.90 356.81
  A 0.32 0.32 0.0 0 0 676.20 357.25
  L 693.01 357.25
  A 0.32 0.32 0.0 0 0 693.31 357.05
  L 703.49 331.70
  A 0.32 0.32 0.0 0 1 703.79 331.50
  L 760.52 331.50
  Z
  M 821.75 316.00
  L 843.03 316.00
  Q 843.67 316.00 843.99 316.56
  L 866.67 356.72
  Q 866.97 357.25 867.58 357.25
  L 885.50 357.25
  A 0.45 0.45 0.0 0 0 885.89 356.58
  L 861.25 314.04
  Q 860.91 313.45 861.54 313.18
  C 875.62 307.10 885.54 295.18 887.07 279.76
  C 888.94 260.85 875.97 243.15 857.58 238.04
  Q 852.16 236.54 840.73 236.50
  Q 823.16 236.45 805.49 236.52
  Q 805.00 236.52 805.00 237.01
  L 805.00 357.00
  Q 805.00 357.25 805.25 357.25
  L 820.75 357.25
  Q 821.25 357.25 821.25 356.75
  L 821.25 316.50
  Q 821.25 316.00 821.75 316.00
  Z
  M 957.09 331.87
  A 0.39 0.39 0.0 0 0 957.48 332.25
  L 972.98 332.25
  A 0.39 0.39 0.0 0 0 973.37 331.87
  L 975.80 236.90
  A 0.39 0.39 0.0 0 0 975.41 236.50
  L 955.05 236.50
  A 0.39 0.39 0.0 0 0 954.66 236.90
  L 957.09 331.87
  Z
  M 975.8317 347.9534
  A 10.63 10.50 6.5 0 0 966.4586 336.3175
  A 10.63 10.50 6.5 0 0 954.7083 345.5466
  A 10.63 10.50 6.5 0 0 964.0814 357.1825
  A 10.63 10.50 6.5 0 0 975.8317 347.9534
  Z"
/>
<path fill="#f0e1c1" d="
  M 289.99 236.94
  A 0.50 0.50 0.0 0 1 290.49 236.44
  L 321.71 236.44
  A 60.38 60.37 0.0 0 1 382.09 296.81
  L 382.09 296.97
  A 60.38 60.37 -0.0 0 1 321.71 357.34
  L 290.49 357.34
  A 0.50 0.50 0.0 0 1 289.99 356.84
  L 289.99 236.94
  Z
  M 306.07 253.25
  L 305.91 340.69
  A 0.63 0.63 0.0 0 0 306.54 341.32
  L 320.66 341.34
  A 45.25 44.22 0.1 0 0 365.99 297.20
  L 365.99 296.94
  A 45.25 44.22 0.1 0 0 320.82 252.64
  L 306.70 252.62
  A 0.63 0.63 0.0 0 0 306.07 253.25
  Z"
/>
<path fill="#f0e1c1" d="
  M 420.04 331.69
  L 409.84 357.06
  A 0.31 0.31 0.0 0 1 409.55 357.25
  L 392.71 357.25
  A 0.31 0.31 0.0 0 1 392.42 356.82
  L 441.26 236.69
  A 0.31 0.31 0.0 0 1 441.55 236.50
  L 456.26 236.50
  A 0.31 0.31 0.0 0 1 456.55 236.69
  L 505.49 356.82
  A 0.31 0.31 0.0 0 1 505.20 357.25
  L 487.98 357.25
  A 0.31 0.31 0.0 0 1 487.69 357.06
  L 477.36 331.69
  A 0.31 0.31 0.0 0 0 477.07 331.50
  L 420.33 331.50
  A 0.31 0.31 0.0 0 0 420.04 331.69
  Z
  M 427.04 314.53
  A 0.32 0.32 0.0 0 0 427.33 314.97
  L 470.02 315.04
  A 0.32 0.32 0.0 0 0 470.32 314.60
  L 449.07 261.99
  A 0.32 0.32 0.0 0 0 448.47 261.99
  L 427.04 314.53
  Z"
/>
<path fill="#f0e1c1" d="
  M 537.75 305.31
  L 537.75 356.94
  A 0.31 0.31 0.0 0 1 537.44 357.25
  L 522.06 357.25
  A 0.31 0.31 0.0 0 1 521.75 356.94
  L 521.75 236.81
  A 0.31 0.31 0.0 0 1 522.06 236.50
  L 586.44 236.50
  A 0.31 0.31 0.0 0 1 586.75 236.81
  L 586.75 252.19
  A 0.31 0.31 0.0 0 1 586.44 252.50
  L 538.06 252.50
  A 0.31 0.31 0.0 0 0 537.75 252.81
  L 537.75 288.44
  A 0.31 0.31 0.0 0 0 538.06 288.75
  L 577.19 288.75
  A 0.31 0.31 0.0 0 1 577.50 289.06
  L 577.50 304.69
  A 0.31 0.31 0.0 0 1 577.19 305.00
  L 538.06 305.00
  A 0.31 0.31 0.0 0 0 537.75 305.31
  Z"
/>
<path fill="#f0e1c1" d="
  M 640.00 252.82
  L 640.00 356.93
  A 0.32 0.32 0.0 0 1 639.68 357.25
  L 624.07 357.25
  A 0.32 0.32 0.0 0 1 623.75 356.93
  L 623.75 252.82
  A 0.32 0.32 0.0 0 0 623.43 252.50
  L 592.07 252.50
  A 0.32 0.32 0.0 0 1 591.75 252.18
  L 591.75 236.82
  A 0.32 0.32 0.0 0 1 592.07 236.50
  L 671.68 236.50
  A 0.32 0.32 0.0 0 1 672.00 236.82
  L 672.00 252.18
  A 0.32 0.32 0.0 0 1 671.68 252.50
  L 640.32 252.50
  A 0.32 0.32 0.0 0 0 640.00 252.82
  Z"
/>
<path fill="#f0e1c1" d="
  M 760.52 331.50
  L 703.79 331.50
  A 0.32 0.32 0.0 0 0 703.49 331.70
  L 693.31 357.05
  A 0.32 0.32 0.0 0 1 693.01 357.25
  L 676.20 357.25
  A 0.32 0.32 0.0 0 1 675.90 356.81
  L 724.72 236.70
  A 0.32 0.32 0.0 0 1 725.02 236.50
  L 739.72 236.50
  A 0.32 0.32 0.0 0 1 740.02 236.70
  L 788.95 356.81
  A 0.32 0.32 0.0 0 1 788.65 357.25
  L 771.46 357.25
  A 0.32 0.32 0.0 0 1 771.16 357.05
  L 760.82 331.70
  A 0.32 0.32 0.0 0 0 760.52 331.50
  Z
  M 710.55 314.55
  A 0.33 0.33 0.0 0 0 710.86 315.00
  L 753.52 315.00
  A 0.33 0.33 0.0 0 0 753.83 314.55
  L 732.50 261.99
  A 0.33 0.33 0.0 0 0 731.88 261.99
  L 710.55 314.55
  Z"
/>
<path fill="#f0e1c1" d="
  M 821.25 316.50
  L 821.25 356.75
  Q 821.25 357.25 820.75 357.25
  L 805.25 357.25
  Q 805.00 357.25 805.00 357.00
  L 805.00 237.01
  Q 805.00 236.52 805.49 236.52
  Q 823.16 236.45 840.73 236.50
  Q 852.16 236.54 857.58 238.04
  C 875.97 243.15 888.94 260.85 887.07 279.76
  C 885.54 295.18 875.62 307.10 861.54 313.18
  Q 860.91 313.45 861.25 314.04
  L 885.89 356.58
  A 0.45 0.45 0.0 0 1 885.50 357.25
  L 867.58 357.25
  Q 866.97 357.25 866.67 356.72
  L 843.99 316.56
  Q 843.67 316.00 843.03 316.00
  L 821.75 316.00
  Q 821.25 316.00 821.25 316.50
  Z
  M 821.33 252.83
  L 821.17 299.39
  A 0.37 0.37 0.0 0 0 821.54 299.76
  L 845.07 299.85
  A 25.86 23.54 0.2 0 0 871.01 276.40
  L 871.01 276.18
  A 25.86 23.54 0.2 0 0 845.23 252.55
  L 821.70 252.46
  A 0.37 0.37 0.0 0 0 821.33 252.83
  Z"
/>
<path fill="#f0e1c1" d="
  M 957.09 331.87
  L 954.66 236.90
  A 0.39 0.39 0.0 0 1 955.05 236.50
  L 975.41 236.50
  A 0.39 0.39 0.0 0 1 975.80 236.90
  L 973.37 331.87
  A 0.39 0.39 0.0 0 1 972.98 332.25
  L 957.48 332.25
  A 0.39 0.39 0.0 0 1 957.09 331.87
  Z"
/>
<path fill="#6d5845" d="
  M 821.33 252.83
  A 0.37 0.37 0.0 0 1 821.70 252.46
  L 845.23 252.55
  A 25.86 23.54 0.2 0 1 871.01 276.18
  L 871.01 276.40
  A 25.86 23.54 0.2 0 1 845.07 299.85
  L 821.54 299.76
  A 0.37 0.37 0.0 0 1 821.17 299.39
  L 821.33 252.83
  Z"
/>
<path fill="#6d5845" d="
  M 306.07 253.25
  A 0.63 0.63 0.0 0 1 306.70 252.62
  L 320.82 252.64
  A 45.25 44.22 0.1 0 1 365.99 296.94
  L 365.99 297.20
  A 45.25 44.22 0.1 0 1 320.66 341.34
  L 306.54 341.32
  A 0.63 0.63 0.0 0 1 305.91 340.69
  L 306.07 253.25
  Z"
/>
<path fill="#6d5845" d="
  M 427.04 314.53
  L 448.47 261.99
  A 0.32 0.32 0.0 0 1 449.07 261.99
  L 470.32 314.60
  A 0.32 0.32 0.0 0 1 470.02 315.04
  L 427.33 314.97
  A 0.32 0.32 0.0 0 1 427.04 314.53
  Z"
/>
<path fill="#6d5845" d="
  M 710.55 314.55
  L 731.88 261.99
  A 0.33 0.33 0.0 0 1 732.50 261.99
  L 753.83 314.55
  A 0.33 0.33 0.0 0 1 753.52 315.00
  L 710.86 315.00
  A 0.33 0.33 0.0 0 1 710.55 314.55
  Z"
/>
<ellipse fill="#f0e1c1" cx="0.00" cy="0.00" transform="translate(965.27,346.75) rotate(6.5)" rx="10.63" ry="10.50"/>
</svg>
