<?xml version="1.0" encoding="UTF-8" standalone="no"?>
<!DOCTYPE svg PUBLIC "-//W3C//DTD SVG 1.1//EN" "http://www.w3.org/Graphics/SVG/1.1/DTD/svg11.dtd">
<svg xmlns="http://www.w3.org/2000/svg" version="1.1" viewBox="0.00 0.00 1931.00 1086.00">
<g stroke-width="2.00" fill="none" stroke-linecap="butt">
<path stroke="#af9d83" vector-effect="non-scaling-stroke" d="
  M 1147.83 367.04
  C 1147.61 362.91 1157.71 359.72 1158.76 366.23
  A 1.69 1.67 -4.5 0 0 1160.41 367.63
  C 1164.89 367.65 1184.09 365.08 1181.80 357.14
  C 1178.27 344.95 1165.47 338.82 1153.51 339.01
  C 1139.67 339.22 1124.94 347.92 1122.43 362.25
  Q 1118.76 383.19 1136.69 390.25
  Q 1139.15 391.22 1145.49 392.37
  C 1148.66 392.94 1157.32 394.15 1159.21 397.18
  A 2.63 2.63 0.0 0 1 1158.30 400.84
  Q 1151.81 404.59 1148.76 398.11
  Q 1148.46 397.46 1148.05 397.07
  Q 1147.36 396.42 1147.02 396.31
  Q 1136.23 392.58 1125.66 396.95
  Q 1119.36 399.55 1122.07 406.26
  C 1129.01 423.40 1147.53 429.00 1164.36 425.14
  C 1175.06 422.68 1185.64 414.23 1187.73 402.98
  C 1189.76 392.11 1184.09 381.58 1174.50 376.20
  Q 1165.45 371.13 1152.86 369.92
  Q 1151.29 369.77 1148.35 367.93
  A 1.12 1.12 0.0 0 1 1147.83 367.04"
/>
<path stroke="#af9d83" vector-effect="non-scaling-stroke" d="
  M 1306.92 384.14
  Q 1307.73 365.09 1306.27 346.03
  C 1305.64 337.79 1268.43 338.57 1268.36 348.00
  Q 1268.13 376.54 1272.70 410.03
  Q 1273.66 417.07 1275.79 423.30
  A 2.99 2.97 86.3 0 0 1278.02 425.27
  Q 1288.77 427.49 1300.23 425.22
  C 1302.10 424.84 1303.45 423.87 1303.80 422.02
  C 1306.09 409.77 1306.25 399.77 1306.92 384.14"
/>
<path stroke="#af9d83" vector-effect="non-scaling-stroke" d="
  M 1199.30 407.46
  C 1211.52 426.29 1236.23 430.03 1256.30 423.18
  C 1261.21 421.50 1261.84 416.43 1261.61 411.75
  C 1261.29 405.41 1259.00 392.27 1250.17 394.04
  C 1241.64 395.75 1224.72 397.23 1227.10 382.73
  C 1228.20 376.03 1235.74 371.70 1241.79 370.52
  Q 1246.59 369.59 1251.50 369.27
  C 1257.02 368.91 1257.76 361.94 1257.00 357.73
  C 1255.78 351.05 1253.66 342.66 1246.03 340.98
  Q 1243.63 340.45 1236.45 340.84
  C 1211.29 342.18 1194.64 361.73 1193.73 386.25
  Q 1193.28 398.20 1199.30 407.46"
/>
<path stroke="#af9d83" vector-effect="non-scaling-stroke" d="
  M 1471.63 379.88
  Q 1468.58 399.26 1480.03 412.15
  C 1493.31 427.10 1515.05 429.18 1533.06 423.34
  C 1543.08 420.09 1538.13 402.63 1534.13 396.41
  C 1532.73 394.21 1529.83 393.51 1527.13 394.07
  C 1518.47 395.87 1504.10 397.25 1504.14 384.54
  C 1504.17 374.71 1516.40 369.80 1524.44 369.64
  Q 1529.21 369.55 1530.50 368.94
  C 1538.26 365.31 1532.57 342.58 1524.52 341.35
  C 1497.53 337.23 1475.81 353.24 1471.63 379.88"
/>
<path stroke="#af9d83" vector-effect="non-scaling-stroke" d="
  M 1347.58 371.22
  L 1347.32 368.78
  Q 1347.25 368.04 1347.99 368.01
  Q 1357.76 367.52 1367.49 366.87
  Q 1370.14 366.70 1371.94 365.57
  A 1.38 1.35 -11.2 0 0 1372.56 364.67
  Q 1374.58 354.20 1372.57 343.74
  A 1.16 1.13 -80.9 0 0 1372.02 342.96
  Q 1369.84 341.69 1367.25 341.50
  Q 1342.76 339.62 1318.35 342.43
  C 1316.24 342.67 1314.99 344.06 1314.64 345.99
  C 1313.65 351.45 1313.80 357.47 1313.69 362.77
  Q 1313.13 391.23 1316.42 419.51
  Q 1316.63 421.38 1318.22 424.34
  A 1.12 1.10 -6.5 0 0 1318.94 424.90
  Q 1321.94 425.69 1325.75 425.90
  Q 1349.68 427.21 1372.39 423.97
  Q 1374.95 423.60 1377.13 422.13
  A 1.17 1.15 77.4 0 0 1377.64 421.31
  Q 1378.79 412.61 1377.50 403.92
  C 1376.86 399.57 1376.67 396.32 1371.49 396.59
  Q 1360.46 397.16 1349.36 397.35
  Q 1348.72 397.36 1348.73 396.72
  L 1348.74 394.01
  Q 1348.74 393.26 1349.49 393.20
  L 1359.43 392.36
  A 0.99 0.97 15.4 0 0 1360.13 391.97
  C 1363.01 388.00 1360.69 377.05 1358.79 373.36
  Q 1358.48 372.75 1357.81 372.70
  L 1348.35 371.97
  Q 1347.65 371.92 1347.58 371.22"
/>
<path stroke="#af9d83" vector-effect="non-scaling-stroke" d="
  M 1432.45 364.30
  Q 1426.98 357.03 1421.56 349.74
  Q 1416.40 342.79 1407.27 341.76
  C 1403.11 341.29 1384.99 340.05 1384.45 345.24
  Q 1380.70 381.18 1385.22 421.27
  Q 1385.37 422.58 1386.46 423.86
  C 1389.69 427.65 1406.04 426.20 1410.67 425.22
  A 1.08 1.08 0.0 0 0 1411.41 424.67
  Q 1412.78 422.19 1413.02 419.73
  Q 1414.02 409.84 1415.12 399.77
  Q 1415.19 399.11 1415.61 399.63
  Q 1425.57 412.10 1437.13 423.11
  C 1441.88 427.63 1454.30 426.47 1460.04 425.70
  Q 1463.93 425.18 1464.17 421.01
  Q 1466.45 382.75 1464.72 346.31
  C 1464.59 343.58 1463.21 342.50 1460.75 341.98
  Q 1449.81 339.65 1439.39 342.00
  C 1435.32 342.92 1432.20 343.59 1432.32 348.23
  Q 1432.54 356.22 1432.83 364.17
  Q 1432.86 364.85 1432.45 364.30"
/>
<path stroke="#af9d83" vector-effect="non-scaling-stroke" d="
  M 1579.58 393.14
  L 1589.17 392.41
  A 2.31 2.31 0.0 0 0 1591.27 390.54
  Q 1592.77 382.52 1589.64 374.39
  C 1589.01 372.75 1588.05 372.70 1586.49 372.57
  Q 1582.55 372.24 1578.53 372.02
  Q 1577.95 371.99 1577.94 371.41
  L 1577.86 368.57
  A 0.62 0.62 0.0 0 1 1578.46 367.93
  Q 1586.47 367.66 1594.51 367.09
  C 1599.34 366.74 1603.54 367.10 1603.62 361.47
  C 1603.70 356.15 1604.06 351.11 1603.32 345.77
  C 1602.85 342.44 1600.98 341.80 1597.99 341.59
  Q 1572.54 339.79 1549.28 342.35
  C 1546.71 342.63 1545.40 343.81 1544.97 346.26
  Q 1544.11 351.09 1544.00 356.00
  Q 1543.51 378.02 1544.84 400.01
  Q 1545.46 410.32 1547.18 420.50
  Q 1547.52 422.48 1548.46 424.27
  A 1.27 1.25 82.9 0 0 1549.24 424.89
  Q 1552.18 425.68 1556.50 425.90
  Q 1581.37 427.19 1604.06 423.74
  Q 1605.87 423.46 1607.66 421.95
  Q 1608.05 421.62 1608.11 421.11
  C 1608.59 416.88 1609.24 400.43 1605.75 397.65
  Q 1604.25 396.45 1601.98 396.57
  Q 1590.87 397.18 1579.65 397.37
  Q 1579.01 397.38 1579.00 396.74
  L 1578.98 393.79
  A 0.65 0.65 0.0 0 1 1579.58 393.14"
/>
</g>
<path fill="#6d5845" d="
  M 1149.43 365.68
  A 1.50 1.49 -63.5 0 0 1150.25 368.13
  C 1165.34 371.20 1182.08 373.57 1187.94 390.79
  Q 1190.39 397.98 1188.26 405.29
  C 1184.52 418.10 1171.24 426.18 1158.40 427.15
  C 1142.58 428.35 1127.05 422.06 1121.03 406.25
  C 1118.71 400.14 1121.62 397.20 1127.19 395.27
  Q 1137.73 391.61 1147.71 395.51
  C 1149.91 396.37 1149.84 399.16 1151.61 400.30
  C 1156.16 403.25 1163.40 397.51 1153.75 395.25
  C 1146.94 393.65 1139.26 392.84 1133.93 390.12
  Q 1117.42 381.69 1121.67 361.23
  C 1126.20 339.45 1157.56 330.98 1174.18 344.50
  Q 1178.31 347.86 1181.37 353.26
  C 1185.10 359.85 1182.18 362.83 1176.13 365.42
  Q 1168.59 368.66 1160.32 368.74
  A 2.66 2.66 0.0 0 1 1157.63 366.25
  C 1157.34 361.89 1151.23 363.63 1149.43 365.68
  Z
  M 1147.83 367.04
  C 1147.61 362.91 1157.71 359.72 1158.76 366.23
  A 1.69 1.67 -4.5 0 0 1160.41 367.63
  C 1164.89 367.65 1184.09 365.08 1181.80 357.14
  C 1178.27 344.95 1165.47 338.82 1153.51 339.01
  C 1139.67 339.22 1124.94 347.92 1122.43 362.25
  Q 1118.76 383.19 1136.69 390.25
  Q 1139.15 391.22 1145.49 392.37
  C 1148.66 392.94 1157.32 394.15 1159.21 397.18
  A 2.63 2.63 0.0 0 1 1158.30 400.84
  Q 1151.81 404.59 1148.76 398.11
  Q 1148.46 397.46 1148.05 397.07
  Q 1147.36 396.42 1147.02 396.31
  Q 1136.23 392.58 1125.66 396.95
  Q 1119.36 399.55 1122.07 406.26
  C 1129.01 423.40 1147.53 429.00 1164.36 425.14
  C 1175.06 422.68 1185.64 414.23 1187.73 402.98
  C 1189.76 392.11 1184.09 381.58 1174.50 376.20
  Q 1165.45 371.13 1152.86 369.92
  Q 1151.29 369.77 1148.35 367.93
  A 1.12 1.12 0.0 0 1 1147.83 367.04
  Z"
/>
<path fill="#f0e1c0" d="
  M 1158.76 366.23
  C 1157.71 359.72 1147.61 362.91 1147.83 367.04
  A 1.12 1.12 0.0 0 0 1148.35 367.93
  Q 1151.29 369.77 1152.86 369.92
  Q 1165.45 371.13 1174.50 376.20
  C 1184.09 381.58 1189.76 392.11 1187.73 402.98
  C 1185.64 414.23 1175.06 422.68 1164.36 425.14
  C 1147.53 429.00 1129.01 423.40 1122.07 406.26
  Q 1119.36 399.55 1125.66 396.95
  Q 1136.23 392.58 1147.02 396.31
  Q 1147.36 396.42 1148.05 397.07
  Q 1148.46 397.46 1148.76 398.11
  Q 1151.81 404.59 1158.30 400.84
  A 2.63 2.63 0.0 0 0 1159.21 397.18
  C 1157.32 394.15 1148.66 392.94 1145.49 392.37
  Q 1139.15 391.22 1136.69 390.25
  Q 1118.76 383.19 1122.43 362.25
  C 1124.94 347.92 1139.67 339.22 1153.51 339.01
  C 1165.47 338.82 1178.27 344.95 1181.80 357.14
  C 1184.09 365.08 1164.89 367.65 1160.41 367.63
  A 1.69 1.67 -4.5 0 1 1158.76 366.23
  Z"
/>
<path fill="#6d5845" d="
  M 1303.80 341.67
  C 1305.63 342.24 1306.91 343.66 1307.12 345.71
  Q 1307.76 351.96 1308.00 362.50
  Q 1308.66 391.44 1305.57 418.26
  C 1305.16 421.83 1304.50 425.43 1300.26 426.23
  Q 1288.09 428.51 1276.51 425.99
  A 1.18 1.17 -6.8 0 1 1275.70 425.36
  Q 1273.64 421.28 1272.78 415.76
  Q 1268.04 385.30 1267.31 354.50
  C 1267.20 349.73 1266.65 344.51 1271.55 342.68
  Q 1287.71 336.62 1303.80 341.67
  Z
  M 1306.92 384.14
  Q 1307.73 365.09 1306.27 346.03
  C 1305.64 337.79 1268.43 338.57 1268.36 348.00
  Q 1268.13 376.54 1272.70 410.03
  Q 1273.66 417.07 1275.79 423.30
  A 2.99 2.97 86.3 0 0 1278.02 425.27
  Q 1288.77 427.49 1300.23 425.22
  C 1302.10 424.84 1303.45 423.87 1303.80 422.02
  C 1306.09 409.77 1306.25 399.77 1306.92 384.14
  Z"
/>
<path fill="#6d5845" d="
  M 1261.28 402.97
  C 1262.98 408.00 1264.44 421.28 1257.66 423.74
  C 1229.93 433.81 1192.89 422.18 1192.78 387.47
  C 1192.68 356.75 1217.80 335.33 1248.25 340.54
  C 1256.51 341.96 1264.44 369.66 1250.73 370.47
  Q 1247.03 370.69 1243.42 371.18
  C 1236.69 372.09 1227.86 377.01 1227.98 384.75
  C 1228.15 396.00 1241.26 394.91 1248.94 393.22
  C 1256.63 391.54 1259.21 396.82 1261.28 402.97
  Z
  M 1199.30 407.46
  C 1211.52 426.29 1236.23 430.03 1256.30 423.18
  C 1261.21 421.50 1261.84 416.43 1261.61 411.75
  C 1261.29 405.41 1259.00 392.27 1250.17 394.04
  C 1241.64 395.75 1224.72 397.23 1227.10 382.73
  C 1228.20 376.03 1235.74 371.70 1241.79 370.52
  Q 1246.59 369.59 1251.50 369.27
  C 1257.02 368.91 1257.76 361.94 1257.00 357.73
  C 1255.78 351.05 1253.66 342.66 1246.03 340.98
  Q 1243.63 340.45 1236.45 340.84
  C 1211.29 342.18 1194.64 361.73 1193.73 386.25
  Q 1193.28 398.20 1199.30 407.46
  Z"
/>
<path fill="#6d5845" d="
  M 1527.76 425.82
  C 1508.45 430.49 1485.09 424.88 1474.82 406.72
  C 1466.79 392.54 1469.11 373.68 1477.75 360.25
  C 1488.14 344.10 1506.28 337.36 1525.26 340.53
  C 1533.76 341.94 1541.29 369.81 1528.12 370.44
  Q 1521.76 370.75 1519.50 371.22
  C 1513.60 372.45 1505.34 377.11 1505.10 383.95
  C 1504.66 396.04 1518.05 394.92 1526.15 393.25
  Q 1529.55 392.55 1531.39 393.21
  C 1538.69 395.82 1540.21 409.49 1539.55 416.00
  C 1538.79 423.39 1534.53 424.19 1527.76 425.82
  Z
  M 1471.63 379.88
  Q 1468.58 399.26 1480.03 412.15
  C 1493.31 427.10 1515.05 429.18 1533.06 423.34
  C 1543.08 420.09 1538.13 402.63 1534.13 396.41
  C 1532.73 394.21 1529.83 393.51 1527.13 394.07
  C 1518.47 395.87 1504.10 397.25 1504.14 384.54
  C 1504.17 374.71 1516.40 369.80 1524.44 369.64
  Q 1529.21 369.55 1530.50 368.94
  C 1538.26 365.31 1532.57 342.58 1524.52 341.35
  C 1497.53 337.23 1475.81 353.24 1471.63 379.88
  Z"
/>
<path fill="#6d5845" d="
  M 1348.37 369.67
  L 1348.62 370.61
  A 0.76 0.76 0.0 0 0 1349.34 371.17
  Q 1355.15 371.25 1358.02 371.88
  C 1362.51 372.88 1362.45 386.79 1361.97 390.15
  C 1361.63 392.51 1360.46 393.16 1358.25 393.39
  Q 1354.23 393.80 1350.18 394.08
  Q 1349.69 394.11 1349.54 394.58
  Q 1349.21 395.60 1349.70 396.13
  Q 1350.03 396.50 1350.90 396.47
  Q 1360.83 396.15 1370.73 395.76
  C 1375.01 395.60 1377.15 396.20 1378.00 400.81
  Q 1380.07 412.17 1378.61 421.50
  C 1378.06 424.96 1365.84 425.97 1363.00 426.23
  Q 1350.80 427.33 1334.50 427.22
  C 1329.69 427.18 1320.48 427.38 1317.54 425.16
  Q 1317.14 424.86 1316.96 424.39
  Q 1315.47 420.39 1315.08 416.76
  Q 1311.66 384.59 1312.79 352.25
  C 1312.91 348.82 1313.33 342.23 1317.64 341.72
  Q 1339.50 339.10 1367.75 340.66
  Q 1373.24 340.96 1373.88 345.47
  Q 1375.27 355.47 1373.50 365.30
  A 1.28 1.27 79.2 0 1 1372.92 366.16
  Q 1370.38 367.73 1366.49 367.94
  Q 1357.72 368.42 1348.92 368.90
  Q 1348.17 368.95 1348.37 369.67
  Z
  M 1347.58 371.22
  L 1347.32 368.78
  Q 1347.25 368.04 1347.99 368.01
  Q 1357.76 367.52 1367.49 366.87
  Q 1370.14 366.70 1371.94 365.57
  A 1.38 1.35 -11.2 0 0 1372.56 364.67
  Q 1374.58 354.20 1372.57 343.74
  A 1.16 1.13 -80.9 0 0 1372.02 342.96
  Q 1369.84 341.69 1367.25 341.50
  Q 1342.76 339.62 1318.35 342.43
  C 1316.24 342.67 1314.99 344.06 1314.64 345.99
  C 1313.65 351.45 1313.80 357.47 1313.69 362.77
  Q 1313.13 391.23 1316.42 419.51
  Q 1316.63 421.38 1318.22 424.34
  A 1.12 1.10 -6.5 0 0 1318.94 424.90
  Q 1321.94 425.69 1325.75 425.90
  Q 1349.68 427.21 1372.39 423.97
  Q 1374.95 423.60 1377.13 422.13
  A 1.17 1.15 77.4 0 0 1377.64 421.31
  Q 1378.79 412.61 1377.50 403.92
  C 1376.86 399.57 1376.67 396.32 1371.49 396.59
  Q 1360.46 397.16 1349.36 397.35
  Q 1348.72 397.36 1348.73 396.72
  L 1348.74 394.01
  Q 1348.74 393.26 1349.49 393.20
  L 1359.43 392.36
  A 0.99 0.97 15.4 0 0 1360.13 391.97
  C 1363.01 388.00 1360.69 377.05 1358.79 373.36
  Q 1358.48 372.75 1357.81 372.70
  L 1348.35 371.97
  Q 1347.65 371.92 1347.58 371.22
  Z"
/>
<path fill="#6d5845" d="
  M 1415.85 402.58
  Q 1414.79 413.09 1413.27 423.54
  C 1412.41 429.47 1390.86 426.84 1387.58 425.97
  Q 1385.22 425.34 1384.63 422.15
  Q 1383.06 413.77 1382.55 405.26
  Q 1380.81 375.92 1383.29 346.64
  C 1383.36 345.75 1383.81 344.46 1383.99 343.49
  A 1.12 1.10 -9.3 0 1 1384.53 342.75
  C 1391.20 338.89 1404.94 340.03 1411.89 341.60
  C 1419.38 343.30 1427.18 355.21 1431.24 361.25
  A 0.36 0.36 0.0 0 0 1431.89 361.03
  Q 1431.54 353.69 1431.51 346.25
  C 1431.49 342.80 1437.70 340.98 1440.95 340.46
  Q 1452.50 338.60 1462.71 341.50
  C 1464.97 342.14 1465.54 344.20 1465.66 346.50
  Q 1467.69 384.92 1465.07 421.76
  Q 1464.98 422.99 1464.38 424.17
  C 1462.36 428.14 1448.07 427.27 1443.74 426.91
  C 1439.56 426.57 1437.42 425.25 1434.32 422.11
  Q 1424.98 412.64 1416.50 402.39
  Q 1415.94 401.71 1415.85 402.58
  Z
  M 1432.45 364.30
  Q 1426.98 357.03 1421.56 349.74
  Q 1416.40 342.79 1407.27 341.76
  C 1403.11 341.29 1384.99 340.05 1384.45 345.24
  Q 1380.70 381.18 1385.22 421.27
  Q 1385.37 422.58 1386.46 423.86
  C 1389.69 427.65 1406.04 426.20 1410.67 425.22
  A 1.08 1.08 0.0 0 0 1411.41 424.67
  Q 1412.78 422.19 1413.02 419.73
  Q 1414.02 409.84 1415.12 399.77
  Q 1415.19 399.11 1415.61 399.63
  Q 1425.57 412.10 1437.13 423.11
  C 1441.88 427.63 1454.30 426.47 1460.04 425.70
  Q 1463.93 425.18 1464.17 421.01
  Q 1466.45 382.75 1464.72 346.31
  C 1464.59 343.58 1463.21 342.50 1460.75 341.98
  Q 1449.81 339.65 1439.39 342.00
  C 1435.32 342.92 1432.20 343.59 1432.32 348.23
  Q 1432.54 356.22 1432.83 364.17
  Q 1432.86 364.85 1432.45 364.30
  Z"
/>
<path fill="#6d5845" d="
  M 1578.74 369.58
  L 1578.85 370.28
  A 0.89 0.88 -2.1 0 0 1579.65 371.02
  L 1588.36 371.80
  A 2.25 2.24 80.9 0 1 1590.22 373.15
  C 1591.61 376.43 1595.53 392.18 1589.75 393.14
  Q 1585.09 393.92 1580.39 394.04
  Q 1579.77 394.06 1579.82 394.67
  L 1579.92 395.91
  Q 1579.97 396.49 1580.56 396.48
  Q 1591.17 396.16 1601.76 395.75
  C 1608.31 395.51 1608.24 399.20 1608.92 404.70
  C 1609.59 410.11 1610.22 417.24 1608.54 422.47
  A 1.23 1.23 0.0 0 1 1607.92 423.19
  Q 1604.86 424.69 1601.51 425.15
  Q 1579.24 428.17 1556.00 426.91
  Q 1552.01 426.69 1548.64 425.72
  A 1.34 1.33 -8.2 0 1 1547.89 425.16
  Q 1546.21 422.51 1545.94 420.27
  Q 1542.43 391.53 1543.03 362.58
  C 1543.15 357.02 1543.10 351.77 1543.99 346.24
  C 1544.76 341.50 1547.82 341.44 1552.27 341.04
  Q 1570.48 339.41 1588.75 339.86
  Q 1596.76 340.06 1601.78 341.36
  C 1606.55 342.59 1604.52 361.63 1603.81 365.37
  A 1.22 1.20 81.0 0 1 1603.24 366.17
  Q 1600.37 367.86 1597.01 367.96
  Q 1592.95 368.08 1579.25 368.95
  Q 1578.65 368.99 1578.74 369.58
  Z
  M 1579.58 393.14
  L 1589.17 392.41
  A 2.31 2.31 0.0 0 0 1591.27 390.54
  Q 1592.77 382.52 1589.64 374.39
  C 1589.01 372.75 1588.05 372.70 1586.49 372.57
  Q 1582.55 372.24 1578.53 372.02
  Q 1577.95 371.99 1577.94 371.41
  L 1577.86 368.57
  A 0.62 0.62 0.0 0 1 1578.46 367.93
  Q 1586.47 367.66 1594.51 367.09
  C 1599.34 366.74 1603.54 367.10 1603.62 361.47
  C 1603.70 356.15 1604.06 351.11 1603.32 345.77
  C 1602.85 342.44 1600.98 341.80 1597.99 341.59
  Q 1572.54 339.79 1549.28 342.35
  C 1546.71 342.63 1545.40 343.81 1544.97 346.26
  Q 1544.11 351.09 1544.00 356.00
  Q 1543.51 378.02 1544.84 400.01
  Q 1545.46 410.32 1547.18 420.50
  Q 1547.52 422.48 1548.46 424.27
  A 1.27 1.25 82.9 0 0 1549.24 424.89
  Q 1552.18 425.68 1556.50 425.90
  Q 1581.37 427.19 1604.06 423.74
  Q 1605.87 423.46 1607.66 421.95
  Q 1608.05 421.62 1608.11 421.11
  C 1608.59 416.88 1609.24 400.43 1605.75 397.65
  Q 1604.25 396.45 1601.98 396.57
  Q 1590.87 397.18 1579.65 397.37
  Q 1579.01 397.38 1579.00 396.74
  L 1578.98 393.79
  A 0.65 0.65 0.0 0 1 1579.58 393.14
  Z"
/>
<path fill="#f0e1c0" d="
  M 1306.92 384.14
  C 1306.25 399.77 1306.09 409.77 1303.80 422.02
  C 1303.45 423.87 1302.10 424.84 1300.23 425.22
  Q 1288.77 427.49 1278.02 425.27
  A 2.99 2.97 86.3 0 1 1275.79 423.30
  Q 1273.66 417.07 1272.70 410.03
  Q 1268.13 376.54 1268.36 348.00
  C 1268.43 338.57 1305.64 337.79 1306.27 346.03
  Q 1307.73 365.09 1306.92 384.14
  Z"
/>
<path fill="#f0e1c0" d="
  M 1256.30 423.18
  C 1236.23 430.03 1211.52 426.29 1199.30 407.46
  Q 1193.28 398.20 1193.73 386.25
  C 1194.64 361.73 1211.29 342.18 1236.45 340.84
  Q 1243.63 340.45 1246.03 340.98
  C 1253.66 342.66 1255.78 351.05 1257.00 357.73
  C 1257.76 361.94 1257.02 368.91 1251.50 369.27
  Q 1246.59 369.59 1241.79 370.52
  C 1235.74 371.70 1228.20 376.03 1227.10 382.73
  C 1224.72 397.23 1241.64 395.75 1250.17 394.04
  C 1259.00 392.27 1261.29 405.41 1261.61 411.75
  C 1261.84 416.43 1261.21 421.50 1256.30 423.18
  Z"
/>
<path fill="#f0e1c0" d="
  M 1347.58 371.22
  Q 1347.65 371.92 1348.35 371.97
  L 1357.81 372.70
  Q 1358.48 372.75 1358.79 373.36
  C 1360.69 377.05 1363.01 388.00 1360.13 391.97
  A 0.99 0.97 15.4 0 1 1359.43 392.36
  L 1349.49 393.20
  Q 1348.74 393.26 1348.74 394.01
  L 1348.73 396.72
  Q 1348.72 397.36 1349.36 397.35
  Q 1360.46 397.16 1371.49 396.59
  C 1376.67 396.32 1376.86 399.57 1377.50 403.92
  Q 1378.79 412.61 1377.64 421.31
  A 1.17 1.15 77.4 0 1 1377.13 422.13
  Q 1374.95 423.60 1372.39 423.97
  Q 1349.68 427.21 1325.75 425.90
  Q 1321.94 425.69 1318.94 424.90
  A 1.12 1.10 -6.5 0 1 1318.22 424.34
  Q 1316.63 421.38 1316.42 419.51
  Q 1313.13 391.23 1313.69 362.77
  C 1313.80 357.47 1313.65 351.45 1314.64 345.99
  C 1314.99 344.06 1316.24 342.67 1318.35 342.43
  Q 1342.76 339.62 1367.25 341.50
  Q 1369.84 341.69 1372.02 342.96
  A 1.16 1.13 -80.9 0 1 1372.57 343.74
  Q 1374.58 354.20 1372.56 364.67
  A 1.38 1.35 -11.2 0 1 1371.94 365.57
  Q 1370.14 366.70 1367.49 366.87
  Q 1357.76 367.52 1347.99 368.01
  Q 1347.25 368.04 1347.32 368.78
  L 1347.58 371.22
  Z"
/>
<path fill="#f0e1c0" d="
  M 1432.83 364.17
  Q 1432.54 356.22 1432.32 348.23
  C 1432.20 343.59 1435.32 342.92 1439.39 342.00
  Q 1449.81 339.65 1460.75 341.98
  C 1463.21 342.50 1464.59 343.58 1464.72 346.31
  Q 1466.45 382.75 1464.17 421.01
  Q 1463.93 425.18 1460.04 425.70
  C 1454.30 426.47 1441.88 427.63 1437.13 423.11
  Q 1425.57 412.10 1415.61 399.63
  Q 1415.19 399.11 1415.12 399.77
  Q 1414.02 409.84 1413.02 419.73
  Q 1412.78 422.19 1411.41 424.67
  A 1.08 1.08 0.0 0 1 1410.67 425.22
  C 1406.04 426.20 1389.69 427.65 1386.46 423.86
  Q 1385.37 422.58 1385.22 421.27
  Q 1380.70 381.18 1384.45 345.24
  C 1384.99 340.05 1403.11 341.29 1407.27 341.76
  Q 1416.40 342.79 1421.56 349.74
  Q 1426.98 357.03 1432.45 364.30
  Q 1432.86 364.85 1432.83 364.17
  Z"
/>
<path fill="#f0e1c0" d="
  M 1471.63 379.88
  C 1475.81 353.24 1497.53 337.23 1524.52 341.35
  C 1532.57 342.58 1538.26 365.31 1530.50 368.94
  Q 1529.21 369.55 1524.44 369.64
  C 1516.40 369.80 1504.17 374.71 1504.14 384.54
  C 1504.10 397.25 1518.47 395.87 1527.13 394.07
  C 1529.83 393.51 1532.73 394.21 1534.13 396.41
  C 1538.13 402.63 1543.08 420.09 1533.06 423.34
  C 1515.05 429.18 1493.31 427.10 1480.03 412.15
  Q 1468.58 399.26 1471.63 379.88
  Z"
/>
<path fill="#f0e1c0" d="
  M 1578.98 393.79
  L 1579.00 396.74
  Q 1579.01 397.38 1579.65 397.37
  Q 1590.87 397.18 1601.98 396.57
  Q 1604.25 396.45 1605.75 397.65
  C 1609.24 400.43 1608.59 416.88 1608.11 421.11
  Q 1608.05 421.62 1607.66 421.95
  Q 1605.87 423.46 1604.06 423.74
  Q 1581.37 427.19 1556.50 425.90
  Q 1552.18 425.68 1549.24 424.89
  A 1.27 1.25 82.9 0 1 1548.46 424.27
  Q 1547.52 422.48 1547.18 420.50
  Q 1545.46 410.32 1544.84 400.01
  Q 1543.51 378.02 1544.00 356.00
  Q 1544.11 351.09 1544.97 346.26
  C 1545.40 343.81 1546.71 342.63 1549.28 342.35
  Q 1572.54 339.79 1597.99 341.59
  C 1600.98 341.80 1602.85 342.44 1603.32 345.77
  C 1604.06 351.11 1603.70 356.15 1603.62 361.47
  C 1603.54 367.10 1599.34 366.74 1594.51 367.09
  Q 1586.47 367.66 1578.46 367.93
  A 0.62 0.62 0.0 0 0 1577.86 368.57
  L 1577.94 371.41
  Q 1577.95 371.99 1578.53 372.02
  Q 1582.55 372.24 1586.49 372.57
  C 1588.05 372.70 1589.01 372.75 1589.64 374.39
  Q 1592.77 382.52 1591.27 390.54
  A 2.31 2.31 0.0 0 1 1589.17 392.41
  L 1579.58 393.14
  A 0.65 0.65 0.0 0 0 1578.98 393.79
  Z"
/>
<path fill="#6d5845" d="
  M 1271.84 455.56
  C 1273.06 459.36 1281.73 459.32 1284.78 461.67
  Q 1289.17 465.06 1287.50 470.76
  C 1284.81 479.95 1271.68 479.43 1267.31 471.15
  Q 1267.07 470.69 1267.53 470.47
  L 1270.04 469.27
  Q 1270.56 469.03 1270.88 469.49
  Q 1275.08 475.45 1280.74 472.58
  Q 1283.40 471.24 1283.71 468.68
  C 1284.15 465.09 1281.24 464.12 1278.11 463.51
  C 1271.96 462.31 1265.55 458.95 1268.30 451.52
  C 1271.12 443.92 1282.46 444.26 1286.72 450.69
  Q 1287.05 451.20 1286.51 451.48
  L 1283.96 452.76
  Q 1283.42 453.03 1283.06 452.56
  C 1280.09 448.74 1274.34 448.93 1272.05 453.04
  Q 1271.40 454.21 1271.84 455.56
  Z"
/>
<path fill="#6d5845" d="
  M 1419.35 456.65
  C 1422.17 460.10 1429.07 458.76 1432.61 462.59
  C 1436.49 466.79 1435.00 472.96 1430.46 475.90
  C 1424.88 479.50 1417.43 477.09 1414.34 471.29
  Q 1414.03 470.72 1414.62 470.44
  L 1417.04 469.27
  Q 1417.55 469.02 1417.88 469.49
  Q 1422.24 475.68 1428.16 472.35
  Q 1430.20 471.21 1430.63 469.17
  C 1431.78 463.67 1424.13 463.27 1420.64 462.10
  C 1410.90 458.83 1414.04 447.13 1422.99 445.95
  Q 1429.96 445.03 1433.73 450.74
  Q 1434.04 451.21 1433.54 451.46
  L 1430.83 452.82
  Q 1430.40 453.04 1430.12 452.65
  C 1425.55 446.40 1415.69 452.20 1419.35 456.65
  Z"
/>
<path fill="#6d5845" d="
  M 1139.76 455.30
  L 1139.76 476.48
  Q 1139.76 477.09 1139.14 477.09
  L 1136.03 477.09
  Q 1135.46 477.09 1135.46 476.52
  L 1135.46 446.70
  Q 1135.46 446.11 1136.05 446.11
  L 1139.99 446.10
  Q 1140.48 446.10 1140.68 446.55
  L 1151.44 470.61
  A 0.28 0.28 0.0 0 0 1151.95 470.62
  L 1162.74 446.56
  Q 1162.94 446.11 1163.43 446.11
  L 1167.36 446.09
  Q 1167.88 446.08 1167.88 446.61
  L 1167.88 476.60
  Q 1167.88 477.08 1167.40 477.08
  L 1164.28 477.10
  Q 1163.71 477.10 1163.71 476.53
  L 1163.70 455.33
  A 0.24 0.24 0.0 0 0 1163.24 455.23
  L 1153.98 475.93
  A 2.51 2.50 45.0 0 1 1149.41 475.93
  L 1140.14 455.22
  Q 1139.76 454.37 1139.76 455.30
  Z"
/>
<path fill="#6d5845" d="
  M 1366.28 464.52
  L 1374.26 456.93
  A 0.34 0.34 0.0 0 1 1374.50 456.84
  L 1379.36 456.84
  A 0.34 0.34 0.0 0 1 1379.60 457.43
  L 1371.07 465.57
  A 0.34 0.34 0.0 0 0 1371.04 466.02
  L 1379.36 476.54
  A 0.34 0.34 0.0 0 1 1379.10 477.09
  L 1374.78 477.09
  A 0.34 0.34 0.0 0 1 1374.51 476.96
  L 1368.14 468.86
  A 0.34 0.34 0.0 0 0 1367.64 468.82
  L 1365.82 470.54
  A 0.34 0.34 0.0 0 0 1365.71 470.79
  L 1365.71 476.76
  A 0.34 0.34 0.0 0 1 1365.37 477.10
  L 1361.94 477.09
  A 0.34 0.34 0.0 0 1 1361.60 476.75
  L 1361.60 446.46
  A 0.34 0.34 0.0 0 1 1361.94 446.12
  L 1365.37 446.09
  A 0.34 0.34 0.0 0 1 1365.71 446.43
  L 1365.71 464.28
  A 0.34 0.34 0.0 0 0 1366.28 464.52
  Z"
/>
<path fill="#6d5845" d="
  M 1582.41 446.44
  L 1581.86 470.41
  A 0.32 0.32 0.0 0 1 1581.54 470.72
  L 1578.06 470.75
  A 0.32 0.32 0.0 0 1 1577.74 470.44
  L 1577.11 446.44
  A 0.32 0.32 0.0 0 1 1577.43 446.11
  L 1582.09 446.11
  A 0.32 0.32 0.0 0 1 1582.41 446.44
  Z"
/>
<path fill="#6d5845" d="
  M 1592.83 470.35
  L 1592.19 446.53
  A 0.40 0.40 0.0 0 1 1592.59 446.12
  L 1597.13 446.10
  A 0.40 0.40 0.0 0 1 1597.53 446.51
  L 1596.93 470.34
  A 0.40 0.40 0.0 0 1 1596.53 470.73
  L 1593.23 470.74
  A 0.40 0.40 0.0 0 1 1592.83 470.35
  Z"
/>
<circle fill="#6d5845" cx="1227.33" cy="448.82" r="2.66"/>
<circle fill="#6d5845" cx="1463.88" cy="448.82" r="2.66"/>
<path fill="#6d5845" d="
  M 1387.94 463.17
  C 1392.12 464.98 1399.55 464.31 1399.98 470.55
  C 1400.32 475.52 1395.34 477.73 1391.00 477.53
  Q 1385.74 477.27 1383.02 473.45
  Q 1382.67 472.97 1383.19 472.67
  L 1385.72 471.22
  Q 1386.12 470.99 1386.45 471.32
  Q 1390.26 475.22 1395.20 472.49
  A 1.20 1.16 84.5 0 0 1395.75 471.80
  Q 1396.50 469.44 1394.38 469.03
  C 1390.53 468.28 1384.80 467.75 1383.45 463.74
  C 1382.53 461.00 1383.94 458.40 1386.46 457.03
  Q 1393.16 453.41 1399.00 458.87
  Q 1399.48 459.32 1398.92 459.66
  L 1396.42 461.20
  Q 1395.97 461.48 1395.53 461.17
  Q 1391.71 458.45 1387.76 460.97
  A 1.25 1.25 0.0 0 0 1387.94 463.17
  Z"
/>
<path fill="#6d5845" d="
  M 1189.32 475.56
  Q 1185.83 478.41 1181.57 477.41
  C 1172.25 475.20 1170.60 462.73 1178.64 457.88
  Q 1184.19 454.53 1189.34 458.70
  Q 1189.85 459.12 1189.85 458.46
  L 1189.85 457.36
  Q 1189.85 456.81 1190.39 456.82
  L 1193.42 456.87
  Q 1193.97 456.88 1193.97 457.42
  L 1193.98 476.55
  A 0.53 0.53 0.0 0 1 1193.45 477.08
  L 1190.44 477.09
  Q 1189.90 477.09 1189.86 476.56
  L 1189.79 475.76
  Q 1189.75 475.20 1189.32 475.56
  Z
  M 1183.8898 473.5275
  A 6.44 6.16 88.4 0 0 1189.8676 466.9180
  A 6.44 6.16 88.4 0 0 1183.5302 460.6525
  A 6.44 6.16 88.4 0 0 1177.5524 467.2620
  A 6.44 6.16 88.4 0 0 1183.8898 473.5275
  Z"
/>
<path fill="#6d5845" d="
  M 1216.52 461.21
  C 1219.96 468.96 1211.33 473.30 1204.85 471.36
  A 0.36 0.36 0.0 0 0 1204.42 471.84
  Q 1204.74 472.60 1205.60 472.65
  Q 1210.29 472.89 1212.25 472.84
  C 1216.37 472.72 1220.61 476.58 1219.09 480.90
  C 1215.47 491.15 1192.21 485.27 1200.88 475.02
  Q 1201.21 474.64 1201.04 474.17
  Q 1200.23 471.83 1201.61 469.76
  A 0.74 0.72 44.3 0 0 1201.59 468.94
  C 1195.77 461.01 1205.22 454.36 1212.79 457.71
  A 0.81 0.79 -50.6 0 0 1213.59 457.62
  Q 1215.08 456.48 1217.00 456.60
  Q 1217.56 456.64 1217.57 457.20
  L 1217.61 460.04
  Q 1217.61 460.59 1217.07 460.65
  Q 1216.91 460.67 1216.77 460.70
  Q 1216.34 460.81 1216.52 461.21
  Z
  M 1213.1399 464.3058
  A 4.62 3.58 -0.3 0 0 1208.5013 460.7500
  A 4.62 3.58 -0.3 0 0 1203.9001 464.3542
  A 4.62 3.58 -0.3 0 0 1208.5387 467.9100
  A 4.62 3.58 -0.3 0 0 1213.1399 464.3058
  Z
  M 1205.66 481.72
  Q 1210.75 483.40 1214.68 480.41
  A 1.74 1.73 -57.9 0 0 1213.98 477.33
  Q 1209.75 476.47 1205.44 476.74
  A 2.29 2.29 0.0 0 0 1203.31 478.75
  Q 1203.04 480.85 1205.66 481.72
  Z"
/>
<path fill="#6d5845" d="
  M 1240.34 471.38
  C 1242.77 474.37 1247.30 474.28 1249.80 471.08
  Q 1250.10 470.69 1250.50 470.97
  L 1253.08 472.69
  A 0.56 0.55 38.7 0 1 1253.18 473.53
  Q 1247.98 479.19 1241.88 477.06
  C 1233.53 474.13 1231.97 462.35 1239.85 457.91
  C 1244.48 455.30 1249.81 456.45 1253.11 460.68
  Q 1253.45 461.13 1252.98 461.43
  L 1250.53 463.03
  Q 1250.10 463.32 1249.74 462.94
  C 1243.57 456.38 1235.22 465.09 1240.34 471.38
  Z"
/>
<path fill="#6d5845" d="
  M 1296.76 475.74
  L 1296.77 485.75
  Q 1296.77 486.26 1296.25 486.26
  L 1293.24 486.26
  Q 1292.72 486.26 1292.72 485.74
  L 1292.72 457.51
  Q 1292.72 456.99 1293.24 456.98
  L 1296.25 456.95
  Q 1296.79 456.95 1296.78 457.50
  L 1296.75 458.22
  Q 1296.73 458.90 1297.28 458.50
  C 1304.85 453.06 1314.39 460.06 1313.03 468.50
  C 1311.81 476.02 1303.68 480.55 1297.27 475.50
  Q 1296.76 475.11 1296.76 475.74
  Z
  M 1302.8110 473.5695
  A 6.47 6.18 90.7 0 0 1309.0695 467.1755
  A 6.47 6.18 90.7 0 0 1302.9690 460.6305
  A 6.47 6.18 90.7 0 0 1296.7105 467.0245
  A 6.47 6.18 90.7 0 0 1302.8110 473.5695
  Z"
/>
<path fill="#6d5845" d="
  M 1333.51 458.46
  L 1333.48 457.30
  Q 1333.46 456.82 1333.95 456.83
  L 1336.95 456.85
  Q 1337.55 456.86 1337.55 457.45
  L 1337.54 476.51
  Q 1337.54 477.08 1336.98 477.08
  L 1334.08 477.10
  Q 1333.44 477.10 1333.47 476.46
  L 1333.51 475.76
  Q 1333.54 475.08 1333.02 475.51
  C 1327.58 480.04 1320.12 476.90 1317.69 470.75
  C 1314.05 461.56 1324.40 452.57 1333.15 458.66
  Q 1333.53 458.92 1333.51 458.46
  Z
  M 1327.4536 473.5288
  A 6.44 6.16 88.9 0 0 1333.4889 466.9717
  A 6.44 6.16 88.9 0 0 1327.2064 460.6512
  A 6.44 6.16 88.9 0 0 1321.1711 467.2083
  A 6.44 6.16 88.9 0 0 1327.4536 473.5288
  Z"
/>
<path fill="#6d5845" d="
  M 1444.61 462.01
  C 1437.66 468.16 1447.40 478.44 1453.23 471.07
  A 0.55 0.55 0.0 0 1 1453.97 470.96
  L 1456.56 472.70
  Q 1457.01 473.00 1456.66 473.42
  C 1452.01 479.01 1444.30 479.06 1440.10 473.26
  C 1432.48 462.75 1447.75 449.59 1456.59 460.68
  Q 1456.94 461.13 1456.46 461.44
  L 1454.03 463.03
  Q 1453.59 463.31 1453.21 462.95
  C 1450.60 460.48 1447.41 459.53 1444.61 462.01
  Z"
/>
<path fill="#6d5845" d="
  M 1475.04 468.84
  C 1476.33 474.30 1481.99 475.17 1485.15 470.56
  Q 1485.46 470.09 1485.97 470.33
  L 1488.50 471.48
  Q 1488.97 471.70 1488.74 472.17
  C 1485.09 479.58 1475.63 479.26 1471.84 472.18
  C 1467.38 463.84 1476.10 452.16 1485.27 457.93
  Q 1490.41 461.16 1489.91 467.88
  Q 1489.87 468.28 1489.47 468.28
  L 1475.49 468.27
  Q 1474.91 468.27 1475.04 468.84
  Z
  M 1475.55 464.46
  L 1485.23 464.52
  A 0.18 0.18 0.0 0 0 1485.41 464.34
  L 1485.41 464.29
  A 4.90 3.61 0.3 0 0 1480.53 460.65
  L 1480.29 460.65
  A 4.90 3.61 0.3 0 0 1475.37 464.23
  L 1475.37 464.28
  A 0.18 0.18 0.0 0 0 1475.55 464.46
  Z"
/>
<path fill="#6d5845" d="
  M 1533.05 462.90
  C 1529.68 459.29 1524.74 460.12 1522.78 464.27
  C 1519.70 470.77 1528.01 477.16 1533.15 471.16
  Q 1533.52 470.73 1533.99 471.04
  L 1536.47 472.70
  Q 1536.90 472.99 1536.58 473.39
  C 1529.56 482.21 1516.53 476.01 1518.24 465.25
  C 1519.67 456.26 1530.87 453.44 1536.51 460.73
  Q 1536.83 461.14 1536.39 461.42
  L 1533.95 463.01
  Q 1533.45 463.33 1533.05 462.90
  Z"
/>
<path fill="#6d5845" d="
  M 1544.12 468.72
  C 1545.04 473.97 1551.55 475.58 1554.10 470.44
  A 0.50 0.50 0.0 0 1 1554.76 470.21
  L 1557.53 471.49
  Q 1558.10 471.75 1557.80 472.31
  C 1552.93 481.10 1541.13 478.22 1539.80 468.75
  C 1537.64 453.35 1560.19 452.36 1558.96 467.83
  Q 1558.93 468.27 1558.48 468.27
  L 1544.50 468.27
  Q 1544.04 468.27 1544.12 468.72
  Z
  M 1544.65 464.48
  L 1554.19 464.48
  A 0.16 0.16 0.0 0 0 1554.35 464.32
  L 1554.35 464.28
  A 4.84 3.60 -0.0 0 0 1549.51 460.68
  L 1549.33 460.68
  A 4.84 3.60 0.0 0 0 1544.49 464.28
  L 1544.49 464.32
  A 0.16 0.16 0.0 0 0 1544.65 464.48
  Z"
/>
<rect fill="#6d5845" x="1225.24" y="456.84" width="4.04" height="20.26" rx="0.30"/>
<path fill="#6d5845" d="
  M 1348.57 458.26
  Q 1352.56 455.42 1357.14 457.72
  Q 1357.63 457.97 1357.51 458.50
  L 1356.86 461.56
  Q 1356.72 462.21 1356.15 461.86
  C 1353.23 460.08 1349.33 460.52 1348.35 464.18
  C 1347.41 467.69 1347.97 472.88 1347.99 476.58
  A 0.50 0.50 0.0 0 1 1347.50 477.08
  L 1344.61 477.10
  Q 1343.99 477.10 1343.99 476.48
  L 1343.99 457.74
  Q 1343.99 457.22 1344.51 457.22
  L 1347.48 457.23
  A 0.49 0.49 0.0 0 1 1347.97 457.68
  Q 1347.98 457.85 1348.00 458.01
  Q 1348.08 458.61 1348.57 458.26
  Z"
/>
<rect fill="#6d5845" x="1461.76" y="456.85" width="4.08" height="20.24" rx="0.33"/>
<path fill="#6d5845" d="
  M 1500.26 457.64
  C 1504.45 456.07 1510.35 456.76 1512.34 461.17
  C 1513.85 464.52 1513.04 472.44 1513.05 476.51
  Q 1513.05 477.06 1512.50 477.07
  L 1509.66 477.10
  Q 1509.09 477.11 1509.09 476.53
  L 1509.04 463.57
  A 1.33 1.30 24.1 0 0 1508.69 462.68
  C 1506.52 460.28 1499.31 459.59 1499.23 464.54
  Q 1499.14 470.56 1499.20 476.59
  Q 1499.21 477.08 1498.72 477.08
  L 1495.65 477.10
  Q 1495.07 477.10 1495.07 476.52
  L 1495.08 457.76
  Q 1495.08 457.32 1495.49 457.16
  Q 1497.67 456.32 1499.50 457.55
  Q 1499.86 457.79 1500.26 457.64
  Z"
/>
<circle fill="#6d5845" cx="1579.80" cy="474.46" r="2.67"/>
<circle fill="#6d5845" cx="1594.88" cy="474.46" r="2.66"/>
</svg>
