<?xml version="1.0" encoding="UTF-8" standalone="no"?>
<!DOCTYPE svg PUBLIC "-//W3C//DTD SVG 1.1//EN" "http://www.w3.org/Graphics/SVG/1.1/DTD/svg11.dtd">
<svg xmlns="http://www.w3.org/2000/svg" version="1.1" viewBox="0.00 0.00 2580.00 811.00">
<g stroke-width="2.00" fill="none" stroke-linecap="butt">
<path stroke="#b38c4f" vector-effect="non-scaling-stroke" d="
  M 535.37 440.69
  A 0.38 0.38 0.0 0 1 535.53 440.37
  L 603.07 391.40
  A 0.38 0.38 0.0 0 0 602.95 390.73
  L 522.97 366.92
  A 0.38 0.38 0.0 0 1 522.72 366.67
  L 496.94 287.18
  A 0.38 0.38 0.0 0 0 496.26 287.08
  L 449.01 355.69
  A 0.38 0.38 0.0 0 1 448.70 355.85
  L 364.77 355.81
  A 0.38 0.38 0.0 0 0 364.47 356.42
  L 415.90 422.77
  A 0.38 0.38 0.0 0 1 415.96 423.12
  L 389.50 502.85
  A 0.38 0.38 0.0 0 0 389.99 503.33
  L 469.04 474.88
  A 0.38 0.38 0.0 0 1 469.39 474.93
  L 536.84 524.73
  A 0.38 0.38 0.0 0 0 537.44 524.41
  L 535.37 440.69"
/>
<path stroke="#af9d83" vector-effect="non-scaling-stroke" d="
  M 328.12 551.84
  C 328.31 455.34 305.35 326.70 186.83 311.03
  Q 153.51 306.63 122.48 311.92
  Q 58.48 322.84 1.49 353.51
  A 1.14 1.13 76.0 0 0 0.90 354.51
  L 0.86 460.77
  A 0.60 0.59 -14.2 0 0 1.74 461.29
  Q 42.34 439.77 87.51 430.03
  Q 116.66 423.74 143.75 425.82
  C 189.12 429.29 222.14 453.27 242.21 493.07
  Q 250.87 510.26 255.08 526.49
  Q 267.44 574.11 266.33 623.30
  A 0.44 0.44 0.0 0 0 266.91 623.72
  Q 304.48 610.81 344.06 612.99
  C 409.55 616.59 452.61 660.84 470.64 721.65
  Q 470.79 722.13 471.28 722.01
  Q 516.14 710.88 562.22 714.99
  C 602.78 718.60 637.78 736.77 652.74 776.69
  Q 652.92 777.17 653.38 776.95
  Q 671.02 768.67 690.49 767.79
  C 717.59 766.56 733.57 784.48 736.88 809.68
  A 0.69 0.68 -3.8 0 0 737.56 810.27
  L 895.95 810.21
  A 0.53 0.53 0.0 0 0 896.48 809.69
  Q 896.75 788.13 883.12 773.35
  C 866.54 755.37 836.73 751.10 813.72 752.72
  Q 813.19 752.76 812.97 752.28
  Q 807.47 740.45 804.45 735.30
  Q 772.39 680.62 709.72 668.63
  C 670.50 661.13 628.24 666.47 590.73 679.25
  A 0.52 0.51 69.8 0 1 590.08 678.94
  Q 563.75 607.69 497.03 574.29
  C 466.80 559.16 431.88 551.48 397.75 549.52
  Q 361.77 547.45 328.72 552.36
  Q 328.12 552.45 328.12 551.84"
/>
<path stroke="#ae5840" vector-effect="non-scaling-stroke" d="
  M 395.41 400.78
  L 319.82 447.19
  Q 319.48 447.40 319.56 447.79
  Q 325.32 473.31 327.74 499.35
  Q 327.81 500.05 328.40 499.66
  L 404.30 450.20
  Q 404.81 449.87 405.00 449.28
  L 413.27 424.00
  A 1.16 1.15 -54.6 0 0 413.09 422.92
  L 396.18 400.92
  Q 395.86 400.50 395.41 400.78"
/>
<path stroke="#a89170" vector-effect="non-scaling-stroke" d="
  M 264.94 625.41
  Q 265.64 583.73 257.34 543.08
  C 253.05 522.09 245.91 501.99 235.15 483.62
  C 184.54 397.17 71.22 425.75 1.55 463.81
  A 1.37 1.37 0.0 0 0 0.84 465.01
  L 0.84 584.05
  A 0.79 0.78 0.0 0 0 1.63 584.83
  C 55.57 584.45 96.47 618.86 108.31 670.51
  Q 114.99 699.61 113.43 731.84
  A 0.35 0.35 0.0 0 0 114.05 732.08
  C 128.98 713.90 150.85 701.51 173.35 715.79
  Q 173.79 716.07 174.22 715.77
  C 209.74 691.43 269.90 669.83 297.04 720.50
  Q 306.11 737.44 309.13 756.02
  A 0.44 0.44 0.0 0 0 309.79 756.33
  Q 326.06 746.66 342.73 744.24
  C 383.32 738.34 394.43 778.28 395.61 809.49
  A 0.88 0.87 -1.0 0 0 396.49 810.33
  L 734.38 810.39
  A 0.60 0.48 85.0 0 0 734.84 809.71
  C 728.07 762.96 686.32 762.91 652.49 779.10
  A 0.47 0.47 0.0 0 1 651.85 778.83
  Q 637.55 739.11 597.65 724.70
  Q 573.18 715.87 546.49 715.32
  Q 507.40 714.51 470.19 723.88
  Q 469.68 724.01 469.53 723.50
  C 450.40 659.44 407.10 616.65 337.61 614.15
  Q 301.86 612.87 265.57 625.86
  Q 264.93 626.09 264.94 625.41"
/>
<path stroke="#b38c4f" vector-effect="non-scaling-stroke" d="
  M 387.12 505.29
  L 404.02 453.38
  A 0.28 0.28 0.0 0 0 403.60 453.06
  L 328.46 501.92
  Q 328.02 502.21 328.07 502.73
  Q 330.07 526.10 330.23 549.56
  Q 330.23 550.14 330.80 550.05
  Q 346.56 547.72 362.48 547.10
  A 2.26 2.23 -65.4 0 0 363.80 546.60
  Q 397.69 519.30 430.63 490.85
  A 0.15 0.15 0.0 0 0 430.49 490.60
  L 387.56 505.73
  A 0.35 0.35 0.0 0 1 387.12 505.29"
/>
<path stroke="#647b6f" vector-effect="non-scaling-stroke" d="
  M 439.17 487.86
  C 437.94 488.29 436.75 488.74 435.72 489.63
  Q 402.04 518.58 367.62 546.49
  A 0.19 0.18 25.2 0 0 367.74 546.82
  Q 401.95 546.13 435.64 551.99
  A 1.37 1.36 28.8 0 0 436.78 551.66
  L 496.23 498.36
  A 0.59 0.59 0.0 0 0 496.18 497.44
  L 469.30 477.89
  A 1.20 1.19 52.9 0 0 468.18 477.73
  Q 453.87 482.74 439.17 487.86"
/>
<path stroke="#a27d54" vector-effect="non-scaling-stroke" d="
  M 111.50 737.55
  C 113.81 706.42 110.79 673.57 97.62 644.88
  C 79.94 606.41 43.07 586.22 1.45 587.05
  A 0.68 0.67 89.6 0 0 0.79 587.73
  L 0.76 809.30
  A 1.05 1.04 0.3 0 0 1.80 810.34
  L 392.90 810.38
  A 0.76 0.75 -2.1 0 0 393.66 809.57
  Q 393.12 801.81 392.35 793.99
  C 389.58 765.70 373.48 740.13 340.95 746.06
  Q 323.53 749.24 308.70 758.97
  A 0.41 0.40 69.0 0 1 308.08 758.69
  C 305.67 743.66 300.49 726.93 291.96 714.61
  Q 271.19 684.59 231.72 692.26
  Q 201.50 698.14 174.55 717.56
  A 0.79 0.79 0.0 0 1 173.72 717.61
  Q 171.53 716.39 169.37 715.18
  C 147.75 703.03 123.66 719.61 111.93 737.69
  A 0.23 0.23 0.0 0 1 111.50 737.55"
/>
<path stroke="#b38c4f" vector-effect="non-scaling-stroke" d="
  M 2083.68 286.97
  A 0.32 0.32 0.0 0 0 2083.11 287.06
  L 2057.27 366.71
  A 0.32 0.32 0.0 0 1 2057.06 366.92
  L 1976.95 390.76
  A 0.32 0.32 0.0 0 0 1976.86 391.32
  L 2044.47 440.36
  A 0.32 0.32 0.0 0 1 2044.61 440.63
  L 2042.55 524.54
  A 0.32 0.32 0.0 0 0 2043.06 524.80
  L 2110.63 474.91
  A 0.32 0.32 0.0 0 1 2110.93 474.87
  L 2190.15 503.37
  A 0.32 0.32 0.0 0 0 2190.56 502.97
  L 2164.02 423.09
  A 0.32 0.32 0.0 0 1 2164.07 422.80
  L 2215.61 356.34
  A 0.32 0.32 0.0 0 0 2215.36 355.82
  L 2131.28 355.82
  A 0.32 0.32 0.0 0 1 2131.01 355.68
  L 2083.68 286.97"
/>
<path stroke="#af9d83" vector-effect="non-scaling-stroke" d="
  M 2255.25 555.62
  Q 2195.70 546.56 2137.45 560.03
  C 2071.76 575.22 2020.78 616.30 1997.36 680.48
  Q 1997.17 681.02 1996.62 680.84
  Q 1988.71 678.34 1980.74 676.14
  Q 1943.57 665.88 1905.00 667.44
  C 1850.08 669.67 1804.29 695.62 1780.25 746.52
  Q 1779.47 748.18 1777.02 753.04
  A 0.79 0.78 -74.1 0 1 1776.26 753.47
  C 1756.44 752.02 1732.00 755.28 1715.75 766.79
  Q 1694.37 781.92 1694.64 809.77
  Q 1694.65 810.20 1695.08 810.20
  L 1851.21 810.26
  A 1.08 1.07 3.3 0 0 1852.28 809.31
  C 1853.61 798.14 1858.39 786.77 1866.42 779.04
  C 1884.06 762.04 1914.19 767.70 1934.49 777.28
  Q 1935.00 777.52 1935.20 776.99
  Q 1950.77 736.48 1992.33 723.11
  Q 2019.93 714.23 2050.63 714.92
  Q 2084.21 715.67 2114.52 722.97
  Q 2114.98 723.08 2115.12 722.63
  C 2130.65 671.43 2164.18 629.68 2218.53 618.39
  C 2251.01 611.64 2284.84 615.24 2316.12 625.85
  Q 2316.72 626.05 2316.72 625.42
  C 2316.77 538.30 2338.80 431.98 2448.72 430.08
  Q 2467.41 429.76 2484.23 432.81
  Q 2533.95 441.86 2578.24 465.60
  A 0.70 0.70 0.0 0 0 2579.27 464.99
  L 2579.17 360.06
  Q 2579.17 359.47 2578.65 359.18
  Q 2523.44 329.56 2461.70 318.71
  Q 2431.99 313.49 2402.03 316.33
  C 2300.36 325.97 2265.30 418.82 2258.11 506.51
  Q 2256.67 523.98 2255.83 541.51
  Q 2255.50 548.31 2255.79 555.14
  Q 2255.82 555.71 2255.25 555.62"
/>
<path stroke="#ae5840" vector-effect="non-scaling-stroke" d="
  M 2256.36 502.16
  C 2258.13 484.94 2260.75 467.64 2264.74 450.76
  A 0.98 0.97 22.5 0 0 2264.30 449.71
  L 2184.49 400.71
  Q 2184.13 400.50 2183.87 400.83
  L 2166.96 422.96
  Q 2166.61 423.42 2166.79 423.97
  L 2175.04 449.40
  A 1.50 1.49 8.0 0 0 2175.64 450.19
  L 2255.84 502.40
  A 0.34 0.33 19.9 0 0 2256.36 502.16"
/>
<path stroke="#a89170" vector-effect="non-scaling-stroke" d="
  M 2317.79 628.17
  Q 2294.57 619.81 2267.99 617.42
  C 2216.32 612.78 2169.42 629.62 2139.89 673.64
  Q 2124.11 697.17 2116.35 724.66
  A 0.58 0.58 0.0 0 1 2115.65 725.07
  Q 2076.77 715.14 2036.51 716.75
  C 1993.02 718.50 1951.33 734.86 1936.35 779.47
  Q 1936.16 780.02 1935.63 779.76
  C 1913.27 768.71 1878.93 762.36 1862.71 786.24
  C 1858.24 792.83 1855.58 801.48 1854.21 809.52
  A 0.74 0.74 0.0 0 0 1854.94 810.38
  L 2188.22 810.34
  A 1.16 1.16 0.0 0 0 2189.38 809.20
  Q 2189.69 791.32 2195.62 774.13
  C 2208.94 735.55 2246.15 740.77 2274.23 757.28
  Q 2274.67 757.54 2274.75 757.04
  C 2280.28 722.26 2299.84 688.76 2340.27 691.22
  C 2364.47 692.70 2387.90 703.48 2407.73 716.90
  Q 2408.16 717.19 2408.60 716.92
  C 2431.61 702.90 2453.04 715.53 2467.83 733.89
  Q 2468.28 734.45 2468.24 733.73
  C 2466.20 702.16 2470.21 667.25 2485.81 639.30
  C 2504.75 605.35 2540.16 587.42 2578.59 587.67
  A 0.68 0.67 -0.0 0 0 2579.27 587.00
  L 2579.22 469.10
  Q 2579.22 468.50 2578.69 468.21
  C 2541.54 448.07 2499.23 433.55 2456.76 431.75
  Q 2437.18 430.92 2419.00 435.08
  C 2332.52 454.87 2317.74 555.36 2318.22 627.86
  Q 2318.23 628.33 2317.79 628.17"
/>
<path stroke="#b38c4f" vector-effect="non-scaling-stroke" d="
  M 2192.89 505.30
  A 0.35 0.35 0.0 0 1 2192.44 505.73
  L 2149.51 490.60
  A 0.15 0.15 0.0 0 0 2149.36 490.86
  Q 2184.00 520.71 2219.62 549.37
  Q 2220.83 550.34 2221.49 550.37
  Q 2237.83 550.99 2253.74 553.40
  A 0.65 0.64 -86.7 0 0 2254.47 552.74
  Q 2253.64 529.00 2256.14 505.36
  A 0.76 0.75 19.8 0 0 2255.81 504.67
  L 2176.26 452.98
  A 0.22 0.22 0.0 0 0 2175.93 453.24
  L 2192.89 505.30"
/>
<path stroke="#647b6f" vector-effect="non-scaling-stroke" d="
  M 2215.98 549.40
  C 2191.82 529.69 2167.87 509.96 2144.27 489.59
  A 6.34 6.29 74.8 0 0 2142.28 488.44
  L 2111.73 477.69
  A 1.04 1.03 -53.2 0 0 2110.78 477.83
  L 2083.80 497.45
  Q 2083.19 497.89 2083.75 498.39
  L 2147.26 555.24
  Q 2147.74 555.66 2148.36 555.54
  C 2172.20 551.02 2193.15 550.24 2215.74 550.09
  A 0.39 0.39 0.0 0 0 2215.98 549.40"
/>
<path stroke="#a27d54" vector-effect="non-scaling-stroke" d="
  M 2275.17 759.44
  C 2257.97 748.31 2230.69 739.61 2212.47 752.57
  C 2195.68 764.52 2191.71 790.73 2191.39 809.40
  Q 2191.38 810.35 2192.32 810.35
  L 2578.33 810.37
  A 0.95 0.94 -90.0 0 0 2579.27 809.42
  L 2579.23 590.54
  A 0.81 0.81 0.0 0 0 2578.44 589.73
  C 2535.10 589.04 2497.11 611.59 2481.08 652.53
  C 2470.65 679.15 2468.21 706.86 2469.50 735.25
  Q 2469.56 736.69 2469.81 738.19
  Q 2469.95 739.05 2469.47 738.32
  C 2458.06 721.10 2435.67 705.11 2414.34 715.35
  Q 2412.67 716.15 2408.69 718.51
  Q 2408.24 718.78 2407.80 718.48
  C 2380.04 699.04 2331.19 678.20 2301.00 705.19
  C 2286.58 718.09 2278.49 740.28 2275.58 759.26
  Q 2275.52 759.67 2275.17 759.44"
/>
</g>
<path fill="#6d5845" d="
  M 898.44 811.00
  L 0.00 811.00
  L 0.00 351.88
  C 77.57 310.48 201.08 276.19 272.18 351.31
  C 295.89 376.37 310.88 410.75 318.67 444.36
  A 0.52 0.52 0.0 0 0 319.45 444.69
  L 394.27 398.71
  A 0.51 0.50 55.4 0 0 394.40 397.98
  L 361.49 354.99
  Q 361.08 354.46 361.75 354.46
  L 447.29 354.46
  Q 447.89 354.46 448.23 353.96
  L 496.69 283.68
  Q 497.18 282.96 497.45 283.79
  L 523.72 364.81
  Q 523.98 365.59 524.76 365.82
  L 606.47 390.13
  A 0.40 0.40 0.0 0 1 606.59 390.84
  L 537.35 441.04
  A 1.06 1.04 -19.0 0 0 536.91 441.93
  L 539.02 526.75
  Q 539.05 528.17 537.90 527.33
  L 499.44 499.32
  Q 499.01 499.00 498.61 499.36
  L 439.69 552.27
  Q 439.08 552.81 439.88 552.97
  C 509.89 566.82 565.80 608.27 591.26 676.26
  A 0.54 0.54 0.0 0 0 591.93 676.58
  Q 619.38 667.62 650.48 664.41
  C 721.57 657.07 784.27 682.28 814.27 750.26
  A 0.74 0.73 75.9 0 0 815.00 750.70
  C 853.70 748.08 900.21 763.30 898.44 811.00
  Z
  M 535.37 440.69
  A 0.38 0.38 0.0 0 1 535.53 440.37
  L 603.07 391.40
  A 0.38 0.38 0.0 0 0 602.95 390.73
  L 522.97 366.92
  A 0.38 0.38 0.0 0 1 522.72 366.67
  L 496.94 287.18
  A 0.38 0.38 0.0 0 0 496.26 287.08
  L 449.01 355.69
  A 0.38 0.38 0.0 0 1 448.70 355.85
  L 364.77 355.81
  A 0.38 0.38 0.0 0 0 364.47 356.42
  L 415.90 422.77
  A 0.38 0.38 0.0 0 1 415.96 423.12
  L 389.50 502.85
  A 0.38 0.38 0.0 0 0 389.99 503.33
  L 469.04 474.88
  A 0.38 0.38 0.0 0 1 469.39 474.93
  L 536.84 524.73
  A 0.38 0.38 0.0 0 0 537.44 524.41
  L 535.37 440.69
  Z
  M 328.12 551.84
  C 328.31 455.34 305.35 326.70 186.83 311.03
  Q 153.51 306.63 122.48 311.92
  Q 58.48 322.84 1.49 353.51
  A 1.14 1.13 76.0 0 0 0.90 354.51
  L 0.86 460.77
  A 0.60 0.59 -14.2 0 0 1.74 461.29
  Q 42.34 439.77 87.51 430.03
  Q 116.66 423.74 143.75 425.82
  C 189.12 429.29 222.14 453.27 242.21 493.07
  Q 250.87 510.26 255.08 526.49
  Q 267.44 574.11 266.33 623.30
  A 0.44 0.44 0.0 0 0 266.91 623.72
  Q 304.48 610.81 344.06 612.99
  C 409.55 616.59 452.61 660.84 470.64 721.65
  Q 470.79 722.13 471.28 722.01
  Q 516.14 710.88 562.22 714.99
  C 602.78 718.60 637.78 736.77 652.74 776.69
  Q 652.92 777.17 653.38 776.95
  Q 671.02 768.67 690.49 767.79
  C 717.59 766.56 733.57 784.48 736.88 809.68
  A 0.69 0.68 -3.8 0 0 737.56 810.27
  L 895.95 810.21
  A 0.53 0.53 0.0 0 0 896.48 809.69
  Q 896.75 788.13 883.12 773.35
  C 866.54 755.37 836.73 751.10 813.72 752.72
  Q 813.19 752.76 812.97 752.28
  Q 807.47 740.45 804.45 735.30
  Q 772.39 680.62 709.72 668.63
  C 670.50 661.13 628.24 666.47 590.73 679.25
  A 0.52 0.51 69.8 0 1 590.08 678.94
  Q 563.75 607.69 497.03 574.29
  C 466.80 559.16 431.88 551.48 397.75 549.52
  Q 361.77 547.45 328.72 552.36
  Q 328.12 552.45 328.12 551.84
  Z
  M 395.41 400.78
  L 319.82 447.19
  Q 319.48 447.40 319.56 447.79
  Q 325.32 473.31 327.74 499.35
  Q 327.81 500.05 328.40 499.66
  L 404.30 450.20
  Q 404.81 449.87 405.00 449.28
  L 413.27 424.00
  A 1.16 1.15 -54.6 0 0 413.09 422.92
  L 396.18 400.92
  Q 395.86 400.50 395.41 400.78
  Z
  M 264.94 625.41
  Q 265.64 583.73 257.34 543.08
  C 253.05 522.09 245.91 501.99 235.15 483.62
  C 184.54 397.17 71.22 425.75 1.55 463.81
  A 1.37 1.37 0.0 0 0 0.84 465.01
  L 0.84 584.05
  A 0.79 0.78 0.0 0 0 1.63 584.83
  C 55.57 584.45 96.47 618.86 108.31 670.51
  Q 114.99 699.61 113.43 731.84
  A 0.35 0.35 0.0 0 0 114.05 732.08
  C 128.98 713.90 150.85 701.51 173.35 715.79
  Q 173.79 716.07 174.22 715.77
  C 209.74 691.43 269.90 669.83 297.04 720.50
  Q 306.11 737.44 309.13 756.02
  A 0.44 0.44 0.0 0 0 309.79 756.33
  Q 326.06 746.66 342.73 744.24
  C 383.32 738.34 394.43 778.28 395.61 809.49
  A 0.88 0.87 -1.0 0 0 396.49 810.33
  L 734.38 810.39
  A 0.60 0.48 85.0 0 0 734.84 809.71
  C 728.07 762.96 686.32 762.91 652.49 779.10
  A 0.47 0.47 0.0 0 1 651.85 778.83
  Q 637.55 739.11 597.65 724.70
  Q 573.18 715.87 546.49 715.32
  Q 507.40 714.51 470.19 723.88
  Q 469.68 724.01 469.53 723.50
  C 450.40 659.44 407.10 616.65 337.61 614.15
  Q 301.86 612.87 265.57 625.86
  Q 264.93 626.09 264.94 625.41
  Z
  M 387.12 505.29
  L 404.02 453.38
  A 0.28 0.28 0.0 0 0 403.60 453.06
  L 328.46 501.92
  Q 328.02 502.21 328.07 502.73
  Q 330.07 526.10 330.23 549.56
  Q 330.23 550.14 330.80 550.05
  Q 346.56 547.72 362.48 547.10
  A 2.26 2.23 -65.4 0 0 363.80 546.60
  Q 397.69 519.30 430.63 490.85
  A 0.15 0.15 0.0 0 0 430.49 490.60
  L 387.56 505.73
  A 0.35 0.35 0.0 0 1 387.12 505.29
  Z
  M 439.17 487.86
  C 437.94 488.29 436.75 488.74 435.72 489.63
  Q 402.04 518.58 367.62 546.49
  A 0.19 0.18 25.2 0 0 367.74 546.82
  Q 401.95 546.13 435.64 551.99
  A 1.37 1.36 28.8 0 0 436.78 551.66
  L 496.23 498.36
  A 0.59 0.59 0.0 0 0 496.18 497.44
  L 469.30 477.89
  A 1.20 1.19 52.9 0 0 468.18 477.73
  Q 453.87 482.74 439.17 487.86
  Z
  M 111.50 737.55
  C 113.81 706.42 110.79 673.57 97.62 644.88
  C 79.94 606.41 43.07 586.22 1.45 587.05
  A 0.68 0.67 89.6 0 0 0.79 587.73
  L 0.76 809.30
  A 1.05 1.04 0.3 0 0 1.80 810.34
  L 392.90 810.38
  A 0.76 0.75 -2.1 0 0 393.66 809.57
  Q 393.12 801.81 392.35 793.99
  C 389.58 765.70 373.48 740.13 340.95 746.06
  Q 323.53 749.24 308.70 758.97
  A 0.41 0.40 69.0 0 1 308.08 758.69
  C 305.67 743.66 300.49 726.93 291.96 714.61
  Q 271.19 684.59 231.72 692.26
  Q 201.50 698.14 174.55 717.56
  A 0.79 0.79 0.0 0 1 173.72 717.61
  Q 171.53 716.39 169.37 715.18
  C 147.75 703.03 123.66 719.61 111.93 737.69
  A 0.23 0.23 0.0 0 1 111.50 737.55
  Z"
/>
<path fill="#6d5845" d="
  M 2580.00 357.61
  L 2580.00 811.00
  L 1692.49 811.00
  C 1691.28 763.88 1736.50 748.78 1775.05 751.45
  Q 1775.56 751.48 1775.77 751.01
  C 1788.95 720.90 1810.85 695.32 1840.72 680.92
  Q 1870.80 666.41 1904.76 665.22
  Q 1951.17 663.60 1995.17 678.30
  Q 1995.67 678.47 1995.86 677.98
  C 2022.59 609.66 2074.47 571.61 2144.33 556.30
  Q 2144.75 556.21 2144.43 555.92
  L 2081.30 499.31
  Q 2080.97 499.01 2080.62 499.28
  L 2042.10 527.33
  Q 2040.94 528.17 2040.98 526.75
  L 2043.10 441.95
  Q 2043.11 441.38 2042.65 441.05
  L 1973.58 390.97
  A 0.51 0.51 0.0 0 1 1973.73 390.07
  L 2055.47 365.74
  Q 2056.03 365.58 2056.21 365.02
  L 2082.62 283.58
  Q 2082.82 282.96 2083.19 283.50
  L 2131.64 353.77
  Q 2132.11 354.46 2132.94 354.46
  L 2218.24 354.46
  Q 2218.92 354.46 2218.51 354.99
  L 2185.70 397.84
  Q 2185.24 398.45 2185.89 398.84
  L 2264.90 447.32
  Q 2265.47 447.67 2265.64 447.02
  C 2272.50 420.10 2282.43 395.09 2298.66 372.37
  C 2340.24 314.21 2408.88 304.95 2474.57 318.93
  Q 2530.06 330.74 2580.00 357.61
  Z
  M 2083.68 286.97
  A 0.32 0.32 0.0 0 0 2083.11 287.06
  L 2057.27 366.71
  A 0.32 0.32 0.0 0 1 2057.06 366.92
  L 1976.95 390.76
  A 0.32 0.32 0.0 0 0 1976.86 391.32
  L 2044.47 440.36
  A 0.32 0.32 0.0 0 1 2044.61 440.63
  L 2042.55 524.54
  A 0.32 0.32 0.0 0 0 2043.06 524.80
  L 2110.63 474.91
  A 0.32 0.32 0.0 0 1 2110.93 474.87
  L 2190.15 503.37
  A 0.32 0.32 0.0 0 0 2190.56 502.97
  L 2164.02 423.09
  A 0.32 0.32 0.0 0 1 2164.07 422.80
  L 2215.61 356.34
  A 0.32 0.32 0.0 0 0 2215.36 355.82
  L 2131.28 355.82
  A 0.32 0.32 0.0 0 1 2131.01 355.68
  L 2083.68 286.97
  Z
  M 2255.25 555.62
  Q 2195.70 546.56 2137.45 560.03
  C 2071.76 575.22 2020.78 616.30 1997.36 680.48
  Q 1997.17 681.02 1996.62 680.84
  Q 1988.71 678.34 1980.74 676.14
  Q 1943.57 665.88 1905.00 667.44
  C 1850.08 669.67 1804.29 695.62 1780.25 746.52
  Q 1779.47 748.18 1777.02 753.04
  A 0.79 0.78 -74.1 0 1 1776.26 753.47
  C 1756.44 752.02 1732.00 755.28 1715.75 766.79
  Q 1694.37 781.92 1694.64 809.77
  Q 1694.65 810.20 1695.08 810.20
  L 1851.21 810.26
  A 1.08 1.07 3.3 0 0 1852.28 809.31
  C 1853.61 798.14 1858.39 786.77 1866.42 779.04
  C 1884.06 762.04 1914.19 767.70 1934.49 777.28
  Q 1935.00 777.52 1935.20 776.99
  Q 1950.77 736.48 1992.33 723.11
  Q 2019.93 714.23 2050.63 714.92
  Q 2084.21 715.67 2114.52 722.97
  Q 2114.98 723.08 2115.12 722.63
  C 2130.65 671.43 2164.18 629.68 2218.53 618.39
  C 2251.01 611.64 2284.84 615.24 2316.12 625.85
  Q 2316.72 626.05 2316.72 625.42
  C 2316.77 538.30 2338.80 431.98 2448.72 430.08
  Q 2467.41 429.76 2484.23 432.81
  Q 2533.95 441.86 2578.24 465.60
  A 0.70 0.70 0.0 0 0 2579.27 464.99
  L 2579.17 360.06
  Q 2579.17 359.47 2578.65 359.18
  Q 2523.44 329.56 2461.70 318.71
  Q 2431.99 313.49 2402.03 316.33
  C 2300.36 325.97 2265.30 418.82 2258.11 506.51
  Q 2256.67 523.98 2255.83 541.51
  Q 2255.50 548.31 2255.79 555.14
  Q 2255.82 555.71 2255.25 555.62
  Z
  M 2256.36 502.16
  C 2258.13 484.94 2260.75 467.64 2264.74 450.76
  A 0.98 0.97 22.5 0 0 2264.30 449.71
  L 2184.49 400.71
  Q 2184.13 400.50 2183.87 400.83
  L 2166.96 422.96
  Q 2166.61 423.42 2166.79 423.97
  L 2175.04 449.40
  A 1.50 1.49 8.0 0 0 2175.64 450.19
  L 2255.84 502.40
  A 0.34 0.33 19.9 0 0 2256.36 502.16
  Z
  M 2317.79 628.17
  Q 2294.57 619.81 2267.99 617.42
  C 2216.32 612.78 2169.42 629.62 2139.89 673.64
  Q 2124.11 697.17 2116.35 724.66
  A 0.58 0.58 0.0 0 1 2115.65 725.07
  Q 2076.77 715.14 2036.51 716.75
  C 1993.02 718.50 1951.33 734.86 1936.35 779.47
  Q 1936.16 780.02 1935.63 779.76
  C 1913.27 768.71 1878.93 762.36 1862.71 786.24
  C 1858.24 792.83 1855.58 801.48 1854.21 809.52
  A 0.74 0.74 0.0 0 0 1854.94 810.38
  L 2188.22 810.34
  A 1.16 1.16 0.0 0 0 2189.38 809.20
  Q 2189.69 791.32 2195.62 774.13
  C 2208.94 735.55 2246.15 740.77 2274.23 757.28
  Q 2274.67 757.54 2274.75 757.04
  C 2280.28 722.26 2299.84 688.76 2340.27 691.22
  C 2364.47 692.70 2387.90 703.48 2407.73 716.90
  Q 2408.16 717.19 2408.60 716.92
  C 2431.61 702.90 2453.04 715.53 2467.83 733.89
  Q 2468.28 734.45 2468.24 733.73
  C 2466.20 702.16 2470.21 667.25 2485.81 639.30
  C 2504.75 605.35 2540.16 587.42 2578.59 587.67
  A 0.68 0.67 -0.0 0 0 2579.27 587.00
  L 2579.22 469.10
  Q 2579.22 468.50 2578.69 468.21
  C 2541.54 448.07 2499.23 433.55 2456.76 431.75
  Q 2437.18 430.92 2419.00 435.08
  C 2332.52 454.87 2317.74 555.36 2318.22 627.86
  Q 2318.23 628.33 2317.79 628.17
  Z
  M 2192.89 505.30
  A 0.35 0.35 0.0 0 1 2192.44 505.73
  L 2149.51 490.60
  A 0.15 0.15 0.0 0 0 2149.36 490.86
  Q 2184.00 520.71 2219.62 549.37
  Q 2220.83 550.34 2221.49 550.37
  Q 2237.83 550.99 2253.74 553.40
  A 0.65 0.64 -86.7 0 0 2254.47 552.74
  Q 2253.64 529.00 2256.14 505.36
  A 0.76 0.75 19.8 0 0 2255.81 504.67
  L 2176.26 452.98
  A 0.22 0.22 0.0 0 0 2175.93 453.24
  L 2192.89 505.30
  Z
  M 2215.98 549.40
  C 2191.82 529.69 2167.87 509.96 2144.27 489.59
  A 6.34 6.29 74.8 0 0 2142.28 488.44
  L 2111.73 477.69
  A 1.04 1.03 -53.2 0 0 2110.78 477.83
  L 2083.80 497.45
  Q 2083.19 497.89 2083.75 498.39
  L 2147.26 555.24
  Q 2147.74 555.66 2148.36 555.54
  C 2172.20 551.02 2193.15 550.24 2215.74 550.09
  A 0.39 0.39 0.0 0 0 2215.98 549.40
  Z
  M 2275.17 759.44
  C 2257.97 748.31 2230.69 739.61 2212.47 752.57
  C 2195.68 764.52 2191.71 790.73 2191.39 809.40
  Q 2191.38 810.35 2192.32 810.35
  L 2578.33 810.37
  A 0.95 0.94 -90.0 0 0 2579.27 809.42
  L 2579.23 590.54
  A 0.81 0.81 0.0 0 0 2578.44 589.73
  C 2535.10 589.04 2497.11 611.59 2481.08 652.53
  C 2470.65 679.15 2468.21 706.86 2469.50 735.25
  Q 2469.56 736.69 2469.81 738.19
  Q 2469.95 739.05 2469.47 738.32
  C 2458.06 721.10 2435.67 705.11 2414.34 715.35
  Q 2412.67 716.15 2408.69 718.51
  Q 2408.24 718.78 2407.80 718.48
  C 2380.04 699.04 2331.19 678.20 2301.00 705.19
  C 2286.58 718.09 2278.49 740.28 2275.58 759.26
  Q 2275.52 759.67 2275.17 759.44
  Z"
/>
<path fill="#f8c059" d="
  M 2083.68 286.97
  L 2131.01 355.68
  A 0.32 0.32 0.0 0 0 2131.28 355.82
  L 2215.36 355.82
  A 0.32 0.32 0.0 0 1 2215.61 356.34
  L 2164.07 422.80
  A 0.32 0.32 0.0 0 0 2164.02 423.09
  L 2190.56 502.97
  A 0.32 0.32 0.0 0 1 2190.15 503.37
  L 2110.93 474.87
  A 0.32 0.32 0.0 0 0 2110.63 474.91
  L 2043.06 524.80
  A 0.32 0.32 0.0 0 1 2042.55 524.54
  L 2044.61 440.63
  A 0.32 0.32 0.0 0 0 2044.47 440.36
  L 1976.86 391.32
  A 0.32 0.32 0.0 0 1 1976.95 390.76
  L 2057.06 366.92
  A 0.32 0.32 0.0 0 0 2057.27 366.71
  L 2083.11 287.06
  A 0.32 0.32 0.0 0 1 2083.68 286.97
  Z"
/>
<path fill="#f8c059" d="
  M 535.37 440.69
  L 537.44 524.41
  A 0.38 0.38 0.0 0 1 536.84 524.73
  L 469.39 474.93
  A 0.38 0.38 0.0 0 0 469.04 474.88
  L 389.99 503.33
  A 0.38 0.38 0.0 0 1 389.50 502.85
  L 415.96 423.12
  A 0.38 0.38 0.0 0 0 415.90 422.77
  L 364.47 356.42
  A 0.38 0.38 0.0 0 1 364.77 355.81
  L 448.70 355.85
  A 0.38 0.38 0.0 0 0 449.01 355.69
  L 496.26 287.08
  A 0.38 0.38 0.0 0 1 496.94 287.18
  L 522.72 366.67
  A 0.38 0.38 0.0 0 0 522.97 366.92
  L 602.95 390.73
  A 0.38 0.38 0.0 0 1 603.07 391.40
  L 535.53 440.37
  A 0.38 0.38 0.0 0 0 535.37 440.69
  Z"
/>
<path fill="#f0e1c1" d="
  M 328.72 552.36
  Q 361.77 547.45 397.75 549.52
  C 431.88 551.48 466.80 559.16 497.03 574.29
  Q 563.75 607.69 590.08 678.94
  A 0.52 0.51 69.8 0 0 590.73 679.25
  C 628.24 666.47 670.50 661.13 709.72 668.63
  Q 772.39 680.62 804.45 735.30
  Q 807.47 740.45 812.97 752.28
  Q 813.19 752.76 813.72 752.72
  C 836.73 751.10 866.54 755.37 883.12 773.35
  Q 896.75 788.13 896.48 809.69
  A 0.53 0.53 0.0 0 1 895.95 810.21
  L 737.56 810.27
  A 0.69 0.68 -3.8 0 1 736.88 809.68
  C 733.57 784.48 717.59 766.56 690.49 767.79
  Q 671.02 768.67 653.38 776.95
  Q 652.92 777.17 652.74 776.69
  C 637.78 736.77 602.78 718.60 562.22 714.99
  Q 516.14 710.88 471.28 722.01
  Q 470.79 722.13 470.64 721.65
  C 452.61 660.84 409.55 616.59 344.06 612.99
  Q 304.48 610.81 266.91 623.72
  A 0.44 0.44 0.0 0 1 266.33 623.30
  Q 267.44 574.11 255.08 526.49
  Q 250.87 510.26 242.21 493.07
  C 222.14 453.27 189.12 429.29 143.75 425.82
  Q 116.66 423.74 87.51 430.03
  Q 42.34 439.77 1.74 461.29
  A 0.60 0.59 -14.2 0 1 0.86 460.77
  L 0.90 354.51
  A 1.14 1.13 76.0 0 1 1.49 353.51
  Q 58.48 322.84 122.48 311.92
  Q 153.51 306.63 186.83 311.03
  C 305.35 326.70 328.31 455.34 328.12 551.84
  Q 328.12 552.45 328.72 552.36
  Z"
/>
<path fill="#f0e1c1" d="
  M 2255.79 555.14
  Q 2255.50 548.31 2255.83 541.51
  Q 2256.67 523.98 2258.11 506.51
  C 2265.30 418.82 2300.36 325.97 2402.03 316.33
  Q 2431.99 313.49 2461.70 318.71
  Q 2523.44 329.56 2578.65 359.18
  Q 2579.17 359.47 2579.17 360.06
  L 2579.27 464.99
  A 0.70 0.70 0.0 0 1 2578.24 465.60
  Q 2533.95 441.86 2484.23 432.81
  Q 2467.41 429.76 2448.72 430.08
  C 2338.80 431.98 2316.77 538.30 2316.72 625.42
  Q 2316.72 626.05 2316.12 625.85
  C 2284.84 615.24 2251.01 611.64 2218.53 618.39
  C 2164.18 629.68 2130.65 671.43 2115.12 722.63
  Q 2114.98 723.08 2114.52 722.97
  Q 2084.21 715.67 2050.63 714.92
  Q 2019.93 714.23 1992.33 723.11
  Q 1950.77 736.48 1935.20 776.99
  Q 1935.00 777.52 1934.49 777.28
  C 1914.19 767.70 1884.06 762.04 1866.42 779.04
  C 1858.39 786.77 1853.61 798.14 1852.28 809.31
  A 1.08 1.07 3.3 0 1 1851.21 810.26
  L 1695.08 810.20
  Q 1694.65 810.20 1694.64 809.77
  Q 1694.37 781.92 1715.75 766.79
  C 1732.00 755.28 1756.44 752.02 1776.26 753.47
  A 0.79 0.78 -74.1 0 0 1777.02 753.04
  Q 1779.47 748.18 1780.25 746.52
  C 1804.29 695.62 1850.08 669.67 1905.00 667.44
  Q 1943.57 665.88 1980.74 676.14
  Q 1988.71 678.34 1996.62 680.84
  Q 1997.17 681.02 1997.36 680.48
  C 2020.78 616.30 2071.76 575.22 2137.45 560.03
  Q 2195.70 546.56 2255.25 555.62
  Q 2255.82 555.71 2255.79 555.14
  Z"
/>
<path fill="#ee583b" d="
  M 319.82 447.19
  L 395.41 400.78
  Q 395.86 400.50 396.18 400.92
  L 413.09 422.92
  A 1.16 1.15 -54.6 0 1 413.27 424.00
  L 405.00 449.28
  Q 404.81 449.87 404.30 450.20
  L 328.40 499.66
  Q 327.81 500.05 327.74 499.35
  Q 325.32 473.31 319.56 447.79
  Q 319.48 447.40 319.82 447.19
  Z"
/>
<path fill="#ee583b" d="
  M 2264.74 450.76
  C 2260.75 467.64 2258.13 484.94 2256.36 502.16
  A 0.34 0.33 19.9 0 1 2255.84 502.40
  L 2175.64 450.19
  A 1.50 1.49 8.0 0 1 2175.04 449.40
  L 2166.79 423.97
  Q 2166.61 423.42 2166.96 422.96
  L 2183.87 400.83
  Q 2184.13 400.50 2184.49 400.71
  L 2264.30 449.71
  A 0.98 0.97 22.5 0 1 2264.74 450.76
  Z"
/>
<path fill="#e2c99a" d="
  M 265.57 625.86
  Q 301.86 612.87 337.61 614.15
  C 407.10 616.65 450.40 659.44 469.53 723.50
  Q 469.68 724.01 470.19 723.88
  Q 507.40 714.51 546.49 715.32
  Q 573.18 715.87 597.65 724.70
  Q 637.55 739.11 651.85 778.83
  A 0.47 0.47 0.0 0 0 652.49 779.10
  C 686.32 762.91 728.07 762.96 734.84 809.71
  A 0.60 0.48 85.0 0 1 734.38 810.39
  L 396.49 810.33
  A 0.88 0.87 -1.0 0 1 395.61 809.49
  C 394.43 778.28 383.32 738.34 342.73 744.24
  Q 326.06 746.66 309.79 756.33
  A 0.44 0.44 0.0 0 1 309.13 756.02
  Q 306.11 737.44 297.04 720.50
  C 269.90 669.83 209.74 691.43 174.22 715.77
  Q 173.79 716.07 173.35 715.79
  C 150.85 701.51 128.98 713.90 114.05 732.08
  A 0.35 0.35 0.0 0 1 113.43 731.84
  Q 114.99 699.61 108.31 670.51
  C 96.47 618.86 55.57 584.45 1.63 584.83
  A 0.79 0.78 0.0 0 1 0.84 584.05
  L 0.84 465.01
  A 1.37 1.37 0.0 0 1 1.55 463.81
  C 71.22 425.75 184.54 397.17 235.15 483.62
  C 245.91 501.99 253.05 522.09 257.34 543.08
  Q 265.64 583.73 264.94 625.41
  Q 264.93 626.09 265.57 625.86
  Z"
/>
<path fill="#e2c99a" d="
  M 2318.22 627.86
  C 2317.74 555.36 2332.52 454.87 2419.00 435.08
  Q 2437.18 430.92 2456.76 431.75
  C 2499.23 433.55 2541.54 448.07 2578.69 468.21
  Q 2579.22 468.50 2579.22 469.10
  L 2579.27 587.00
  A 0.68 0.67 -0.0 0 1 2578.59 587.67
  C 2540.16 587.42 2504.75 605.35 2485.81 639.30
  C 2470.21 667.25 2466.20 702.16 2468.24 733.73
  Q 2468.28 734.45 2467.83 733.89
  C 2453.04 715.53 2431.61 702.90 2408.60 716.92
  Q 2408.16 717.19 2407.73 716.90
  C 2387.90 703.48 2364.47 692.70 2340.27 691.22
  C 2299.84 688.76 2280.28 722.26 2274.75 757.04
  Q 2274.67 757.54 2274.23 757.28
  C 2246.15 740.77 2208.94 735.55 2195.62 774.13
  Q 2189.69 791.32 2189.38 809.20
  A 1.16 1.16 0.0 0 1 2188.22 810.34
  L 1854.94 810.38
  A 0.74 0.74 0.0 0 1 1854.21 809.52
  C 1855.58 801.48 1858.24 792.83 1862.71 786.24
  C 1878.93 762.36 1913.27 768.71 1935.63 779.76
  Q 1936.16 780.02 1936.35 779.47
  C 1951.33 734.86 1993.02 718.50 2036.51 716.75
  Q 2076.77 715.14 2115.65 725.07
  A 0.58 0.58 0.0 0 0 2116.35 724.66
  Q 2124.11 697.17 2139.89 673.64
  C 2169.42 629.62 2216.32 612.78 2267.99 617.42
  Q 2294.57 619.81 2317.79 628.17
  Q 2318.23 628.33 2318.22 627.86
  Z"
/>
<path fill="#f8c059" d="
  M 2192.89 505.30
  L 2175.93 453.24
  A 0.22 0.22 0.0 0 1 2176.26 452.98
  L 2255.81 504.67
  A 0.76 0.75 19.8 0 1 2256.14 505.36
  Q 2253.64 529.00 2254.47 552.74
  A 0.65 0.64 -86.7 0 1 2253.74 553.40
  Q 2237.83 550.99 2221.49 550.37
  Q 2220.83 550.34 2219.62 549.37
  Q 2184.00 520.71 2149.36 490.86
  A 0.15 0.15 0.0 0 1 2149.51 490.60
  L 2192.44 505.73
  A 0.35 0.35 0.0 0 0 2192.89 505.30
  Z"
/>
<path fill="#f8c059" d="
  M 387.12 505.29
  A 0.35 0.35 0.0 0 0 387.56 505.73
  L 430.49 490.60
  A 0.15 0.15 0.0 0 1 430.63 490.85
  Q 397.69 519.30 363.80 546.60
  A 2.26 2.23 -65.4 0 1 362.48 547.10
  Q 346.56 547.72 330.80 550.05
  Q 330.23 550.14 330.23 549.56
  Q 330.07 526.10 328.07 502.73
  Q 328.02 502.21 328.46 501.92
  L 403.60 453.06
  A 0.28 0.28 0.0 0 1 404.02 453.38
  L 387.12 505.29
  Z"
/>
<path fill="#5a9e99" d="
  M 439.17 487.86
  Q 453.87 482.74 468.18 477.73
  A 1.20 1.19 52.9 0 1 469.30 477.89
  L 496.18 497.44
  A 0.59 0.59 0.0 0 1 496.23 498.36
  L 436.78 551.66
  A 1.37 1.36 28.8 0 1 435.64 551.99
  Q 401.95 546.13 367.74 546.82
  A 0.19 0.18 25.2 0 1 367.62 546.49
  Q 402.04 518.58 435.72 489.63
  C 436.75 488.74 437.94 488.29 439.17 487.86
  Z"
/>
<path fill="#5a9e99" d="
  M 2144.27 489.59
  C 2167.87 509.96 2191.82 529.69 2215.98 549.40
  A 0.39 0.39 0.0 0 1 2215.74 550.09
  C 2193.15 550.24 2172.20 551.02 2148.36 555.54
  Q 2147.74 555.66 2147.26 555.24
  L 2083.75 498.39
  Q 2083.19 497.89 2083.80 497.45
  L 2110.78 477.83
  A 1.04 1.03 -53.2 0 1 2111.73 477.69
  L 2142.28 488.44
  A 6.34 6.29 74.8 0 1 2144.27 489.59
  Z"
/>
<path fill="#d6a163" d="
  M 111.50 737.55
  A 0.23 0.23 0.0 0 0 111.93 737.69
  C 123.66 719.61 147.75 703.03 169.37 715.18
  Q 171.53 716.39 173.72 717.61
  A 0.79 0.79 0.0 0 0 174.55 717.56
  Q 201.50 698.14 231.72 692.26
  Q 271.19 684.59 291.96 714.61
  C 300.49 726.93 305.67 743.66 308.08 758.69
  A 0.41 0.40 69.0 0 0 308.70 758.97
  Q 323.53 749.24 340.95 746.06
  C 373.48 740.13 389.58 765.70 392.35 793.99
  Q 393.12 801.81 393.66 809.57
  A 0.76 0.75 -2.1 0 1 392.90 810.38
  L 1.80 810.34
  A 1.05 1.04 0.3 0 1 0.76 809.30
  L 0.79 587.73
  A 0.68 0.67 89.6 0 1 1.45 587.05
  C 43.07 586.22 79.94 606.41 97.62 644.88
  C 110.79 673.57 113.81 706.42 111.50 737.55
  Z"
/>
<path fill="#d6a163" d="
  M 2275.58 759.26
  C 2278.49 740.28 2286.58 718.09 2301.00 705.19
  C 2331.19 678.20 2380.04 699.04 2407.80 718.48
  Q 2408.24 718.78 2408.69 718.51
  Q 2412.67 716.15 2414.34 715.35
  C 2435.67 705.11 2458.06 721.10 2469.47 738.32
  Q 2469.95 739.05 2469.81 738.19
  Q 2469.56 736.69 2469.50 735.25
  C 2468.21 706.86 2470.65 679.15 2481.08 652.53
  C 2497.11 611.59 2535.10 589.04 2578.44 589.73
  A 0.81 0.81 0.0 0 1 2579.23 590.54
  L 2579.27 809.42
  A 0.95 0.94 -90.0 0 1 2578.33 810.37
  L 2192.32 810.35
  Q 2191.38 810.35 2191.39 809.40
  C 2191.71 790.73 2195.68 764.52 2212.47 752.57
  C 2230.69 739.61 2257.97 748.31 2275.17 759.44
  Q 2275.52 759.67 2275.58 759.26
  Z"
/>
</svg>
